<svg xmlns="http://www.w3.org/2000/svg" xmlns:xlink="http://www.w3.org/1999/xlink" viewBox="0 0 976 1600"><defs><style>.cls-1{fill:none;}.cls-2{fill:#f4f3ef;}.cls-3{clip-path:url(#clip-path);}.cls-4{fill:#50b271;}.cls-5{fill:#ffb85a;}.cls-6{fill:#d81e1e;}.cls-7{fill:#592116;}.cls-8{fill:#992d17;}</style><clipPath id="clip-path"><path class="cls-1" d="M960,22V1578a6,6,0,0,1-6,6H22a6,6,0,0,1-6-6V22a6,6,0,0,1,6-6H954A6,6,0,0,1,960,22Z"/></clipPath></defs><g id="Paper_Backing" data-name="Paper Backing"><path class="cls-2" d="M960,22V1578a6,6,0,0,1-6,6H22a6,6,0,0,1-6-6V22a6,6,0,0,1,6-6H954A6,6,0,0,1,960,22Z"/></g><g id="Wikipedia_Cropped" data-name="Wikipedia Cropped"><g class="cls-3"><path class="cls-4" d="M938.76,1600.65c-158.84-132.44-92.85-278.64-174-121.44-11.66,13.84-66,120.42-77.91,102.17,3-10.54,4.31-15.52-3.5-23-.74-16.34-1.95-32.81-2.11-48.57-4.9-13.21,14.7-90.35-6.14-79.77-37.85,26.53-79.2,48.11-119.21,71.4-13,6.55-27.77,15.61-42.51,16.82-4.59-1.3-6.16-6.62-12-5.53-4.4-27.6,20.35-61.76,30.18-87.26,2.21-18.57-23.74.36-33.45-1.38a359.37,359.37,0,0,1-71.19,6.8c-31.05-4.22,25.63-71.58,38-87.38A248.48,248.48,0,0,1,587,1266c27.23-6.85,58.93-10.72,80.44,4.76A214.94,214.94,0,0,1,724,1254.38c41.17-4,14.74,28.45,62.79-3.42,15.32-1.57,30.45,14.5,34.37,30.33a6,6,0,0,0,7.41,4.24c9.43-1.54,22.57,20.14,28.26,5.57,34.37-14,83.08,9.62,111,32.16,3.15,4.85,11.58-.76,12.15,6.15-3.22,3,5.79,83.54-4,81-7.33,1.5-7.12-3-11.19-6.79-16.92-5-32.67-26.06-49.45-24.65,7.57,41.5,30.89,93.15,30.43,139.89C945,1544.61,964.47,1585.31,938.76,1600.65ZM676.82,681.05c-12.4-1.86-10.52-26.74-27.11-19.73-6.78-.28-5.76-1.74-9.47-4.41-12.59-14.75-3.34-51.06-4.69-71.5-2-25.45,31.54-110.74-15.5-68.15-33.47,28-71.28,48.64-110.3,67-7.89,1.72-9.81-5.65-18.33.34-11.53-22.83,14.71-58,22.44-81.65,7.57-19.16-29.37-9-40.25-13.74C357.92,480.34,551.7,382.9,590.16,388.84c14,14.77,42-20.94,66.08-22.17,13.49-2.67,29.14-10.58,38.41.73,9.88-1.86,2.91-4.37,9.9,3.15,8.27,1.79,15.47-8.56,24.05-2.93,22.69-4.24,28.77,49.73,42,37.68,8.66-2.12,13.19-5.51,8.86-15.25a233.72,233.72,0,0,0-17.78-68.19c5.22-11.49,38.56-21.27,36.45,2.64-.94,14.46,9.92,19.12,15.49,4.7,12.54-12.61,12-36.17,25-46.36,48.44,7.24,38.32,7.41,12.3,42.87-3.36,29.76,45.87-24.84,36.74,23.12.37,4.77.79,14.24-5.75,14-19.56,2.35-53.43,9.68-57.74,31.15,19.81,6.38,48.69-2.85,68.21,13.48,14.74,12.34,30.21,22.89,41.87,39.35,14.67,14.29,24.28,57.41,42.84,63.75,6.4-.71,1.29,49.08,2.88,51.73.19,5.47-10.56,5.39-12.58,1.78-2.49-5.63-9.6-1.24-13.3-4.54-15-.93-61-53.79-63.37-29.35,7.2,34.49,15.5,70.25,20.43,104.35-6.38,9-3.57,12.73,1,22.45-6.94,18-57.8-23.57-75.41-35.21-28.12-21.79-50-49.08-66.78-83.42-1.38-7.16-9.56-16.6-14.25-6.29C737.91,585.71,719.31,641.27,676.82,681.05ZM174.5,296.84C80.32,232.55,39.56,106.85,19.2,0c-.67-10.94,137.46-.51,141.53-4,6.45.3,1.79,9.83,8.18,10.93,30.86-15.15,58,4.33,99.35,33.37,38.46,33.41,93.23,78.95,70.05,118.62-28.22-1.3-120.51-80.51-82.29-9.38,3.83,18.45,24.57,48.22,7,63.4-49.81-7.49-114.36-91-82.4,2.62,6.68,25.22,8.42,50.44,8,77.11C187.22,299.82,179,293.11,174.5,296.84Z"/><path class="cls-5" d="M524.71,1095.22c-7.46,1.35-11.68-3.4-17.47-5.88-7.45,1.9-18.9,4.75-25.36-.42-12.13-7.61-34.28,8.41-46.11-6.23-6.87-12.85-28.64-5.59-43.66-22.3-6-1.56-5.72-6.2-6.21-11.39-11.42-8.75-31.35-12.44-38.08-25.84,9.14-9.95,28.4-1.14,40.58-2.39,37.66,1.94,82.25-13.2,118.82-22.55,8.86-1.19,14.2-15.59,24.83-12.33,3.68.11,5.24-2.93,6.52-5.83,1.7-5.4,21.53-11.56,11.66-19.67-33.62-22.78-55.29-50.49-61.11-86.84-.27-5.53-6-4.56-9.43-6.26-7.54-6.37-13.1-14.5-19.93-21.94-20.7-20.53,24.84-9.94,33.09-6.44,11.34-9.2,20.3-24.59,37.95-24.17,43-5.86,64,38.44,69.75-24.68,8.74-54.5-11.28-114.68-50.94-155.92,14.59-7.73,37,7.6,46.74,15.54,5.61,5.07,10.45-3.61,16.72-2.57,14.94-1.5,27.72,15.39,39.48,23.41,4.71-1.62,9.51-1.22,13.41,2.72,8.21,5.73,5.35,23.21,15.43,26.09,12.51.7,17.48,22,18.47,37.41,9.44,11.39,18.2,25.77,12.6,41.93,5.07,11.48,11.55,23.82,2.3,35.52-1.93,12.83,8.81,10.5-1.6,26.91,4.79,7.82,6.16,18.94-3.12,24.79-5.17,7.53,3.51,25.64-12,28.39-8.36,2.61-2.63,10.45-.06,15.18,1.46,3.76.06,9.26,5.62,10.06,42.66,7.46,89.87-5.55,131.61-10.93,7.85,12.93-18.38,20.65-8.56,32.73,4.48,17.57-23.68,27.6-16.22,40.21-2.88,71.61-103-2.58-143.65,15.84-13.45,5,8.43,24.61-10.38,38.69-12.13,5.84-11.45,17.92-22.8,15.63-8.36,1.85-8.24,16.11-19.5,15.18-14.52-10.23-18.21,15.21-32,10.85-9.29-5.58-15.6,12-26.38,8.75C544.53,1077.81,536,1097.88,524.71,1095.22ZM526.23,846c-22.27-3.5-22.81,44.72-2.19,32,7.48-3.65,11.71-10.68,9.82-19.5C533.54,852.35,535.18,845.18,526.23,846ZM242.93,663.23c-8.5.74-29-8.84-15.06-15.9,8.28-2.54,5.35-15,5.93-20.93C258,610.36,284.25,669.68,242.93,663.23Z"/><path class="cls-6" d="M817.07,1604c-6.74-3.89-83,6.72-86.1-4.27,3-21.31-4.28-43.91-.57-64.18,25.33-39.14,53.29-76.78,71.05-120.29,11.68-20.9,21.07,39,30.79,46,25,35,9.79,74.39,11.32,113.83C842.52,1602.4,848,1606.26,817.07,1604Zm13.37-320c-14.12-1.09-12.37-20.25-19.3-28.67-24.17-3.72-17.26-16.51-40.37,2.45-11,12.64-20-2.69-33.09-5.79-24.32-3.22-1.36-59.66-6.72-79.4,6.33-30.44-11.1-161.23,7.53-168.91,28.39,19.9,76.45,16.17,77-26.4,15.54-16.77,6.94-46.82,23.76-59,11.72-20.12-13.81-9.41-23.78-8.7-54.06-19.9-109,24.42-111.16-4.22-.48-9.68,8.25-12.73,12.52-19.17-3-12.87,1-26.73,2.33-39.79,3.28-67,5.87-134.67.48-202.33-4.15-17.55,6.83-31,14.21-44.39,7.37-6.5,20.34-79.75,31.85-69,15.31,34,34.51,62.84,62.89,87.82,10.46,6.24,8.14,20.36,6.15,31.69-.19,46.24-9.23,106.92,8.23,147.59,28.52-22.65,45.16-67.48,69.25-95,14.81-23.89,34.11-44.24,50.06-67.26.72-5.27,10.5-2.47,13.74-3.15,8.64-3.26,2,62.37,4,64.65-2,9.39-16.64-.14-21.68,4.95-44.26,42.82-85.94,89.93-111.43,146.72-3,8.85,8.31,7.42,12.43,12.27,10.27,6,18.93,36.67,1.61,46.47-6.58,5.62,4.89,12.87-2.25,19.18-14.52,31.75-17.22,66.86-19.3,101.12-5.09,56.54-1,113.59-.26,170.33,1,25.85,3.81,50.42,5.78,76.29C847,1284,837.26,1283.4,830.44,1284ZM225.24,867.36c-7.4,1.33-11.84-3.59-17.63-6-10.81,4-21.42,2.24-30.64-3.72-13.07,3.85-34.5,6.81-42.39-5.23a6,6,0,0,0-5.87-4.93c-15.71,1-27.27-9-40.45-17.12-4.63-2.73,1.22-10.93-5.93-12.3-12.24-5.1-28.27-11.92-34.67-23,9.27-9.88,28.59-1,40.87-2.32,36.58-.08,79.48-8.8,114.06-23.12,12.06,4.16,16.84-15.12,29-11.85,3.73.43,5.81-2.49,7-5.6,4.13-8.38,20.83-10.51,11.6-19.9-40.63-22.1-49.92-60.24-66.91-91.42-32.33-26.2-46.22-46.31,10.22-30.47,9.25-9.69,27.85-26.13,36.44-23.58,47.34-4.5,65.71,38.06,71.35-30.06,3.4-43.81-3.8-91.18-34.57-129.46-1.83-9-24.84-16.18-14.95-23.33,15.92-3.14,35.57,11.71,48.86,19.5,17-11.28,31.52,2.46,46.62,12.55,17.13-5.9,26.24,20.88,28.2,30.1,15.21,9.27,24.18,19.43,24.46,42.18,9.59,11.49,18.09,27.09,12.7,42.26,5.1,11.48,11.08,23.91,2.14,35.68-1.64,13.4,8.87,9.84-1.69,27,3.89,7.15,7.1,14.87-.9,22.82-10.35,4.73,1.06,14.48-5,21.83-7.07,10.37-19.54,10.89-8.7,24.76.26,3.67.53,8.07,5.13,8.78,34.74,4.86,74.2-.16,109.22-7.43,31.94-9.76,27.21,1.36,11.05,22.22,14.63,22.39-25.9,35.63-11.44,49.86-17,67.6-101.19-5.5-145.35,13.25-13.2,5.58,8.93,28.47-13.26,40.49-7.29.24-8.52,7.51-11.92,12.31a6.06,6.06,0,0,1-5.11,3c-10.15-3.63-9.28,10.45-18.12,12.58-3.2,1-6.55,1.73-9.33.1-9.74-6.14-13.44,12.07-23.27,12.61l.28,0c-12-6.28-17,7.33-28.82,8.31C243.9,849.42,239.22,868.43,225.24,867.36Zm.92-249.4c-54.15,15.73,28.61,74.6,40.52,33.88C269.31,632.27,244,618.15,226.16,618Zm543.1-214.72c-7.18,0-9.73-5.77-11.82-11-5.6-13.55-16-23.37-30.82-29.22-7.34-2.14-5.73-7.83-3.4-13.35,1.9-32.86-2.09-65.37-4.89-97.91-2.09-22-10.6-45.2-9.89-66.16-9.77-6.82-23-10-19.15-26.5.87-11.27,10.47-10.32,17.21-14.83,1.6-19.16,8.5-39.17,7-58.76C710.82,61,721.13,31,709.21,10.44c.84-2.87-2.47-15.09,4-14.44H857.48c6.33-.07,4.35,13.37,3,16.73-4.05,47.29-3.8,90.63,10.24,138.87,8.21,13.5-1.35,14.76,2.66,23.35,2.28,3.11,5.72,8.57,1.08,10.91-14.54,6.25-15.42,0-19.41,17.37-10.08,12.51,2.43,80.32-14.58,79.93C821,299.39,818.52,278.32,820,312.25c.37,7.05-13.49,32.69-18.48,17-3.87-28.94-21.72-20.21-40.88-10C758.13,333.65,793.61,405.68,769.26,403.24Z"/><path class="cls-7" d="M976,1327.19c-29.5-35.33-77.6-46-121.62-48.25-1.56-.11-3.21.46-3.4-2.25-1.21-16.92-2.77-33.81-3.84-50.74-.52-33.82-5-67.75-2.85-101.43-.67-54.8-1.16-110.57,10.42-164.43,5.18-16.48,8.31-33.73,16.39-49.1,10.75-20.09,8.38-47.27-16.52-57.55-6.09-6.48,17.71-36.81,21.6-44.9,24.17-41.71,62.5-72.91,90.12-111.59a4,4,0,0,0-1.16-2.63c-3-3.35-4.74-.06-6,1.2-46.75,45.17-91.76,94.69-117.4,155.31-2.9-4.9-4.21-10.57-8.4-15-2.56-2.7-3.61-6.34-.52-11,12.12-18.25,26.24-35,37.8-53.77,28.71-44.73,59.41-88.76,93.12-130,1.7-2.12,3.93-5.18,1.07-7.41s-4.41.56-6.16,2.7c-45.5,47.44-78.55,101.91-115,156.44-5.19-54.61-5.89-106.13-3.86-160.31,9.07,5.81,81.32,55.74,79.17,27.21-3.26-44-13.19-87.67-21.16-130.49,19.52,13.92,38.32,29.07,61.47,36.9,3.21,1.15,9.58,6.6,11.3-.1,2.18-8.34-3.44-16.42-8.35-22.65C921.36,492.13,882.42,435,822.86,403.6c19.65-7.58,49.6-4.22,67,6.9,34.42,22.71,56.95,60.18,74.64,96.79,1.18,4,6.09,12.15,11.52,7.08-7.12-31.23-37.58-72.82-60.24-95.75-30-26.65-44.62-27-82.47-28.44,14.94-13.88,35.25-22.1,56-23,2.11,0,3-.31,4-2.9,4.22-11.52,1.46-22.89-.78-34-.83-4.1-4.5-8.93-11.92-5.92-7.18,2.9-15.35,3.36-24,5.08,9.54-14.81,40.27-46.56,8.24-48.26-8-.73-9.91-3.65-10-11.38a288.72,288.72,0,0,1,4.79-57.32c1.37-7.19-.82-19.74,13.56-20.15,19-7.76,4.36-34.86.92-48-10.52-42.53-12.42-85.53-11.3-129-1.18-4.55-8.19-8.73-7.93,0,.11,23.05-.17,46.11.13,69.16,4.42,103.14,49.92,82.94-38.91,62.1-20.09-5.43-40.59-8.83-61-6.95-13.1,1.2-26.06.67-39.06,1.36-3.77.2-5.46-1.75-4.76-5.66,10-38.8,5.18-79.08,7.5-118.92.82-3.11-6-9.25-7.75-3.74-4.09,22.91.52,121.23-14.27,128.67-8.24,3.53-13.11,10.77-13.68,19.86-.54,8.89-.23,17.8,9,23.21,23.33,3,26.91,155.39,23.43,176.5-2.26-.23-3.59,4.15-6.38.82C685.94,343.72,637,364.07,614.55,378c-5.13,3.2-9.51,10.08-16.8,8.7-13.22-2.49-25.72,1.15-38.38,3.47a253.79,253.79,0,0,0-80.62,32.74c-20.29,13.93-38,31-55.85,48.1-10.94,10.5-1.81,10.78,3.43,13.81,26.28,9.48,54.22,10.92,81.83,10,1.54,0,3.17-.62,2,1.92C502.3,509.36,460.18,607.41,491.05,597c55-20.13,104.42-49.77,147.88-89.79-5,44-13.3,87.33-12,132a21.36,21.36,0,0,1-.5,4.21c-10.22-.25-22.27,2.54-30.24-1.93-13.61-6.24-42.24-24.94-54.7-11.85-2.4,2.69.46,5.68,2.71,8,27.68,25.72,46,60.75,50.53,98.18A208.24,208.24,0,0,1,588.18,823c-11.91-10.25-30.94-12.13-46.3-13.27-9.55,0-34.5,6.74-38.91,10.45-5.21,4.35-7,14.23-16.55,12.54-7.3-.35-37.72-10.72-40.11-4.55-2.05,2.91-3.64,7.2-.92,10.5,8,9.74,15.27,20.15,24.92,28.58,6.24,5.47,14.14,10.82,15.9,19,7.24,33.41,32.48,57.87,58.71,77.8.2.15,4.74.31.6,3.46a279,279,0,0,1-134,46.23,230.78,230.78,0,0,1-57.65-.25c-7-1.1-17-.78-14.31,9a141.21,141.21,0,0,0,15.32,16.59c9.18,8.87,23.93,9.66,31,21.88A34,34,0,0,0,410,1077.83c9.79,1.47,16.58,6.24,23.8,12,16.48,11.66,37.67-.84,55.8,6.64,5.66,2.08,10.81-3.24,16.72-.27,10,5.06,20.49,8.68,31.28,1.53,3.7-2.45,7.87-7.45,11-6.86,8.22,1.54,15.46,1.61,22.07-3.78,8.57-7,22.19-.16,29.47-11.11,2.43-3.64,5.92-5.32,11.48-4.17,7.9,1.63,34.18-15.65,37.5-23,.91-2,1.91-4.92,3.56-5.52,16.49-6,23.43-22.78,15.76-39.52-.92-2-1.88-2.18,1.06-2.72,15.14-2.78,30.25-5,44.51,2.1,3,1.46,8.18.35,8.68,4.36,4.2,27.3.28,55,1.43,82.36.19,48.21-.83,96.43-3.52,144.56-.45,5.45,3,15.36-9.36,14.67-15.11-1.1-31.35,14.76-45.34,12.88-39.61-13.63-81.35-5-118.16,11.79C483,1301.65,435.37,1360.88,406.88,1424c-7.07,18.17,19.58,12.87,29,12.55,29.93-2.14,60.08-4.29,88.59-15.11.37,6.21-3.75,13.53-6.22,18.41-12,19.27-18.25,40.63-23.83,62-2.26,8.68-10.47,21.24,2.66,28.09,7.37,3.85,14.89-4.24,22.61-6.19,9.77-2.46,18.27-9,27.14-13.8,45.71-19.15,87.22-46.91,129.27-72.74-.1,47.83-4.76,96.32,3.46,144,.63,4.27-3.88,15.64,6.07,15.64,12.3.65,28.32-36.26,38.61-43.53,3.69,10.8-5.38,46.74,7.16,49.51,1.88.59,3.36-1,3.54-2.85.12-14.12,1-28.33-.41-42.31-.68-6.81-3.77-15.06-.73-20.06,27-39.44,53-80.46,73.67-123.27,8.16,34.62,37.91,63.61,36.44,100.21-6.53,28.86-3.08,59.64-5.6,89.3-.13,1.84-2.46,4.1-.53,5.68,1.41,1.15,4.47,1.78,5.9,1,6.1-1.46,5.56-4.81,5.63-10.56.53-13.65,1.34-27.28,1.66-40.94.34-14.56,0-29.13.23-43.7,0-1.85,1.39-3.54,2.14-5.34,23.16,33.7,49.09,66.39,79.85,93.84,29.7,27.61,20-13.67,21.15-31.42-1.42-64.33-7.9-129.83-34.39-189.12,12.94,7.43,36.67,27.26,51.68,23.12-.67-1.61-.89-4-2.09-4.7-8.87-5.13-18.36-9.29-26.85-15-38.06-18.88-44.23-46.12-70.66-76.38,32.08,17.48,60.12,40.35,91.21,59.46,2.72,1.77,7.15,8.86,10.83,2.88,2.87-4.52-3-6.78-7.09-8.37-34.79-25.35-68.19-51.83-106.23-72.62,28.13-3.27,54.8,5.22,79.78,17.25,10.77,5.66,19.75,13.42,29.11,20.84C971.59,1332.42,977.69,1330.79,976,1327.19ZM486.6,842.67c-3.61,6.78-2.19,14.49-4.29,21.6-9.06-8.06-15.69-17.67-24.37-27.16C464.09,838.64,486.22,836.49,486.6,842.67Zm367.84,83.18c-20.63,51.23-20,107.25-21.62,161.58,1.21,62.33,1.33,124.63,8,186.69.16,2.09.74,6-2.38,5.09-4.46-1.24-9.32,3.94-13.7-2.81-12.34-19-6.53-39.86-7.69-60-2.84-42.93-1.44-85.89-2-128.79.46-8.72-8.52-9.92-8.29-.13-2.69,54.06-1.53,109.54-1.77,163.37-3.12-3.24-8.53-4.42-13.75-6.5-5.43-2.16-1.9-9.81-2.33-15-1-12.29-1.07-24.86-.86-37-1.47-47.75-.27-96.13-1.43-144.37-.34-7.29,4.54-22.69-5.81-25-2.76.53-1.81,2.76-1.93,4.42-1.08,14.31.44,28.75-.48,42.9-1.09,40.65-3.22,81.76-1.1,122.25,2.12,16.46.31,32.78,1.67,49.08.64,7.64-5.69,10-9.88,12.36-15.12,12.39-9.08-1.78-36-7.78-7.69-3.46,1.28-22.86-.13-30.58,3.12-64.73,3.87-129.94,1.16-194.61-.59-10.32,1.49-13.42,4.29-13.42,4.08,0,9.67,6.62,10.69,7a68.57,68.57,0,0,0,32.07,4.53c11.52-1.2,22.13-5.53,29.38-13.08s4.46-18.64,8.46-27.17c24.13-37,2.23-39.32,22.73-57.69C847.37,916.28,863.68,914.27,854.44,925.85Zm-6-45.4c-13.5-36.37,20.29-15.69,18.46,5.95.85,11.45-6.38,17.71-15.64,22.09-2.68,1.51-6.21,2.42-6.85-3-1-7.19-7.59-7.18-12.39-4.36-15.27,8.92-30.19,1.82-45-.56-19.13-3-36.82,1.71-54.7,7.2-5.82,1.79-11,6.71-18,4.31-3.55-1.2-6.15-2.77-5.94-6.58.67-17.5,39-23.75,53.05-26.31,22.25-2.59,42.91,4.56,63.78,11,6.79,2.1,14.89,1.64,21.88.3C851.19,889.7,849.09,884,848.43,880.45ZM606,754.37c6.24,3.82,14.33,6.57,14.92,15.9.27,4.36-1,6.9-6,6.72-8.9-.33-12.17-4.61-9.66-13.47C606.12,760.57,605.17,753.83,606,754.37Zm-.78,31c17.33,6.92,24.79,39-2.17,24.18-3.08-1.21-1.48-3.17-.89-5.54C603.72,797.89,604.31,791.56,605.26,785.34Zm55.83-85.45c-.21-7.73-.69-15.16-3.92-22.29-.53-1.17.08-2.86.17-4.31,28.34,13.61,14,80.42-3.53,101.83-4.65,6.48-5.12,7.1-6.7,4.82C626.78,765.51,665.69,767.16,661.09,699.89Zm16.13,143.78c3.42-2.72.81-9.58,5.76-10.39,10.36-1.7,20.48-3.67,30-8.2,3.66,7.55-3.81,11.07-7.2,13.41C697.59,845.19,688.54,850.29,677.22,843.67Zm-25.4-30c-2.23-3.05.35-5,1.72-6.85.5-.68,3.59-.41,4.7.45,8.54,6.57,18.51,12.61,14.18,26.1-.85,2.66-2.7,5.13-9.18,2.15C643.4,834.85,662.41,825.67,651.82,813.7ZM715,733.83c-.26,2.8-.22,5.63-.32,8.45-3.5-3.51-9.26-5.85-9.4-11.31-.11-17.17-6.3-34.42-23.79-40.81l33.49-47C714.47,673.67,717.71,703.39,715,733.83Zm-25.45,88.89c-2.52.28-6.89,5.69-8.21-.82-1-4.89,4-5.69,7.36-7.49,10.9-5.77,18.84-14.7,25.52-25C719.27,810.43,707.42,820.78,689.51,822.72Zm-6.25-119.57c9.43,6.65,15.54,32.09,11.32,42.91-7.06,25.34-13.26,35.27-31.94,53.79-1.92,2.16-5.17.16-5.13-.11.69-4.28-6.4-7.15-2.49-11.58C676.57,765,682.84,733.76,683.26,703.15ZM670.48,807.21c-1.31-1.67-1.54-1.87,2.7-5.61,16.43-14.45,27.45-31.86,29.77-55.34,10.95,15.78,8.41,34.69-3.51,47.58C693.42,799.17,677.2,818.14,670.48,807.21Zm9.16-132.37c-1.25,1.43-2.55,3.53-4.73,1.09-7.78-8.67-11.89-17.63-7.74-30.07,4.5-13.52,6.49-27.85,9.93-41.74,18.64-77.54,36.28-155.11,54.3-232.9C808.13,426.78,731.65,618.06,679.64,674.84Zm-32,122.39c-.41,6.06-3.91,7.25-7.56,7.43-12.34.6-14.92-10-18.37-18.1C627.65,766.5,645.79,784.93,647.6,797.23Zm-.94,24.42c.26,5.55-4.1,7.41-8.6,9.32-5.49-2.57-13.72-1-14.83-8.22-.52-3.41,5.59-11.34,7.59-11C636.81,812.84,646.18,811.43,646.66,821.65Zm-19.61,17.48c.27-1,1-1.56,2.53-1.39,7,.76,17.75-.67,19.46,11-.83,15-16.27,3.59-23.75.8C628.64,847.3,626.34,841.75,627.05,839.13Zm29.61,11.72c.34-2.23.75-3.89,2-4,30,.35,17.34,36.46-5.51,14C655.76,858.53,656.15,854.1,656.66,850.85Zm47,24.59c1.94-.85,1.44,3.93,1.13,5.77-1,5.89-5.36,9.86-10.89,9.45-8.37-1.25-9.61-11-19-14.61C684.49,867.71,694,879.64,703.64,875.44ZM703,864.83c-4.19,1.08-20,3.16-18.39-5,.41-4.47,4.46-5.58,10-5,6.13-.25,12.31-4.3,18.06-6.54C714.46,855.87,710.62,863,703,864.83ZM764.88,866c6.41-5.66,7.19-17.62,18.74-16.75,7.71.59,9.38,9.15,14.25,13.63.55.5-1.56,5.8-2.65,5.88C784.73,869.19,775.12,869.75,764.88,866Zm71.66,9.45c.26,1.65,6.38,6.28.53,7.49-11.27-3-21.1-5.62-30.86-8.43-.86-.25-2.11-2.43-1.82-2.93,6.09-10.57,12.27-21.09,18.67-31.47,1.77-2.88,2.68.87,2.89,1.21C832.4,851.74,834.64,863.63,836.54,875.44Zm-7.43-153.55c1.57,24.76.39,50.06,5.86,74.36,2.43,9.92-9,18.18-13.3,26.76-16.35-50.37-4.43-104.15-12.61-155.9-.1-5.69-7-5-6.13.67,1.12,36.78-2.72,73.44-.27,110.14,1.41,19.61,5.35,38.57,9.41,57.67.91,4.33-5,10.1-7.7,15.17-15.46-18.08-25-4.93-23-27-4.07-51.2-1.71-102.66-2.45-154-1.06-9.48.88-32.52-4.71-38.74a12.13,12.13,0,0,0-5.31,10.1c.34,42.1.14,84.24-1.82,126.27.61,21.61.15,43.69,4.67,64.59,2.78,12.88-7.44,16-10,24.24-6.12,19.37-26.68,15.19-40.14,22.78-2.71,1.53-2.55-.49-2.32-2.34,6.7-37.21,5.53-74.65,6.2-112.21,2.93-43.05,1.11-86.21-2.5-129.17-1-14,9.81-22.75,14.53-34.16,9.27-22.41,17.22-45.18,24.61-68.72,6.4,12.38,12.19,24.71,19,36.47,12.74,22.09,31.19,39.17,49.24,56.83,2.1,2,2.41,6.19,2.08,10.82C827.93,665,828.81,693.31,829.11,721.89ZM899.3,655.6c-53.68-24.25-100.52-65.44-125.75-119-15.16-36.61,6.85-75.23-.9-113.82,50,75.8,94.2,155.26,135.83,235.8C905.41,657.58,902.24,656.86,899.3,655.6Zm-37.12-212c1.77-1.37,3.79,2.36,5.68,4.05,16.29,14.45,30.62,30.74,44.3,47.56,17,19.62,33.24,40.42,49.05,60.67-9.91,4.31-51.65-31.4-62.66-38.33-12.33-8.95-12.06-23.61-17.51-35.4-5.07-11-12-21-16.34-32.29C863.87,447.66,860.33,445,862.18,443.59ZM829.9,425c56.55,53.22,63.2,137.93,77.32,210.14C867.33,556,824.17,480.05,773.74,407.8,793.65,405.66,813.87,413.24,829.9,425Zm34.74-133.89a33.58,33.58,0,0,1,4.49,1.05c-.44,1.64-.44,3.6-1.39,4.87-9.7,13-19.78,25.68-29.25,38.83-3.8,5.28-2.39,7.22,6.51,7.22,46.16-11.69,38.16-23.14,38.71,14.56-29,4.26-54.12,14.85-72.93,38.7-1.65,2-2.8,7.16-6.32,4.37-6.39-5.06-19.2,2.77-21-11.15a359.86,359.86,0,0,0-12.05-56.85c-1.24-4.18-12-9.39-.8-14.27,5.43-2.31,11.11-5.54,16.81-4.88,12.11,2.4,3.18,23,11.52,28.94,12.35,8.11,13.68-5.22,17.91-10.88,9.63-12.89,14.72-28.19,20.38-43.12,1.51-4,3.23.55,5,.65C849.7,289.56,857.17,290.35,864.64,291.09ZM701.34,177.14c-8-3.72-9.27-10.06-8.1-17.36,1.45-13.26,16.36-7.48,25.62-8.72v-2c37.9-1.47,75.48.24,112.14,11.07,13.62,4.38,34.92,9.12,41.81,22.07-15.88,8.44-33.33-2-49.32-4.28-19.64-3.35-39.46-6.71-59.7-4.07C751,175.51,738,175.71,725.11,177,717.17,177.84,709.53,181,701.34,177.14ZM715.06,205c0-.66.17-1.5-.15-2-15-20.7,26.47-15.82,37-18.4,32.88-4.89,65.56,2.78,97.6,9.39,7.4,1.53,1.8,6.61,1.21,9.14-5.32,23-6.38,46.21-5.63,69.61.3,11.67-7.2,1.62-13.82,10.72-.92.71.45,3.18-1,3.18-2.62-.29-3.79-2.82-3.56-5.82,1.7-23.5-1.62-46.84-2.56-70.26,0-1.19-1.76-2.31-2.7-3.45-.88,2.09-4.55,1-4.55,4.36,0,19.93.27,39.88-.32,59.8-.41,13.74-1.35,27.37-.55,41.21.33,5.87-6.22,12.14-9.65,18.23-4.38-12.12-6.25-28.85-21.35-25.44-6.25,1.35-13.71,6-20.27,6.61-17.52,3.55-6.6,13.53-5.13,20.59,3.51,19.64,11.2,38.67,13.15,58.55,0,2.55,6.09,6.3-1.15,7.93-13,4-9-27.58-43.53-39.61-6.88-2.7-.81-4.49-.84-6.2C729.72,303.22,722.41,253.85,715.06,205ZM590.16,392.83c-9.86,9.23-20.23,16.17-26.86,25.71-14.57,21-37.18,22.84-58.63,28.57-21.93,6.43-41.28,14.61-64,20.16C482.54,425.94,530.83,400.31,590.16,392.83Zm-100.71,94c-5.77,0-11.58-1.84-17.3-1.5-11.75.7-21.89-4.94-33-6.91,33.87-11.75,68.37-21.16,101.44-32.87-8.57,12.65-16.23,27.37-25.55,38.94C509.07,491,498.15,486.79,489.45,486.8Zm2,93.84c17.45-94.59,99.15-217.78,205.87-214.88C622.77,431.87,560.32,509.32,491.42,580.64Zm126-66.35c-33.57,27-71.92,51.09-111.77,66.37,12.86-16.56,31.65-29.33,44.39-46.34,24.12-28.15,47.63-56.64,74.66-82.39,17.24-17.59,31.68-38.35,53-51.53-16.46,29-25.3,59.34-34.39,89.76C639.79,501.58,626.18,506.34,617.37,514.29Zm22.16,71.57c7.59-58.3,22-192.26,83.17-216.17-17.48,75.17-37.53,150.33-53.77,226-4.65,20.28-9.26,40.58-14.42,60.74-.21.8-7.37,1.52-8.77,0-3.57-3.93-10.79-6.1-6.65-13.69C639.09,623.76,637.42,604.6,639.53,585.86Zm-28,65.32c54.53,4.31,48.21,85.21,19.27,118.8,4.09-41.73,1.92-82.62-23.46-117.4A18.94,18.94,0,0,1,611.53,651.18Zm-42,1.42c-4.89-6.14-8.74-13.2-16.14-17.23,56.15,5.09,70.51,63,69.55,111,.09,5.13,2,9.37-7,5.33C593.4,744.27,611.33,701.32,569.56,652.6Zm28.31,165.5c9.26-1.29,22.54,8.51,22.61,20.95-1.66,5.86-6.44,9-9.84,1.28C606.11,832,589.8,829.69,597.87,818.1ZM565.43,979.86c2,2.34,1,3.44-.12,5.47-6.51,10.28-16.86,1.15-23.63-2.75C548.64,974,556.18,969,565.43,979.86ZM593.5,999c-7.33-1.36-12.93-5.88-18.06-10.82-1.08-1-.19-4.13-.21-6.27,9.43,1.14,18.26,6.47,25.42,12.51C598.22,995.82,597.31,999.6,593.5,999Zm1.48,28.52c-6.53,7.57-18.64,2.66-25.41-4.84,11.5,2.69,14.3-3.85,21-9.32C592.75,1017.9,596,1022.23,595,1027.54Zm-15.7-17.1c.86,4-4.83,4-7.11,3.67-6.74-.9-16.82-.5-18.43-7.31-2.24-9.47,9.18-9,14.51-9.85C571.46,996.43,578.84,1001.32,579.28,1010.44Zm-39.2,24.86a25.56,25.56,0,0,1-16.91-6.68c4.66-3.72,4.63-11.26,8.9-13.36,10.8,0,21.38-1.09,22.42,10.61C555.21,1034,545.77,1035.22,540.08,1035.3Zm3.64-38.62a4.46,4.46,0,0,1,.47,6.2c-8.12,8.81-19.67-1.62-26.6-6.68C526.39,986.84,535.17,988.39,543.72,996.68Zm-40,5.08c28.65,4.39,17.66,40.46-18.57,7.34C491.33,1006.42,497.78,1001.21,503.69,1001.76Zm-151.93,22.11c13.4-3,24.94,1.08,36.75.9,23.79-.37,46.86-3.58,70-8.32,6.83-1.39,14.88-9.18,22.34,0,7.42,6-49.68,25-55.51,24.55C394.3,1048.27,377.09,1043.61,351.76,1023.87Zm45.55,34.94c-1.3-1.16-3.13-1.73-7.22-3.92,36.13-.37,69.11-9.07,98.39-29.16,4.43-3.19,9.16,3,13.62,4.74,2.93,1.18-1.9,4.38-3.49,5.72C472.35,1061,430.79,1088.2,397.31,1058.81Zm41.12,20.9c32.41-2.67,53.41-22.7,72.85-45.17,2.54-2.94,4.34-1.26,6.2.46,1.23,1.13,4.47,1.26,2.45,4.33C504.38,1064.37,468.62,1099.69,438.43,1079.71Zm62.66,7.22c-4.18,1.4-9.22.21-15.63.21,18.67-11.73,30.94-24.4,40.85-42.08,2.16-6.5,7.79-.41,11.58-1.9C534.37,1063.68,521,1080.25,501.09,1086.93Zm34.38.92c-6.24,4.6-11.82,3.33-19.41,2.79,36.49-23.21,25.47-53.55,39.05-49.17,4.39,1.51,2.39,7.38,1.49,10.4C552.52,1065.45,548,1078.65,535.47,1087.85Zm26-5.89c-1.68.85-4,.38-6.07.52,9.65-18,11.58-28.2,12.77-48.69,4.52,3.49,13.09,1.89,13,11.9C581,1061.78,576.32,1074.44,561.44,1082Zm25.35-7.85a8.54,8.54,0,0,1-2.14.59c5.44-11.24,8.07-15.87,5.57-29-.35-2.14-2.49-6.26,2.9-6.65,8.55-.62,10.5.14,10.57,2C603,1056.59,598.39,1067.33,586.79,1074.11Zm14.49-66.66,9.86-12.34c4,3.42,12.18,5.31,11.1,10.5-1.27,6.11-9.46,2.16-14.77,4.16Zm15.56,54.87c-15.17,5.11,8.11-22.75-13.26-42.92,12.69-1.1,20.75,8.41,21.4,24.09C625.3,1051.19,625.16,1058.56,616.84,1062.32Zm21.35-14.52c-6.34,1.7-3.7-6.17-4.5-8.9-.82-13.2-15-19.19-.58-28.79C635.17,1020.29,650.09,1040.36,638.19,1047.8Zm13.36-12.14c-1.2-13.3-7.41-23.46-12.28-34.12C663,996.91,667.2,1021.72,651.55,1035.66Zm68.52-40c-14.87-4.14-29.61-6.28-45.19-3.39-36.36,5.9-74.88-9.86-107-25.8-44.74-23.18-100.5-84.08-62.41-134.76a36.75,36.75,0,0,1,31.4-12.89c30.41.21,51.89,10.53,69.12,30,9.66,10.88,24.08,12.22,36.2,18,21.38,10.46,41.4,23.8,52.55,45.39a39.53,39.53,0,0,0-5.58.86c-2.07.61-5.34-2-6.16,2-.73,3.49,2,3.66,4.46,4.5,47.35,13.45,98.09,2.57,145.06-7.84-8.75,35.22-69.34,31.68-97.87,31.45-4.18-.06-8.13-5.24-12.69-.17-3.11,3.45-3.19,5.12,1.55,6.18,33,9.2,67.44,4.55,99.08-7.56-3.24,29.36-29.22,40.91-57.85,32.87-15.85-4.07-32.83-3.78-49.3-5.42-1.51-.14-3.27-.14-2.62,2.29.37,1.4-.67,3.25,2,3.85,28.7,6.17,58.24,11,87.43,8.14,13.5.68,2.51,9.81,1.91,11.69C791.78,1024.7,742.38,1000.63,720.07,995.62ZM421.42,1414.53c43.7-85.54,134.29-165.2,236.36-147-35,33-78.77,52.76-120.53,75.53C496.71,1363.65,459.93,1391.29,421.42,1414.53Zm68.58,6.91c-21.24,4-42.35,5.7-67.87,5.45,38.8-23.52,67.9-47,106.41-67.36,21.71-10.67,41.78-25.06,63.11-36-18.4,23.74-39.77,45.27-51.85,72.48C528.18,1417.59,509.54,1417.8,490,1421.44Zm23.71,54.19c29.68-80,79.22-154.51,153.42-199.22,19.33-11.75,40.27-15,61.3-18.76,7.28-1.31,15.29,2.85,21.78,7.61.3.22-.07,2.13-.66,2.68-84.92,77.93-171.33,153.44-246.64,241.13C503.75,1496.64,510.17,1486.59,513.71,1475.63Zm145-39.19c-34.41,21.63-69.61,41.58-105,61.6-11,6.7-24,11.38-36.45,16.29-1.18.46-2.72,0-4.09-.07,55.55-75.53,135.16-130.78,197.57-200.7l1.91,1.88c-13.64,30.53-25.88,62-31.34,95.09C679,1424.89,668.94,1430.21,658.73,1436.44Zm28.58,121.77c-5.6-105.07-2.61-250.43,104-304.52C745.36,1353,709.5,1450,687.31,1558.21Zm120-174.54c-9.89,33.76-27.77,63.65-46,93.47-23.27,37.62-41.57,69.55-70.57,105.07,24.55-115,61.32-221.4,108.16-324.06C834,1278.67,820.76,1352.06,807.33,1383.67Zm91.07,170.39c-38.52-43.42-63.11-96.2-84.56-149.3-4.09-7.07,1.8-14.53,4.1-20.72,6.84-18.46,9.72-37.39,12.37-57.66,36.73,90.34,67.56,182.27,108.45,270.27C924.09,1583.33,911.06,1569,898.4,1554.06Zm3.65-182.53c27.5,49.4,36.65,107.38,41.43,163,2.1,18,5.48,37,2.83,55.75-31.68-73.44-58.4-145.31-88.6-218.66-6.35-15.92-12.51-31.86-20.32-47.15-1.81-3.53-3.7-7-5.7-10.47-3.22-6.47-2.81-16.74-2.06-24.61C864.11,1306,884.51,1339.66,902.05,1371.53Zm-81.28,160.25c-1.26,18.07-3,36.1-4.52,54.15l.81.06c-1,4.78,2.92,18.93-3.42,19.48-4.51.45-5.78-2.72-6.18-5.47C806.11,1594.88,810,1498,820.77,1531.78ZM377,208c.57,8.75,10.86,25.47,20.32,16.61,8.63-9.63,18.16-7.66,26.91-1.27,8.34,6.1,6.69,15,2.46,22.75-12.21,28.67-34.64-12.3-37,15.18-1,13.47,16.47,19.54,22.75,29.15,2.74,4.53,4.41,10.1,7.59,14.61,11.47,16.27,32.39,17.85,47.14,29.44,3.45,2.71,16.21,5.09,17.54-7.21-6.46-16.75,7.15-34.66,24.65-25.2,16.23,5.68,16.85,33.75-2.34,35.24-1.42.06-3.14,3.07-4,5s1.23,2.09,2.72,2.93c22.12,12.45,41.9-3,62.6-5.62,16.12-2.08,27.52-17.53,44.82-19,9.69-1.3,14.2-17,2.85-21.57-25.47-8.22-10.4-44.65,13.21-35.22,7.44,2.88,10.74,9.48,7.57,17.77-.82,2.15-3.67,4.47-.53,6.22,2.2,1.22,6.17,2,7.88.86,4.69-3.19,10.7-6.75,12.44-11.53,6.61-18.14,15.51-36.69,16.16-55.35-.84-16.76,12.6-40.56-3.57-52.37-11.32-3.73-20.29,14.34-33.41,7.57-6.62-2.56-10-7.92-10.59-14.39-.89-9.07,5.27-14.51,12.33-18.46,5-2.77,10-2.6,14.14,2.57,4.21,4.69,10.62,3.3,9.29-4.19-.38-8.75-5.61-15.45-9.59-22.79-3.83-7-13.62-7.94-15.89-15.43-2-6.69-6.07-11.09-11-15.28-8.07-6.85-18.64-9.47-26.08-18.38-4.72-5.66-14.9-11-24.14-5.68-6.1,3.48,1,8,.62,12.19-.51,28.38-43.56,31-43.56,2.71.2-5.3,1.77-11.17,8.55-13.13,4.07-2.08,12.43-7.66,6.05-12.11-18.84-13.79-37.08,1.35-55.67,1.52-9.76.09-16.46,9.2-24.45,11.79C454,71.78,445.88,78.54,438.29,87c-15.7,14,26.43,10.6,16.52,37-3.78,12.19-21.94,22-29.86,7.89-2.9-4.81-8.28-8.7-4.21-15.85,1.67-2.93-2.6-6.09-4.65-6.47-13.31-.73-20.44,19.15-24.16,30.17-3.63,13.94-14.95,26-11.07,41.94C383.16,191.2,375.42,198.85,377,208Zm8.45-5c11.28-16.79-5.19-37,12.93-52,7.76-9.51-3.56-15.37,11.68-27.63,15.69,51.32,79.17,6.63,45-25.56-3.19-2.84-9.7-5.17-7.37-9.84,7-12.94,18.56-7.91,24.81-13.21,6.57-10.52,16.76-10.93,27.06-9.45,8.52,1.22,12.5-8.7,21-7.09,3.83.72,8-.42,13.26-.81-9.88,12.88-16.2,26-5.41,39.54,22.68,29.41,54.25,8.79,54.94-27.18,10.44,4.47,11.76,6,17.78,17.84,1.75,3.44,5.78.17,8,1.75,8,5.59,17.87,9,18.72,21.82,4.69,9,15.33,5.3,21,21.57-19.75,5.24-33.24,10-31.7,33.08,2.27,27.15,32.4,26.13,49.28,12,2.3-1.28,2.42.58,2.55,2.13.75,8.87-.39,16.6-7.39,23.62-4.71,4.72,4.74,8.54,3.85,14.75-1,7.43.27,15.89-5.53,21.2C649.56,251.72,661.66,256,647.57,274c-8.29-12.91-18.57-25-33.27-18.22-21.66,9.38-20.72,21.92-17.86,36.23,2.15,10.54,11.43,13.07,19.6,16.83-20.1,17.76-25.19-1.07-29.89,10-6.39,11.63-16.88,14.82-28.62,11.83-7.76-2-8.19,6.8-14,7a40,40,0,0,1-22.5,2.7c13.28-9.22,13.12-29.63.53-41.61-19.31-18-49.2-5.84-47.95,20.36.19,3.22,1.51,8.66.35,9.25-3.74,1.91-7.6-1-11.19-2.71a4.4,4.4,0,0,1-2.26-2.53c-5.22-19.83-30.25-.43-37.15-32.89-2.53-20.3-14.17-2.69-23.42-24.81,18.77,2.67,31-.11,36.73-18.43,11.13-28.78-17.94-47-41.28-34.09-3,.82-4.56,7-7.17,4.22C384.87,213.64,382.63,206.65,385.42,203ZM536.49,843.61c-39.76-10.67-48.06,46.76,7.89,53.61,26.41,1.6,33.73-21.17,18.72-39.12C556.42,849.36,546.32,846.47,536.49,843.61Zm9,43.28c-3.8,2.39-28.29-6.19-13.71-8.06,6.63-4.07,4.14-12,7.27-17.55,1.32-2.36-4.05-5.38-.6-5.76,9.89-1.13,17.32,6.22,20.36,15.24C564.55,883.62,558.48,887.78,545.53,886.89ZM311.32,414.7c-5.09,0-10.67,3.66-15.37-.4-11.32-9.79-25.12-13.53-39.16-16.94-11.25-2.48-23.18,5-10.11,14.34a163.94,163.94,0,0,1,49.46,110.75c-.33,9.75-.6,20.11-.33,29.59.44,15.3-6.88,28.25-7.11,43.47-23.37-15.91-61.83-19.29-86-2.53-5.42,3.86-7,13.48-16.07,11.83-7.55-.39-37.1-10.61-40.23-4.77-2.18,2.88-3.75,7.34-.86,10.9,6.62,8.19,13.33,16.32,20.49,24,7,7.54,17.48,13.23,20.07,23.1,4,15.33,10.25,29.17,20.22,41,11.37,13.43,23.37,26.48,38.24,36.37,2.35,1.56,2.43,2.49.94,3.71-55,38.32-125.67,53.41-191.86,46.23-6.92-1.05-16.92-.23-14,9.37,4.7,6,10.33,11.35,15.85,16.69,9.06,8.75,23.63,9.65,30.56,21.66a33.47,33.47,0,0,0,23.72,16.67c9.87,1.56,16.88,6.35,24.22,12.19,16.53,11.44,37.7-1,55.82,6.48,5.55,2,10.58-3.21,16.27-.36,10.4,5.23,21.1,8.85,32.1,1.24,3.41-2.36,7.42-7.2,10.14-6.56,8.4,2,15.8,1.58,22.54-3.72,8.78-6.89,22.62-.22,29.81-11.52,2.26-3.56,5.52-4.86,10.66-3.65,7.1,1.67,34.71-16.09,37.71-22.79.92-2,1.77-5.22,3.34-5.72,20.77-6.14,21.74-27.32,14.38-43.2,8.46,4,15.77-2.22,24-2.26,33.61,4.64,92.6,38.47,118.92,9.06,7-7.14,5.91-17.2,8.46-26,3.53-12.22,14.72-21.34,13.77-36-.22-3.45-4-8.38,0-11.9,6.43-6.83,17.33-23.16,10-31.86-4.27-4.88-8.28.54-12.4,1s-8,3.44-11.58,4.19c-35.3,6.38-71.31,10.9-107.24,9.55-8.6-.24-7.81-9.21-11.43-14-3.53-4.54,13.42-3.16,16.07-20.34,1.14-4.86-2.09-10.24,3.12-14.89,7.17-6.39,7.38-15,4.11-23.83-8.29-4.71,1.15-.71,2.6-16.15,1.47-7-3.71-13.45-.12-20.64,4.31-8.63,1.59-17.54-3.53-24.69-2.71-3.79-3.24-7.2-2.07-10.41,8.11-21-13.45-29.28-15-47.43-1.77-32.63-25.86-26.51-27.19-39.88-.53-7.36-5.56-11.48-9-16.7-7.44-11.18-22.84-8.08-31.87-17.62C330.17,414.61,320.49,414.63,311.32,414.7ZM186.64,614.9c-3.85,6.68-1.87,14.39-4.51,22.09l-24.3-27.91C162.47,610.49,190.11,608.79,186.64,614.9Zm83.2-190c-4.94-6.26-9-13.37-17.21-16.95,55,1.45,71.77,63.1,70.32,110-.14,4.62,2.81,10.33-7.08,5.68C293.57,515.86,311.09,473.43,269.84,424.87Zm59.73,184.88c7,.81,17.86-.86,19.45,11,.57,5.06-3.7,8.25-6.42,7.73-6-1.17-11.56-4.5-17.31-7C329.9,618.48,323.84,609.08,329.57,609.75Zm-6.33-15c-.53-3.41,5.58-11.35,7.57-11,6,1.06,15.33-.34,15.86,9.88.3,5.66-4.33,7.19-8.28,9.47C332.57,600.4,324.35,601.94,323.24,594.76Zm17.66-18c-12.43,1-15.54-9.45-19.23-17.77-.72-1.63,6.56-9.8,9-9.3C341.47,550.74,356.08,574.41,340.9,576.72Zm-34.46-50.79c5.83,4.6,13.74,7.37,14.61,16.32.26,4.2-1,7.46-5.65,6.55-4.24-.82-11.07.93-10.27-7.13C305.65,536.42,303.35,530.94,306.44,525.93Zm-1.21,31.48c17.49,6.76,24.73,39.06-2.17,24.09-3.14-1.27-1.39-3.22-.82-5.56C303.72,569.85,304.3,563.54,305.23,557.41Zm-7.58,32.94c3-3.64,9.45,1.76,13,3.85,8.44,4.54,13.92,16.11,5.14,24.67-4.55-5-7.82-10.41-12.58-13.46C296.78,601.34,293,596,297.65,590.35ZM265.54,752c1.79,2.07.87,3.1,0,5.07-6.48,10.86-16.83,1.72-23.74-2.43C248.72,745.29,256.48,741.57,265.54,752Zm28,18.86c-8.74-2.88-18.14-5.35-18.89-18.39,9.56,5.13,18.75,7,26,14C298.19,767.92,297.06,772,293.52,770.85Zm1.6,28.52c-4,8.35-20.08,2.12-25.7-4.62,9.47,2,15.13-2,19.47-8.6a2.51,2.51,0,0,1,1.73-.49C292.81,790,295.85,794.16,295.12,799.37Zm-16-19.14c1,6.24-4.67,6.23-7,5.88-6.73-1-16.8-.38-18.44-7.49-2.15-9.33,9.19-9,14.36-9.68C271.7,768.44,278.49,773.49,279.1,780.23Zm-39,27.06a25.2,25.2,0,0,1-16.89-6.7c4.7-3.68,4.6-11.28,8.87-13.32,10.87,0,21.43-1.08,22.45,10.62C255.19,806,245.75,807.24,240.06,807.29Zm3.74-38.51c1.95,1.9,1.74,4.27.3,6.18-8.14,8.64-19.66-1.72-26.45-6.74C226.53,758.61,235.32,760.51,243.8,768.78Zm-40.42,4.94c28.81,4,18.66,40.87-18.25,7.21C191.23,778.31,197.53,773.24,203.38,773.72ZM51.6,795.85c13.65-2.82,25.18,1.17,37,1,23.79-.43,46.89-3.56,70.07-8.4,6.8-1.43,14.92-9.1,22.3.18,7,5.86-50.29,25-56.22,24.55C93.61,820.19,77,815.41,51.6,795.85Zm45.17,34.66c-1.17-1-2.81-1.58-6.6-3.64,36.06-.35,69.13-9.2,98.41-29.2,4.31-3,9.2,3,13.59,4.87,2.75,1.2-2,4.36-3.64,5.74C172.18,833.45,130.32,860.2,96.77,830.51Zm41.75,21.2c32.35-2.75,53.39-22.73,72.81-45.24,2.56-3,4.45-1.1,6.22.57,1.16,1.11,4.47,1.14,2.34,4.38C204.56,836.66,167.44,871.26,138.52,851.71Zm46.73,6.35c23.72-8.53,30.52-34.93,53.71-46.9C232.52,839.92,214.77,864.61,185.25,858.06Zm49.82,2.21c-5.94,4.38-11.6,3.05-18.7,2.29,35.52-22.9,25.48-54,38.86-49.22C264.38,819,244.17,856.46,235.07,860.27Zm26.82-6.61c-4.88,2.47-10.08.6-4.59-4.12,7.16-10.56,9.52-22.42,9.73-34.86.16-9.41.67-10,1.33-9.29,3.9,4.21,13.72,2.2,12.32,13.38C282.31,833.36,276.66,846,261.89,853.66Zm41.75-39.86c-.76,15.06-5.78,28-19,32.89.08-.69-.09-1.59.29-2,13.21-13.64-.93-35.41,8.21-33.44C296.9,811.76,305.88,801.52,303.64,813.8Zm-2.35-34.38q4.93-6.17,9.88-12.31c3.94,3.31,11.87,5.3,11,10.07-1.21,7-9.54,2.25-14.62,4.65ZM317,834.12c-1.54.68-3.46.47-5.21.66-.1-16.28,6.08-28.92-8-43.13,12.51-2.06,20.45,7,21.17,23.57C325.27,822.79,325.57,830.38,317,834.12ZM338.47,820c-3.45,4.86-4.91-7-5.24-9.06a18.48,18.48,0,0,0-4.31-13.8c-6-6.89-.43-10.61,4-15.64,3.22,8.68,6.55,17.16,9.5,25.76C344.09,812.26,340.86,816.23,338.47,820Zm13.06-13.49c-1-12.1-7.92-22.08-11.59-33.35C362.13,768.75,368.25,794.77,351.53,806.55Zm101-110.25a393.91,393.91,0,0,0,80-12.72c-9.85,35.56-69.58,31.65-98.9,31.35-3.51-.1-6.9-4.07-10.22-1.34-2.26,1.86-8.19,5.63.52,7.49,32.87,9.41,67.05,4.14,98.6-7.59-3.17,29.35-29.15,40.94-57.83,32.89-15.86-4.07-32.83-3.78-49.31-5.42-1.51-.15-3.27-.14-2.62,2.29.37,1.4-.67,3.25,2,3.85,17.68,4,35.62,6.22,53.53,8.84,10.23,3.59,54.15-9.67,35.81,11-2.76,8-9.62,13.21-18.5,13.93-33.24,2.73-62-17.53-94.74-18-70,12.61-168.86-30.49-193.63-100.51-12.58-26.51,1.61-69.13,33-71.54,32.68-1.25,58,9.41,75.41,29.6,9.89,11.11,24.66,12.44,37,18.47,21.18,10.51,41,23.71,52,45.3a46.2,46.2,0,0,0-6.14.78c-1.92.48-5-1.86-5.59,2C387.36,699.3,440,697.92,452.57,696.3Zm-80.71-89.85c-1.05,1.72-2.05,3.44-6.74,2.11-3.31-2-15.22,1.91-10.05-11.46,2.35-6.07-5.68-10.05-3.14-16.11C357.62,570.08,380,597.17,371.86,606.45ZM376.6,630c.1,8.95-6.78,10.45-11.43,10.33-4.08-.1-8-4.91-12.06-7.64,4.81-3.63,2.08-13.39,5.74-13.68C366.64,618.35,374.09,622.34,376.6,630Zm27.62,25.15c-10.88,18.59-17.16.54-28.82-7.58,9.17-7.59,18.68,3.72,28.37,0C405.25,647,405.66,653.06,404.22,655.1Zm5.26-22c-4.11,3.66-9.07,4.75-15.36,4.55-2.19-2.6-10.74,4.06-9.24-6.5.48-3.37,1.6-4.31,4.52-4.06,9.44,1.76,14.85-5.49,23.33-6.46C413.37,625.25,413.29,629.71,409.48,633.11Zm-3.66-22.63c-8.22,6.73-17.27,11.78-28.6,5.2,3.41-2.72.81-9.59,5.76-10.4,10.36-1.7,20.48-3.68,30-8.2C416.66,604.62,409.21,608.15,405.82,610.48Zm8.41-49.16c4.41,19.47-5,32.08-25.19,33.49-2.52.17-6.54,5.34-7.75-.9-.9-4.61,3.6-5.52,6.94-7.25C399.35,580.9,407.46,571.85,414.23,561.32Zm-14.9,4.62c-5.9,5.38-22.43,24.29-28.95,13.19-1.21-1.5-1.38-1.71,2.57-5.24,16.35-14.63,27.88-31.92,29.91-56.1C413.9,535,411.4,552.76,399.33,565.94Zm-16.52-91.15c9.92,7.13,15.95,32.54,11.76,43.3-7,25.16-13.35,35.46-32,53.79-1.94,2.15-5.17.08-5.13-.17.73-4.27-6.39-7.12-2.46-11.57C376.28,536.87,384.71,506.16,382.81,474.79Zm-11.93-10.47c7.19,30.67-2.2,61.56-18.94,87.3a2.88,2.88,0,0,1-5.27-.17c-1.64-3.28-9.19-4.82-5.81-8.71C365,513.08,366.69,472.91,353,438.22,363.52,444.81,368.24,454,370.88,464.32Zm-21.69-11.21c5.72,28.2,4.73,58.81-18.52,89.29,4-41.21,2.58-83.35-23.43-117.39C323.33,417.38,344.79,437.26,349.19,453.11ZM416,1360.28c-1.61-2.52-4.39-1-6.83-.38-13.26,3.22-26.09,1.14-35.85-8.09-10.45-9.86-8.52-22.93-3.93-35.17,10.94-28.28,44.91-16.37,56,5.61,1.19,2,4.59,4.72,7.45.2,6.24-9.88,4.84-20.9,5.27-31.7-2-23.09-14.34-19.93-7.29-48-3.63-13-4.19-27.78-18.22-35.55a3.52,3.52,0,0,1-1.47-2.65c1.61-22-15.06-35.66-34.63-41.28-1.86,4.58-4.42,9-5.45,13.77-9.42,31.88-52.56,28.47-58.8-3.73-6.19-20.78,10.65-41.89,32.14-32.52,2.42.91,5.8,0,8.41-.94.57-.21.64-5.38-.57-6.3-8.47-6.48-17.13-12.77-26.14-18.47-10-6.3-24.09-4.2-32.45-11.13-16.2-14.71-33.37-10.93-52.15-11.32-16.11-7.37-32.1-7-47.71.85-3.18,1.61-7.65,4.1-6.78,9.33.24,1.44,1,3.6,2.1,4,15.28,5.44,18.2,19,19.15,32.11,1,13.33-21.11,29-34.79,26-21.06-4.74-37.6-26-22.85-48.23,21.72-33.79-42.34-3.45-45.59,12.59-2.22,4-3,9.73-9.66,9.82-10.55.14-27.36,18.64-31.11,28.32-2.52,6.49,0,15.59-8.32,19.9-22.44,8.13-29.91,57.37-12.69,49.16,9.64-4.81,20.3-7.6,31.06-2.15,16.6,8.41,21.36,23.11,11.14,41.53-12.61,22.58-54.36,24.48-54.42-6.44,0-3.32-3.59-4.07-5.92-5.27s-1.75,1.54-2.48,2.55c-9.88,13.7-4.59,28.41-2.69,42.81,1,7.68,10.45,13.08,8.61,20.77-3.21,13.38,1.31,24.41,5.89,36.26,2.92,7.57,13.59,8.16,12.91,19.37-1.13,18.44,7.5,32.93,25.1,40.78,2.36,1.06,5.25,1.4,7.14-1.41a3.34,3.34,0,0,0,.75-2c-1.91-11.47,4.91-21,12.46-25.4,27.33-16.11,66.58,22.5,39.81,46.16-6.72,6.36-16,9.53-25.68,6.25-2.68-.9-5-2.26-7.1.35-7.07,7.88,26,25.06,32.33,26.73,9.19,2.91,19.91,3.2,27.56,8.26,16.95,12.33,36.57,17.68,56.62,12.07,12,10.3,25.31,9.15,39.06,5.41,6.9-1.87,9.43-8.4,13.38-13.34.22-.28-2.15-2.71-3.39-4.08-19.74-17-14.57-52.86,15.74-50.64,28.59,0,33.5,22.86,17.5,43.39-3,5.52-.08,7.6,3.73,6.49,13.83-4,28.37-6.73,39.1-17.82,5.33-5.52,10.22-13,16.84-15.4,11.69-4.26,19.43-11.85,26.93-20.94,6.17-7.49,4.72-20.45,10.7-24.35C409.48,1398,423.84,1374.25,416,1360.28Zm-16.46,32.54c-7.75,5.19-16.16,8.48-15.1,21.09.82,9.84-19.56,28.54-29.92,28.79-8.1.2-7.58,7.59-11.23,11.29-3,3.89-35.94,28.27-28.22,10.85,15-52.08-74.13-53.33-71.39-2.59-.44,9,1.75,21.14,12.58,27,11.73,7.64-24.91,15.27-36.26-.76-2.25-2.54-5.22-2.23-7.63-.52-10.41,7.39-22.64,5.67-31-.06-20.31-14.83-44.69-12.6-64.16-28.23,29.94-4,43-35.37,25.79-59.06-8.1-11.15-34.12-17.43-46.95-14.21-17.49,3.91-19.81,18.19-27.35,30.52-10.68-8.34-15.1-22.71-13.66-36.13.65-4.88-.71-7.86-5.59-10.41-11.65-6.09-18.81-31.87-11.19-43.41,1.26-1.9,2.16-4.25-1.94-6.41-9.91-7-9.54-21.89-11.06-33.21,21.23,23.79,58.51,13.91,71.46-12.62,14.66-29-17.8-63.38-47.37-50.26-5.14,2.11-6.37.67-6.58-5.17-.56-14.88,8.62-22.46,20.46-25.65,8.94-2.41,4.85-8.18,5.51-12.08,3.48-20.38,15.4-32.1,35.12-36.4,7.82-1.71,6.18-9.59,9.73-14.11,7.54-9.61,16.72-16.29,29.73-19.24-3.36,9.61-8.79,18.09-6.54,28.37,11.09,41.49,66.83,44.35,78.46,4.5,4.84-14.26-.08-25.61-8.27-36.52-2.23-3-7.52-5.72-5.8-8.9,11-8.46,29.93-3.08,41.62,2.81a5.18,5.18,0,0,0,4.95.33c15.8-6.28,34.65-1.09,43.8,12.7,4.55,6.86,10,1,14.93,1.63,9.24,1.29,16.16,6.65,23.72,10.84,2,1.09-1.22,2.56-2.35,3-21.78,8.44-28,20.28-25.19,42.54,8.22,44,64.17,49.83,76.68,9.52,3.81-9.91,8.49-8.64,14-2.62,7.18,7.9,13.29,16.45,7.84,28.12-1.49,10.48,14.25-3.65,19.41,27.67,2.37,7.8,1.21,16-2.55,24.26-1.5,3.32,4.89,10,7.36,15.37,4.69,10.15,5.06,20.85,3.56,31.75-.47,3.41-1.44,1.9-2.93.62-24.29-25.79-62-21.27-69.24,16-3.21,32,14.21,44.82,44.49,47.35,2.93.24,8.31,2.09,8.24,2.7C408.66,1381.33,406.12,1388.44,399.58,1392.82ZM28.87,65c17.94,83.9,74.07,202.28,153.58,242.41,30,13.38-1.31-121.26-6.19-134.74,27,20.94,64.54,42.08,97.83,47.56,12.58.89.9-17.38.93-23.49-4.64-26.22-16.29-50.55-25.28-75.44,31.81,19.14,64.13,39.09,101.63,45.41,21.3-2.1-29.05-81.89-36.65-90.53C283.84,37.08,248.83,9.57,199.4,0c-11.22-1.55-28.12-10.2-37.62-2-7.63,10.45,26.06,40.31,32.16,51.09,36.22,43.73,58,94.56,73.55,149.45C209.66,133,158.77,60.41,94.91,1.05,91,2.19,90.87,4.87,93.38,7c28.75,48.89,53.36,99.87,69.12,154.51,12.6,43.45,23.79,84.69,22.17,130.91-20.59-51.95-46.58-99.46-67.35-151.15q-17.13-39.5-34.14-79.06c-9.24-18.68-14-40.11-27.05-56.52-2,2.21-4.16,4.56-3.08,7.75,4.24,12.53,10.29,24.3,14.6,36.89,33.61,81.62,70.61,162.09,106.85,242.54C104,239.54,60.91,154.89,39,70.55c-4.14-17.69-8.2-41.86-11.92-59.66C26.69,8.94,26,5,23.2,5c-4.73.3-4.2,5.43-3.47,8.83C22.19,28.85,26.55,49.93,28.87,65ZM186.39,5c45.35,2.85,149.05,78.14,153.9,139.6C289.45,93.91,238.73,44.74,179.55,5.74A30.34,30.34,0,0,1,186.39,5Zm36.66,68.91A680.14,680.14,0,0,0,180.39,20C240.45,58.5,287.9,108.36,339.54,155.11c-29.59-9.61-55-25-81.39-38.78C239,106.33,233.69,88.85,223.05,73.92ZM128.51,52.87c-2.16-3.59-3.82-7.48-7.83-15.43L263,208.93c-32.26-12.15-56.17-24.68-83.58-43.23-8.62-6.09-9.48-14.41-12.15-22.24C156.67,112.25,145.59,81.3,128.51,52.87ZM236.34,615.56c-39.26-10.48-47.79,46.23,6.9,53.44,26.34,2.86,35.45-20.21,20.05-38.63C256.61,621.33,246.33,618.37,236.34,615.56Zm9.45,43.33c-5.5.9-14.81-1.15-18.37-5.45-.61-3.42,3.12-1.64,4.67-2.69,6.2-4.17,3.83-11.86,7-17.25,1.43-2.41-4.25-5.56-.32-6,10-1.12,17.15,6.47,20.1,15.55C264.06,653.93,259.72,660.06,245.79,658.89Z"/></g></g><g id="Red_Japanese_Frames" data-name="Red Japanese Frames"><path class="cls-7" d="M0,20V1580a20,20,0,0,0,20,20H956a20,20,0,0,0,20-20V20A20,20,0,0,0,956,0H20A20,20,0,0,0,0,20ZM924,1548H52V52H924Z"/><path class="cls-8" d="M952.1,15.41,928.69,38.83A4,4,0,0,1,925.86,40H50.14a4,4,0,0,1-2.83-1.17L23.9,15.41A2,2,0,0,1,25.31,12H950.69A2,2,0,0,1,952.1,15.41ZM40,1549.86V50.14a4,4,0,0,0-1.17-2.83L15.41,23.9A2,2,0,0,0,12,25.31V1574.69a2,2,0,0,0,3.41,1.41l23.42-23.41A4,4,0,0,0,40,1549.86ZM936,50.14V1549.86a4,4,0,0,0,1.17,2.83l23.42,23.41a2,2,0,0,0,3.41-1.41V25.31a2,2,0,0,0-3.41-1.41L937.17,47.31A4,4,0,0,0,936,50.14ZM925.86,1560H50.14a4,4,0,0,0-2.83,1.17l-20,20a4,4,0,0,0,2.83,6.83H950.69a2,2,0,0,0,1.41-3.41l-23.41-23.42A4,4,0,0,0,925.86,1560Z"/></g></svg>