<svg xmlns="http://www.w3.org/2000/svg" xmlns:xlink="http://www.w3.org/1999/xlink" viewBox="0 0 976 1600"><defs><style>.cls-1{fill:none;}.cls-2{fill:#f4f3ef;}.cls-3{clip-path:url(#clip-path);}.cls-4{fill:#6060bf;}.cls-5{fill:#ffb85a;}.cls-6{fill:#592116;}.cls-7{fill:#992d17;}</style><clipPath id="clip-path"><path class="cls-1" d="M960,22V1578a6,6,0,0,1-6,6H22a6,6,0,0,1-6-6V22a6,6,0,0,1,6-6H954A6,6,0,0,1,960,22Z"/></clipPath></defs><g id="Paper_Backing" data-name="Paper Backing"><path class="cls-2" d="M960,22V1578a6,6,0,0,1-6,6H22a6,6,0,0,1-6-6V22a6,6,0,0,1,6-6H954A6,6,0,0,1,960,22Z"/></g><g id="Wikipedia_Cropped" data-name="Wikipedia Cropped"><g class="cls-3"><path class="cls-4" d="M627.07,1604c-35.35,11.6-82.59-72.13-86.84-41.69,15.81,61.85,9.54,36.15-45.43,41.69-33.56-26.76-53.48-66-81.68-98-22.64-14.48-7.33,88.89-26.27,98-60.72.62-144.48-.69-206.25,0-7.69,2.78.18-21.63-13.54-12.61-9.51,8.5-19,17.79-33.81,10.43-4.06,1.24-8.59,4-12.44.84,10-65.24,28.07-133.39,72.09-185.84-6.12-32.77.65-69.77,1.44-104.9,1.43-94.61,3.86-197.5-18.07-287-12.17-4.58-15.58-16.32-5.29-24.7,1.08-19,9.64-38.41,11.74-59.61,10.75-85.22,6.41-170.9,4.33-256.31,4.13-22-84,17.52-108.12-1.21C95.11,626.39,148.77,588,195.3,545.76c4-26.55-51.53-38.61-70.88-38.85-12.21,1.37-12.21-8.3-10.87-20.29-3.92-49.59,55.21,10.52,58-14.31,1.68-14.87-21.37-38.32-7-46.55,31.82-13.26,24.68-8.46,25.46-38.59,0-285.37,10.26-168.72-168.9-61-38.73-9.26,61.13-143.63,58-165.84-17.19-6.63-53.47,35.55-65.34,15.3C6.26,137.63,30.91,92.24,53,59,63.56,40.76,98.4,23.1,105.15,2.1,100.39-14.77,313.76,1.45,317.89-4c3.74.36,4.33,3.65,4,6.84,10.6,15.43,43.63,23.58,55.66,36.78C436.44,87.48,494.38,162.75,505.6,235.74c-15.07,29.65-83.12-6.59-105.77-21-20.43-5.57.61,45.46-3.28,52,.28,23.51,4.38,50.34-6.21,68.47-8,1.59-.36,11.89-7.5,13.35-8.42,3-20.58-13-24.06.39-7.27,35-6.85,73.13-6.25,109.05.69,17.87-4.57,29.61,17.87,31.61,14.24,2.7,19.56,25.85,28.8,23.44,35.64-18.91,50.27,9.93,67.42-19.55-8.46-24.7-23.74-46-44.33-66.71-12.2-9.16,8.49-23.2,15.64-23.45,17.29,1.59,38.93,67.2,41.54,11.6-2.42-29.79,10.76-33.86,36.41-24.05,2,16.42-12.07,37.35-5.14,52.71,20.2,6.51,46.38-43.24,52.13-3.19,15.74,24.84-31.56,28.18-39.1,43.91,16.32,26.49,54.73,4.68,79.86,17.31C632,485.23,674.49,481,710.93,488c22.24-7.07-32.62-47.47-30.82-59.23,1-5.49,8.54-6.69,14.17-8.18,11.24-8.45,22.12-6.58,28.34,6.67,52.6,79,19-54.07,71.51-5.53,24.64,26.73-61.22,58,35.12,45.21,10.7-.1,8.68,9.39,6.31,17.11-3,9.1-3.2,24.48-16.61,23-7.63-2-41.56-6.11-28.71,9.95,23.3,10.28,147.62,109.09,71.21,109.72-16.85,6-135.39-39.09-95.3,5,16.15,25.13,67.06,94,46.34,116.14C642,716.43,653.78,628.94,695.63,830.15c1.37,5.83,4.11,15.62-1.41,21.06-4.82,4-2.8,15-12.76,11.13-54.66-25.86-107.92-62.65-149.07-107.7C518,743.88,508.44,722.74,495,716.15c-20.52,25.17-39.87,61-51.1,84.72-33.69,62.12-54,133-77.23,198.08-15.28,8.37,3.46,15.35,9.91,20.55,13.43,10.77-7.06,19.61-12.16,26.58-11.87,69.21-16.08,143.38-13.12,214.56.06,25.19,5.29,50.16,7.38,74.84.91,5.6-6.33,9.71-1,14.57,6.32,4.69,10.52,17,19.82,10.5,45.54-4.81,72.6,26.28,101.62,48.74C533.13,1396.43,662.63,1562.15,627.07,1604ZM410.31,679.78c-7.73,8.14-74.78,53-64.89,58.54,5.47,52-.72,108.1,12.41,159.51C382.23,931.79,437.87,686.57,410.31,679.78Zm45.63-30.36a6,6,0,0,0-6,6.67c5.83,15.57-8,43.17,6,52,9.66-4,13.71-16.18,21.21-22.79C472.75,673,465.69,655.25,455.94,649.42Z"/><path class="cls-5" d="M903.55,1604c-28-34.08,30.72-75.85,51-27.5C975.27,1620.3,925.61,1599.5,903.55,1604Zm-179.24,0c-20.25-48.64,54.9-59.54,64.63-10.63C796.53,1613.88,731,1600.31,724.31,1604Zm-83.38,0c-17.69-91.58-80.8-177.45-173.61-209.4-23.95-16.73-62.53-51.14-92.05-31-28.7-8.09-19.74-137.88-22.27-168.93,2.1-46.09.93-92.79,11.7-138.15,2.5-15.1,23.76-23,14-37.83-28.89-7.85,43.86-164.31,54-188.38,103.47-215.78,29.22-52.94,261.55,36.78,17.83-10.68-17.76-120.82-22.14-143.69-20.8-45,66.87,12.54,81.49,10.36,21.27,3.29,63.15,24.82,67.87,6C799.36,634.2,693.78,592.78,821,623.35c143.54,31.93,24.93-75.74-28.45-107-9.41-6.05,3-11.81,9.2-9.78,31.18,2.16,30.78-1.09,35.87-31.38-7.08-19.68-37,.29-51-8,5.51-33.07,32.25-37.65-14.62-59.35-16.26,3.12-10.67,48-27,44.34-23-26.41-32.36-56.11-64.87-21.3,7.76,19.07,32.73,32.83,36.83,53.28-2.11,2.91-8.17,3.7-11.35,2-30.63-6.89-57.93-3.67-90.71,6.33-14.53,9.85-31.14,4.32-47.31,3-9.46,4.22-47,1.44-42.65-12.48,22.76-17.62,57.67-19.18,32.72-54.56-20.74-14.1-62.91,54.27-43.64-13.58-.3-7.72,6.83-19.91-.28-24-6.06-4.14-27.67-8.87-31.61,1.16-4.19,12.3-.23,38.24-10,46.43-16.87-15-29.28-54.47-53.31-23.27a6,6,0,0,0-.32,8.16c16.42,19.12,30,39.95,42.45,59.65,5.49,7.24,5.63,11.86-.86,16.62-2.19,3.88-4.37,7.89-10.17,7.9-18.3-5-34.52-3-51.24,4-11.75-4.36-16.41-23.31-30.65-24.19-23.15,12.59-14.64-177.24-1.78-143.68,46.45,33.19,28.25-93.37,26.38-117.93-3.26-11.48,4-15.16,12.68-6.69,144.76,75,108.43-1.65,53.07-92.73-31-47.87-89-104.75-139.2-119.63-3.67.66-6.15-3.26-5.33-6.58C317-8.1,976.87-7.32,980,0c-21.89-1.26,41.88,1356.18-25.51,1279.12-16,5.52-10,53.47-53.3,37.22-61.49-38.93,20.15-62.49,2.23-73.72-17.14-10.68-35.37-3.31-52.7-3.7-21.81-15.32-38.25,2.67-57.09,2.18-16.32-6.78-42.42,2.12-47,18.54,8.71,10.65,26,18.46,24.36,32.81,1.82,20.21-31.79,46.11-50.46,30.27-17.6-13.34-5.67-29.57-12.41-41.14-23.59-2.89-30.91,34.3-39.41,47-25.29,8.19-16.08,38-35.08,52.44-11.25,6.56-15.09,35.88-1.64,42.51,44.75-28.69,91.94,23.26,42,55.82-16.08,14.88-44.65-14.9-45.25,3.52-.51,14.86,19.1,28.37,25.66,39.76-.75,18.61,11.16,30.78,24.55,42.76,11.42,8.23,6.9,22.77,19.6,31.61C709.34,1611.74,643.58,1600.74,640.93,1604Zm-182.84-287c12.25,3.7,12.24-22.56-1-20.88C445.61,1296.22,446.91,1319.1,458.09,1317.05Zm185.9-124c-11.42-1-13.69,26.84-.84,24.92C655.61,1219,658,1193,644,1193.08ZM491.93,1179c-13-1.69-15.46,20.83-.54,20.13C504.08,1201.7,504.57,1178.92,491.93,1179Zm446.9-14c-14,.06-13.88,23.28,2.06,20.32C951.79,1184.8,947.24,1162.33,938.83,1165Zm-138.41-15.68c-8.55-.7-10.71,14-3.91,17.41C809.13,1172.86,814.22,1149.38,800.42,1149.27Zm-356-45.93c-11.25-.31-13.76,23.27.61,21.69C456.39,1125.28,457.1,1101.68,444.41,1103.34Zm60.2-31.93c-8.43,1.06-14.08,18.63-5.65,22.28C516.72,1100.59,520.27,1074.6,504.61,1071.41Zm198.51,19.18c10.58,1.1,14.9-21.48,1.51-20.81C694.57,1068.42,693,1090.32,703.12,1090.59Zm172.61-30.95c-14.14,2.43-14.55,26.11-1.94,26.72C891.15,1085.93,889.09,1062.74,875.73,1059.64ZM769,1033c-13.29-1.5-14.78,22.35-2.69,22C778.07,1054.64,778.54,1034,769,1033ZM672.39,1007c-10.74-1.59-12.62,21.31-1,20.13C681.26,1029.85,687,1008.82,672.39,1007Zm-122.58-44c-10.78-1.67-16.39,19.8-4.54,21.59C555.75,986.34,562.08,963.2,549.81,963.07ZM875,959c-12.78.29-9.52,22.78,3.72,21.67C889.51,980.09,891.18,958,875,959Zm-170.3.06c11.25,2.36,14.75-17.09,4.67-18.16C698.24,938.09,690.51,959.82,704.66,959ZM757,913.24c-11.8-1.7-15,19.5-3.44,20C765.82,936.73,770.77,913.82,757,913.24Zm-157.37-9.59c-14.67-2.41-14.36,24.48-.3,23.13C612.08,927.23,613.6,902,599.67,903.65ZM943.3,884.74c-12.9-1.34-19.68,26.46-2.78,23.37C944.62,910.34,956.72,886.74,943.3,884.74Zm-106.23-24c-13.3,1.25-11.56,22.66.78,22C847.18,884.85,851.59,860.54,837.07,860.79ZM534.79,845c-10.66.35-10.73,21.54.76,21.93C550.93,867.46,550.5,843.84,534.79,845Zm239.79-34.07c-12-1.67-14.12,19.56-2.21,19.71C783.82,831.21,788.7,811.7,774.58,810.91Zm113.57-24.56c-13.27-1.15-15.21,23.08-1.09,22.35C897.64,809.45,901.79,785.85,888.15,786.35Zm-21.51-73.21c-22.69.6-1.29,34.3,7.79,14.54C875.22,720.66,875.57,712.86,866.64,713.14ZM940.88,679c-11.34.59-9.89,22.55,2.27,21.57C954.16,700.19,954.16,679.28,940.88,679ZM901,512.76c-6.34.44-7.28,4-7.86,11.54C898.84,551.44,930,509.2,901,512.76ZM390.48,446.94c-14.47,13.48,15.34,30,15.23,7.55,1.55-4.28-2.17-6.53-3.23-9.51C402.09,435.93,388.58,438.25,390.48,446.94Zm233.34-24.08c-11.44-1.31-13.5,19.43-.21,20.21C639.53,442.47,638.2,420.86,623.82,422.86ZM942,412.2c-13.11-.74-15.93,23.73.61,20.83C953.06,434.38,955.8,411.3,942,412.2ZM860.74,405c-11-1.28-13.21,24,.43,22.83C874.07,429.36,877.76,403.07,860.74,405Zm-156.35-88.6c38.82,6.67,9.89,50,23.64,51.17,15.19,2.59,25.89-6.88,34.07-12.25,7.82,3,13.43,2.1,20.37-4.32,10.41-15.43,38.22-11.32,44.56-32.51,2.45-14.77-27-4.74-30.58-23.91-7.81-18.43,8.65-36.6,24.65-37.39,12.55-2.19,16.24,13.51,25.73,17.81,11.86-1.06,21.06-53.35,18.75-63.12-7-14.82,13.28-39.76-11.05-50.17-35.34,54-89.09-20.65-26.13-32.75,23.91.64-1.69-25.91-11.66-30.57-7.11-5-13.82-9.73-19-16.86-8.44-9.4-23.56-5.31-31.92-18.06-5.2-8.65-21.84-10.66-26.87-1.2.22,7.69,9,14.48,6.65,22.35-4.36,34.51-65.82,25.45-51.07-10,7.11-8.6,5.42-19.27-7.81-17.4-28.72,11.1-84.51,22.5-89,57.32,17.7,5.92,36.5,18.15,26.6,40.43-12.91,26.3-39.18,9.82-52.63-6.25-10.15,3-12,18-15.4,27.57.27,5.53,3.68,12.4-1.28,17.2-10.63,12.64,1.47,29.63-.93,44.14-6.39,15.27,9.07,46.26,19.06,23.28,10.87-20.22,47.78-13.14,41.48,15.89-1,18.38-29.85,16.16-28.59,28.31,7.33,22.69,31.83,27.43,46,45.1,15.51.84,27.57,19.21,42.35,16.86C708.73,370.46,651.67,323.69,704.39,316.35ZM544.5,331.12c-11.58-1.28-13.52,23.7,1,22C560.31,354.45,556.75,329.65,544.5,331.12Zm337.58-48.78c-10.75-1-8.76,17.46-1.73,20.19C895.79,306.93,897.8,281.32,882.08,282.34Zm-384.31-3.59c-14.2-2-18,21.75-3,22.05C508.55,302.46,512.46,278.42,497.77,278.75Zm31.4-155.94c-12.48-.14-9.61,22.12,2,20.28C545.21,143.86,544.64,119.31,529.17,122.81Zm391.38-13.38c-13.56-.78-16.69,24-3.17,23.37C930.36,136.17,939.56,107.81,920.55,109.43ZM568.33,27.08c-11.36,1.27-9.84,23.05,3.22,21.47C585.23,48.34,579.37,25.37,568.33,27.08ZM461.87,13.57c-16-.09-12.86,22.55.51,19.71C473.31,34.35,474.24,12.37,461.87,13.57ZM803.63,8.94c-10.58-1.35-13.29,24.23,2,22.13C818,30.9,816.38,6.19,803.63,8.94ZM553.07,1604c-29.6-85.5,9.34-28.39,39.61-7.24C603.72,1610.15,556.19,1601.81,553.07,1604Zm-157,0c-7.38-21,10.38-63.45,7.79-90.78-.71-4.74,2.72-14,8-7.46C473,1609,544,1607.2,396.1,1604ZM0,1604c-9.06,3.14-1.76-84-4-86.38.65-5.77,5.43-3.41,9.65-2.7h0c11.69-2,9.41-21.48-5.59-19.14C-11.71,1496.83,0,4-4,0-8.5-11.09,117.38-3.77,113.14,0,72.43,37,23.69,79,14.8,141.33c-23.09,78.28,21.49,26.52,60.94,17.58,13.6,7.35-43.59,80.71-46.76,99.82-3.2,15.85-32.45,64.5-16.4,71C74.42,301,128.26,250.39,173.5,204.7c10.81-5.76,6.83,15.84,9.06,21.37,7.52,55.63,7.76,115,7.34,174.33.27,18.61-4.76,11.06-13.89,18.11-32.18,7.82-6.82,32.83-4.68,54.87-7.63,20.87-67.58-41.66-58.47,19.71,0,5.89.6,13.5,8.45,12.52,15.38-1.17,84.34,19.06,73.19,38.56-20.81,12.3-178.09,161.94-94.32,145,78.5,1.36,93.92-52.63,86.52,52.87C184.75,808,191.54,873.25,181,940.46c1.5,25.65-24.31,56.68-13.49,79.63,24,23.14,14.07,68.16,20.81,99.12,9.49,91.85.84,184.29.5,276.28,6.54,28.76-22.47,44-30.65,68.79-12.51,24-22.42,49.71-25.57,70.7-6.35,22.28-4.76,51.06-16.41,69Zm69.76-81c-14,2.09-10.66,24.46,2.11,22.62C86.6,1544.88,82.08,1523,69.76,1523Zm-14.45-86.12c-15.36-2.31-18.57,25.82-3,25.93C64.76,1463.13,67.36,1436.63,55.31,1436.88Zm63.51-170c-2.4,0-8.06,1-8.87,10C113.72,1304.05,145.63,1267.62,118.82,1266.84Zm16.37-113.42c-12.64.52-7.72,23.53.84,21.75C151.53,1176,149.08,1152.22,135.19,1153.42Zm-105.28-2.8c-17.26-1.83-10.33,27.22-.24,24.22C44.25,1175.93,45.3,1149.71,29.91,1150.62Zm74.74-58c-16.34,4.18,1.1,28.76,11.4,14.86C120.47,1097.84,111.81,1091.15,104.65,1092.63Zm37.11-39.8c-13.55-.66-10.5,21.48,1.82,20.06C153.25,1074.8,159.31,1047.8,141.76,1052.83ZM41,1044.77c-12.59,1-8.82,21.89,2.9,20.4C59.44,1064.91,57.23,1039.92,41,1044.77Zm54-47.94c-11.07,1.18-11.32,22.24,2.29,23.86C113.14,1020.41,110,995.63,95,996.83Zm49.4-143.39c-14.11-.25-9.24,22.41,1.28,21.42C163.39,874.74,157.8,852.71,144.35,853.44ZM44.26,816.38c-15.36-.86-14.82,25.32.38,23.94C57.14,840.05,60,814.72,44.26,816.38Zm68.77-28C95,787,99.4,814,112.11,814.93,126,813.55,126.56,788.71,113,788.36Zm-21.54-246c-15.47-1.22-10.43,26,1.53,23.39C108.66,566.09,110.89,539.52,91.49,542.34ZM34.75,473c-16.37-1.22-14.25,25.45,1.53,22.51C49,495.31,48.94,471.18,34.75,473Zm52.43-61c-8.69.33-10,17.25-5.63,22.08C100.15,445.82,109.71,411.17,87.18,412Zm63.48-39.23c-12.62,1.18-12.52,23.89.62,22.92C166.37,396.27,172.17,370.51,150.66,372.81ZM38.33,362.89c-17.06-1.05-16.81,25.31-1.09,25.66C51.8,388.25,53.14,361.81,38.33,362.89ZM116,328c-11.74.1-10.41,25.2,2.55,23.83C133.15,352,134.11,324.49,116,328ZM150,279.45c-14.83.81-12,24.39,2.28,23.67C166.6,302,166,277,150,279.45Zm308.14,1037.6h0ZM704.66,959h0ZM363.24,900.89c-18.36-48.09-11.7-111.28-16-164.2,6-17.45,34.94-28.15,48.6-43.9C447.94,635.26,386.74,884.5,363.24,900.89Zm95.48-196.38c-14-5.44-3.4-32-6.56-45.09,1.62-27.16,14.07,8.33,18.83,15.14C480.46,688.39,466.73,697.91,458.72,704.51Z"/><path class="cls-6" d="M1025,1401v10c-48.55-37.48-77.73,67.67,0,46v10c-32.42,7.55-63.79-7.12-55.71-44C976.6,1399.86,1004.12,1382.68,1025,1401Zm-4-37.89c-3.46-36.43-32.19-40.6-40.24-67.46-3.1-15.86-19.9-20.13-33.89-21.93-7.91-1.17-1.11,10.35-4.9,14.94-10.19,50.15-77.31,20.11-53.46-18.24,6.21-10.31,16.41-13,25.89-17.49,4.45-2.11,6-4.77,1.29-7.9-14.89-10-31.26-14.56-49.23-12.06-4.68.66-10.75,4.31-13.66,2.52-12.68-7.83-33.28-8.81-46-1.56-3.15,1.8-6.18,6-11.48,3.53-12.73-6.07-34.92-1.44-44.71,9.16-6.14,6.66-17,13.28-1.66,21.76,41.42,20.59.47,68.5-26,51.19-10-8-10-19.3-8.57-31.21.51-4.42,5.24-8.64,1.39-13.6-3.73-4.78-7.23-.48-10.32.49-17,5.31-35.43,29.39-36.75,47.21a3.16,3.16,0,0,1-1.4,2.38c-6.88,2.39-11.25,7.83-16.25,12.66-11.34,11-4.55,29.87-19.75,40.25-10.62,7.24-13.93,21.14-10.29,34.7,1.34,14.38,5,21.68,19.58,11.48,14-9.67,45.83-1.61,50.25,12.31,6.89,27.08-31.17,60.72-54.44,33.45-2.29-2.45-4.32-6.53-8.25-4.49-13,8.25,3.06,41,12.69,48.43,3.36,2.91,9.59,6,9.48,8.88-1.65,25.86,19.63,36.6,32.12,53.42,1.86,14,10.53,22.8,21,30.07,16.37,12.89,21.64.29,21.6-16.69,4.81-39.23,53.43-25.94,59.83,4.09-.07,14.94-15,28.65-29.58,28.85-10-1.52-9.48,7-4.71,13,7.3,8.17,41.8,13.89,51.37,8.56,8.93-5,14.3,2.29,21,5.19h27c10.94-1.9,17.92-13.34,31.57-10.44,15.14,3.22,30.49.59,40.11-14,2.63-4,5.06-8.88-3.21-11.93-24.7-7.56-22.81-46.34.67-54.06,10.17-3.76,25.59,6,31.8,19.64,3.2,7,4,14.31,4.13,21.84,0,4.73-.49,11.64,7.43,7.58,16.47-8.43,28.41-21.51,28.44-41.91,0-3.53,2.4-4.88,4.33-5.93,18.92-10.23,25.05-27.32,25.69-47.31.11-3.47.54-6.11,4-7.43v-10c-5.16,4.19-15.84,5-13,14.43,3.47,11.57-4.8,33.4-15.21,39.94-30.31,10.32,3.55,16-31,47.77-1.68-6.44-3.27-12.26-4.71-18.12-9.63-34.34-58-42.94-67.72-3.85-4,14.67-.55,36.17,16.4,42.36,1.69.63,8.14,3,2.49,7.3-9.84,7.41-21,7.31-32.5,5.17-4-.74-7.6-5.64-12.41-.67-11.81,12.22-32.13,15.28-47.32,7.81-19.27-13-12.36,7.46-52-2.3-9-2-8.25-5-.39-6.51,73.8-32.48-29.23-117-51-45.39-1.27,17.28-5.74,25.11-18.3,8.18-11.35-7.34-2.17-21.65-16.68-29.69-15-7.41-24.61-23.45-21.78-43a3.86,3.86,0,0,0-1.78-3.23c-16.58-6.11-22.76-23.65-26.65-38.07,29.33,25.16,66.18,2.63,68.81-32.58,2-26.82-38.71-41.82-60-31.26-2.95,1.38-9,6.13-10.83,1.1-5.3-14.26,1.29-28.27,15.08-36,3.16-1.77,7.26-2.2,6.66-7.94-1.91-18.26,3.64-32.33,23-38,1.72-.5,3-2.43,2.9-5.07-.9-20.59,13.26-31.36,28.08-43.81-.73,25.36,5.3,54.93,36.54,47.18,13-2.67,23.65-9.67,29.38-22.6,9.22-20.79,2.57-31.48-12.3-44.79-20.51-16,25-26.51,34.78-16.83,2.58,1.93,5.4,4.27,8.68.64,11.42-12.65,34-13.74,46.1-2.34,2.55,2.4,5.33,3.12,8.5.79,9-6.61,32.45-6.76,41.63-.34,3.35,2.34,5.06,3.7-.45,6.34-66.74,36.75,22.82,115.7,51.33,45,1.5-4.5-.71-14.06,6.39-13.12,10.51,1.4,17.79,9.14,20.2,19.28,2.46,5.22-2.41,15.15,4.76,17.21,16,4.84,21.56,18.67,28.67,31.8,3.77,7-3.08,18.19,9.11,21.55,2.47.68,4.32,3.63,6.46,5.53v-12C1022.34,1367.07,1021.18,1365.86,1021,1363.11Zm-474-1150.76c-.54-7.51-1.33-15,5-21.64,4.14-4.31-1.14-10.59.47-16.6A90.11,90.11,0,0,1,565.91,145c2.41-3.42,6-2,9.05-1.92,2.59.05,3.17,2.6,4.19,4.7,6.25,17.53,32.93,24.73,41.39,5.71,6.81-14-2-26.75-16.19-32.25-4.34-1.6-12.8,2.85-12.68-4.16.15-8.06,2.35-17.67,9.93-22.8,14.84-10,29.3-22.75,45.87-27.35,17.12-4.16,34-19.74,51.72-11.07,12,6.45.83,14.08-.85,19.87-2.94,10.17-2.74,17.8,6.36,23.59,21.5,14.84,52.48-15.67,27.73-34.07-8.36-7.36.33-6.3,4-8.47,12.26-7.33,25.36-6.07,32.67,4.35,8.51,12.11,24.3,7.62,31.88,18,12.79,17.37,48.9,27.91,41.43,55-1.55,2.76-7.17.41-11.18-.85-8.15-2.56-26.88,8.24-27.5,16.91-.66,9.3,1.73,19.76,11.15,24.31C848,190.42,846,138.87,858.33,156.2c10.83,12.38,17.36,24.6,10.6,41.13-5.5,8.1,2.94,13.58,2.39,20.74-.64,8.4-3.84,15.49-6.47,23.17-2.37,6.9-1.16,15.63-3.88,23.08-2.9,7.95-8.41,14.83-16,18-8,3.31-5.55-5.62-7.18-9-10.94-27-47.77-2.39-37.75,19.56,4.95,10.62,14.08,15.09,26.27,12.26,21.51-1.46-7.11,40.91-31.48,39.95-5.44.65-6.32,6.19-9.82,9-6.51,5.17-12.86,9.67-21.65,5.58-2.63-1.22-3.31,1.26-4.3,2.69-8.83,12-57.8,16-37.35-9,3.53-11.17-1.93-27.58-12.14-31.93-8.59-3.66-22.83,3.17-25.78,14.61-1.33,5.17,3,12,5.39,17.87,6,14.78,4.39,17.24-12.34,17.24-12.07,1.34-21.52-3-29.62-11.84-7.23-5.58-13.42.4-23.48-10.39-12.78-19.83-33.67-13-42.52-46.41-1.29-10.93,10.45-7.76,16.07-11.3,6.15-3.86,11.91-8.22,13.32-15.13,6-21-23.5-31.59-34-13.36-1.9,4-3.79,8.58-7.06,11.1-7.06,5.4-11.49-3.33-14.1-6.14-7.76-8.35-7.38-19.21-5.44-30.64C551.4,229.16,547.65,220.62,547.05,212.35Zm9.6,10.31c.9,5.06,7.68,9,3.47,14.73-5.52,8.21-3.38,18.32,2.12,25.49,2.21-1.57,5.21-2.65,6.52-4.78,33.67-42.15,79.44,22,30.09,41.18-2.74.71-8.38,1.34-7.31,5.1,11.13,31.59,32.53,17.74,34.87,32.6-2.52,10.26,26.17,10.17,37.07,24.87,4.68,5.31,12.44.41,18.79.82-1.24-4.05-1.78-8.5-3.83-12.08-14.7-24.89,16.09-49.08,38.62-35.42,13.06,6.66,17.57,29.51,11.22,44.18-1.27,2.94-1.49,3.65,1.93,3.63,9.88-.07,20.11,1.07,24.89-10.93,5.6-7.62,17.57,12.36,29.83-11.67,5.49-10.45,19.43,4.09,35.91-18.54,2.22-2.83,2.48-4.5-2.56-5.21-42.45-4.84-35.32-61.06,2.57-65.49,11.54-2.56,18.08,5.14,23.16,14.18,3,5.31,5.19,4.17,7.35-.63,1.63-3.63,2.36-7.81,4-11.06,2.83-5.72-3.8-11.21-.29-15,9.16-9.91,10.41-19.41,4.22-31.64-4.5-17.1,15-15.51-.61-39.5-1.85,1.51-4.24,2.67-5.48,4.58-19.43,32.36-70.81,5.24-56.29-28.5C804,129,817.43,126.32,831.3,124.62c3.36-.42,3-.75,1.8-3.12-5-9.69-10.14-19-23.24-18.44-3.6.16-4.35-2.83-4.8-5.16-5.11-24.09-29.7-13.12-36.89-26.3-4.67-9.11-13.9-12.89-24.54-11-2,.37-2.38,1-1.09,3.56,31.64,53.3-65.55,66.75-53.2,13.13,2.58-10.56,8.24-19.26-9.65-14.21-4.62,1.31-8.9,3.12-10.71,8.32-1,2.85-3.44,4.89-6.38,3.24C641.38,64.46,635,96.28,614,93.15c-7.52,2.4-11.25,10.82-14.74,17.23,1.6.85,3.13,2.28,4.8,2.45,10.77,1.16,18.06,7.46,23.48,16.07,11,18.21-.1,44.12-22.62,44.41-24,3.08-32.26-29.85-38.18-12.45-11.47,23.58-.08,21.33-4.91,31.88C552.07,201.52,554.73,211.79,556.65,222.66ZM640.93,1600c-.06,11.08-.12,31.37-14.87,20.43-31.15-13.16-55.46-34.9-79-59.15,2.44,22.38,7.75,42.48,8.09,64.72.47,5.77,5,15.41-2.11,18.28-21.32,4.37-49.79-28.51-66.92-40.15a175,175,0,0,1-37.44-42.6c-12.11-19.13-29.73-34-40.31-53.89-3.83,48.72-7,97.8-31.35,141.36H367c6.19-16.45,15.38-32.07,19.85-49,5.89-21.17,7.46-43.27,9.73-65.07,4.53-56.49.15-164.76-59.07-192.78,16.9,103.17,13.26,204.77,1.49,306.85h-8c4.69-74.74,14-150.42,4.3-225.29-.07-11.67-2.25-22.92-3.51-34.36-2.34-13.32,2.26-29.28-5.12-41.18-1.87-2.21-3.59,2.26-5.53,3.52a67.24,67.24,0,0,0-19.78,20.08c-15.7,20.46-19.79,42-25.14,66.11C259.49,1509,279.61,1583.09,307,1649H295c-9.11-24.91-19.47-49.18-24.07-75.44-7.06-22.21-5.58-46.61-12.67-68.3-20.59,23.18-38.92,48.83-63.57,68.21-9.3,7.92-13.5,16.4-14.09,26.53-1.34,6.68,5.41,29.18-5.39,28.82-3.58-.63-4.3-4.52-4.27-8-.66-7.07,1.68-15.18-1.33-21.67-13,12.22-28.16,21.45-43.89,29.68-2.4,1.43-6.78,2-9.39-1.55-6.61-7.55,0-18.19-.16-27.23,3.5-22,9-43.67,12.47-65.67,8.31-38.87,23.87-78.18,49.82-108.68a22.29,22.29,0,0,0,6.74-16.5c-2.07-38.08.38-75.68,3.13-113.53,2.14-17.34-.7-35.25-.7-52.91,2.22-42.39.28-84.6-3.6-126.85-2.85-28.42-4-57.2-10.9-85-1.7-4.36-5.55-5.3-8.33-7.87-9.76-9-3.63-18.47-1.07-27.86,27.31-81.58,17-168.54,19-253.08-2.21-94.52,27.59-53-100.91-47.32-57.1,3.78,93.33-147.67,110.36-153.84,6.53-7.33-42-26.53-47.9-28.06-9.12-5.28-34.39,1.89-34.86-11.82-.42-11.43-3.3-23.57,2.45-34.16,5.41-9.95,14.87-3.15,22.45-2.85,12.17-.34,21.73,9.56,33.19,10.43-1.06-3.74-2.73-7.42-3.08-11.22-1.09-12-9.84-21.72-9.49-34,.17-6.07,5.1-8.5,9.25-9.48,7.52-1.79,12.75-8.07,20.56-9.51,4-66.47.1-135.6-8.31-202.78C137.85,246.73,55,324.82,3.51,335.82-.07,330.68,2,324,3.66,318.74c14.32-56.88,44.86-105,72.08-155.83-14.24.84-62.7,36.84-71.3,23.66-2.81-15,5-30.79,6.4-45.86,3.79-24.32,14.48-46.15,26.6-66.82C46.54,58,94.14,2.11,111.62,3.07c2,2.19-.46,4.19-2.28,6C94.8,23.52,68.71,45.49,56.12,61.5,33.25,93.24,16.83,132.32,15.19,171.89c25.2-39.21,58.09-66.33,87.09-101.24,8.49-9,68-73.49,76.37-66.74,3.07,3.28-1,6.45-3.73,8.78C136.18,45.25,100,87.39,65.36,123.9c-15.1,17.59-33.78,33.39-44.16,54.39,22.42-9,44.59-19,64.65-32.2,8.6-5.69,13.59-16.74,20.43-25.19,7.68-9.49,15.33-19,23.45-28.12,19-21.3,38.13-42.8,61.19-59.51C200.22,26.54,201.55,16,201,6.52c-.07-1.19,2.66-2.54,4.09-3.82,1.2,2.12,3.39,4.21,3.45,6.37.35,10.89,1.26,26.1,2.28,37,6.24,59.41,25.5,119.49,54.18,171.83,17.13,32.67,37.16,64.24,63.92,89.89,13.1,11.27,36.53,36.45,53.51,36.85C339,231.56,293,118.1,238.6,9.52,235.12,5.38,242,.1,244.46,6.1,255.2,27.85,272.87,58,282.06,80.64c29.37,65.07,59.43,130.18,84.38,197.11,7.11,18,13,37.29,22.94,53.62,18.61-115-36.9-240.95-117.9-321.32-2.33-2-.34-5.65,2.37-5.87,21.15,7.16,45.48,31.43,61.9,45.61,17.23,15.2,35.48,29.45,49.61,48,44.61,39.79,78.06,90.9,118.34,134.4C473.69,138.73,410,48.42,317,10.05c-2.57-.9-5.18-2.49-4.06-4.71,16.91-12.13,78.45,38.16,91.68,51C449,97.93,483.24,151,504.39,208c4.38,11.55,11.36,23.68,6.91,37.63-1.39,4.38-4.45,5.12-7.14,5.27-39.18,2.92-76.84-10.75-108.34-33.28,6,43.29,9.14,89.16-2,132.13-1.76,7.23-10.92,3.84-15.74,2.64-5.52-1.37-13.32.55-16-8.83-2.77,45.65-5.69,88.77-1.08,134,.9,7.73,8.12,4.44,12.12,6.69,9.22,5.2,17.32,11.06,22,20.81,1.63,3.38,5,2.4,6.93,1.43,14.76-7.56,30.16-7.24,45.52-3.38,8.59,2.17,7.45-7.17,12.73-9.23,2.64-1-1-6.15-2.72-8.82-13.29-21-26.84-41.64-43.28-60.55-6.76-7.78,4.29-14.45,10.35-19.36,3.89-3.15,8.22-9.36,13.14-7.5,13.71,6.27,26.51,23,34.35,36.73,3.12-18.13,3.77-35.2,7.88-51.21,12.25-.34,25.62-2.67,36,4.3,9.79,6.59,2.08,18.15,2,27.31,0,8.23-3.76,16.43-5.63,24.69-.36,1.57.15,1.5,2.8.07,13-7,26.18-13.9,39.18-21,1.23-.66,1.7-2.69,2.91-.08,4.51,9.76,10.22,19.24,13.46,29.49,3.94,12.45-8.89,14.95-15.27,20.83-7.26,6.69-16.42,10.7-25.56,14.45-.9.36-1.41,1.67-2.09,2.54,3.63,1.73,7.68,3,11,5.21,10,7.14,20-.11,29.87.43,8.2.46,16.35,2,24.5,3.27,7.77,1.18,13.8-3.91,20.5-6.07,30.29-9.38,63.38-14.37,94-5.92,1.3.81,3.76-.23,5.69-.42a332.52,332.52,0,0,0-38.52-47.84c-4.27-4.21,2.6-9.23,5.51-11.1,8.71-5.59,18.35-9.81,27.84-14.11,3-1.37,6.32-.43,8.77,2.58,10.14,12.46,20.4,24.83,31.08,37.79,5.17-14.33,8.7-28.49,15.32-41,5.08-9.62,15-3.37,20.06.89,17.86,11.94,26.71,14.87,14.74,37.52-1.6,6.2-7.5,11.08-8.44,17.78,16.14,1.22,32.17-5.68,47.51.81,7.06,2.22,4,10.39,3.42,15.57-.75,7.13-3.77,14-5.73,21-4.31,15.41-16.44,6.27-25.07,7.83-5.13,1.73-12.54-1.35-16.73,1.84C836.8,539.1,880.52,574,899.34,623.35c2,5.62-7.25,4.64-10.91,5.35-15.31,3-30.84,6.17-46.51,2.32-16.35-4-33.36-4-49.61-9.32-9.65-3.14-20.36-3-31.11-4.43,32.14,36.57,52.6,81.42,65.85,127.75,6.24,24.73-129.91-25.84-141.66-32.67-19.79-8.62-12,.61-9.43,10,8.07,30.14,17.42,60.08,21.1,91.15,1.19,14.68,6.47,29.27,6.88,43.8,0,4.28,2.63,8.8.84,12.2-4.37,8.26-11.15,2.08-15.59.31C614.65,839,549.32,788.45,499.61,725.05c-4.1-5.12-2.94-1.13-5.2,1.39-8.68,9.72-13.24,21.73-19.94,32.5-45.73,76.95-78,161.16-101.15,247.38-.91,5.25,6,5.65,8.5,9.82,12,17.88-9.87,25.84-13.3,41.57-10.57,44.79-9.44,91.44-11.52,137.17-2.79,46,4.53,92,5.73,137.79-1.17,10.6,3.45,19.18,10.58,25.93,3.47,3.44,4.7-2.91,8-4,31.82-7,64.45,18.84,88.52,36.93,8.19,6.61,22.3,7.76,32.52,13.67a425.63,425.63,0,0,1,44.9,29.51C594.53,1476.82,636.23,1535.19,640.93,1600ZM401.05,210.75c29,19.56,62,32.88,97.5,31.76C446.49,173.82,389.06,105.2,321.77,51.23c9.25,18.38,23.72,36,32.74,55.51,11.21,21.49,18.72,44.32,28.63,66.21C388.87,185.58,386.94,200.92,401.05,210.75Zm76.1,482.48c-1-.83-1.17-1.06-2.07.15-7.22,9.7-14.75,19.17-21.68,29.07-2.88,6.78-8.58,4.91-8.61-2.27,1.26-25,4.62-50-.69-75.64-8.83,14.79-28.06,26-22.72,45.74,2.46,7.55.95,14.8.16,21.43-5.46,53-13.72,106.95-33.28,156.77-12.06,28-25.73,55.59-43.71,80.62-1.89,2.63-4.05,8.55-3.5,8.9,13.62,8.7,17.86,23.66,25,37,17.17-68.35,42.92-132.88,74.16-195.75,11.44-25.62,26.16-49.32,42.06-72.28C490.35,715.31,489.07,703.13,477.15,693.23ZM434.39,555C364.63,637,288.13,704.66,225.1,793.91c21.83-6.08,39.85-17,58.8-28.8,55.29-35.18,113.49-69.22,151.56-124.26,3.14-4.47,10.69-7.12,8.65-14.66C437.84,603,429.14,580.21,434.39,555ZM364.81,724c-4.62,4-13.44,4.53-13.54,12.25-.18,15.19-.38,30.33,1.37,45.64,4,39.27,2.06,75.48,10.6,115,34.33-68.22,43.22-139.34,49.88-213.15C395.36,698.45,379.85,710.94,364.81,724ZM328.89,815c3.52,38.37-1.09,77.19,7,115.05l-1.3.18q.81,5.7,1.64,11.4a55.7,55.7,0,0,0,15.51-55.28c-10.12-44.17-6.38-91.49-8.87-136.71-.1-3.12.51-9.6-1-8.92-5.34,2.38-14.08,4.73-14.24,10.29C326.94,772.35,328.15,793.71,328.89,815ZM316.48,990c-2.58,3.69-6.3,12.08-3.62,12.84,11.15,3.18,22.8,8.31,34.64,3.78,3.48-1.33,6.87.07,10.07-.2-.92-14.32-11.05-23.08-15.19-34.52-.13-.35-3-9.73-8.55-2.87C328.14,976.12,321.67,982.61,316.48,990ZM456.27,699.33c0,.4,1.6.79,2.45,1.18,3.33-7.82,17.69-11.24,8.66-24.14-4.74-6.79-7.44-15-11.21-22.89C456.17,669.1,456.15,684.22,456.27,699.33ZM813.37,744c-58.61-48.85-117-93.08-180-134.36C644,631.22,653,654,661,676.94c2.3,5.85,2.29,15.27,6.29,17.33C715.3,715,761.41,733.48,813.37,744Zm68.72-123.6c-63.29-34.65-128.45-65.75-198.77-85.07,15.85,16.26,33,30.11,48,47.15,11.49,11.93,22.49,24.31,40.53,26.49C808.76,611.41,845.13,628.58,882.09,620.36ZM742.89,490.1c13.62,2.29,25,12.76,39,12.49,10.86-.21,21.55-3.21,32.59-.06,3.6,1,10.72.52,11.55-1.36,3.46-7.81,5.13-16.41,7.45-24.71,1-5.27-1.95-5.76-5.92-5.41-15.14,1.34-30.28,2.77-45.45,3.8-15.59-2.25,6.14-24.31,7.43-31.92,1.89-5.41,11.8-10.41,2.79-17.54-3.59-2.84-7.36-5.95-11.57-7.35-3.23-1.07-7.21-8.51-10.46-1.54-6.16,8.31-12.3,47.71-23.81,42.87-9.62-4.94-13.26-15.72-21.19-22-8.1-6.42-10.08-26.84-27.38-14-14,5.19-21.08,2.88-2.81,20.23C711.1,459,716.2,485.61,742.89,490.1ZM614.43,500.3c18.7,4.42,35.55,16.31,54.28,20.14,25.76,5.9,50.75,14.27,75.22,23.43,23.77,8.89,47.52,18.42,70.26,30.41,16.95,8.94,33.35,19.05,50.85,26.89,5.78,2.58,10.56,7.84,18.23,7.61C797.79,486.8,672.09,473.8,614.43,500.3Zm-60.26,1.35c23,14.76,37.53,39.88,52.67,62,8.79,14,16.59,28.66,31.5,36.94C701,639.78,758.53,685,815,733.09c-17.28-52.38-47.59-98.52-85.24-138.42C684.31,544.94,626.45,494.11,554.17,501.65ZM494.83,486.7c-5-.26-10,2.34-14.85,4.17-2.11.81.12,2,.78,2.9,12.47,16.77,24.49,33.74,34.72,52.11C553,603.71,590.69,661.64,625,721.54c23,41.87,42.94,84.91,67.37,126.13C688.86,756.19,605.48,488.12,494.83,486.7Zm-27.48-2.41c1.32,7.34,11.21-7.53,26.65-5.2,26.21,1.86,43-8,64.4-22.72,10-7.07-1.63-14-2-21.19.31-3.77-.55-11.14-8.18-5C538,437.36,517.36,454,504.46,449.88c-1.87-18.23,5.07-38.11,8.16-56.62-4.07-.52-8.12-1.43-11.64-1.63-5.07-.28-13.58-4.82-15.47,2.79-2.48,10-1.68,20.73-2.52,31.13-1.11,8.28-3.64,25-14.46,16-18.86-12.58-22-50.42-44-25.33-4,3.82-2,5.14.61,7.75C442.86,441.49,457.47,461.22,467.35,484.29Zm-25.69,87.17c17.67,130.43,127.79,232.34,241.6,287.31,3.43.52,4.54-.71,3.22-3.25-13.13-25.57-28.33-50-42-75.28-40-82.85-94.24-157.31-140.25-236.69-6.63-13.33-16.79-24.9-25.28-37.33C457.61,478.12,438.85,558,441.66,571.46Zm-56.41-47.53c-91.65,53.06-128,159.8-161.49,254.2l2.34.88A1137.09,1137.09,0,0,1,342.21,641.13c35-41.64,85.16-73.65,104.18-126.49.73-2.25-.49-3.05-1.69-3.28C424.15,505.4,403.33,515.16,385.25,523.93ZM14.31,312.22C55.59,258,101.87,209.06,142.89,154.79c18.86-24.37,39.17-47.62,58.54-71.6,1.68-2.08,6.25-.46,5.54-5-2.1-13.56-4-27.14-6-40.72-.23-1.54.14-3.41-2.33-1.22-9.1,8.09-18.82,15.54-27.39,24.14-20,23.54-42.89,45.49-61.63,69.88C70.53,186.45,37.77,247.77,14.31,312.22ZM211,149.8c3.29-5.06,10-10.75,9.21-15.07-2.2-12.07-7-23.66-9.56-35.89-2.08-10.13-3.45-10.37-7.5-4.92C142.74,172.85,80.34,243,19.2,322.68,93.32,276.19,161.14,221.89,211,149.8Zm-16.5,124c2.13,34.43-.84,69.16.46,103.68.43,11.38-6.56,24.42,4.33,34.84,8.25,10.49,4,34.58,9.55,46.72.55-.36,1.43-.6,1.6-1.09,4.67-13.55,15.39-22.66,23.79-33.54,7.93-12.57,26.85,16.34,33.45,21.41C278.36,456.42,271,462.38,265,470c-9.46,13.53-22.53,25.85-29.63,40.43,135.2-72.3,110.59,21,113.28-92.41,1.45-19.13-.88-38.45,4.07-57.46,1.67-6.41,3.66-16.53.39-19.76-11.26-11.09-23.71-21-35.23-32.05-45-44.09-70.13-105.09-93.71-161.87C164.33,228.43,190,172.08,194.46,273.82Zm2.93,257.65c1.07.91,1.38,4.76,3.34,2.67,7.48-8,19-10.28,24.08-22.43,7.51-18,20.79-32.89,34-47.36,3.56-3.91,8.49-7.34,2.19-13.06-4-3.63-6.95-8.67-11.4-11.43-3.84-2.38-6.22-12.2-12.61-5.55a109.84,109.84,0,0,0-20,29.12c-3.18,7.42-13.41,12.95-15.7,1.54-2.13-14.6-7.46-28.75-6.43-43.79,1-9.61-25,8.7-29.37,8.49-1.29.28-3.55,2.26-2.13,4.71,8.72,15,10.51,32.21,14.93,48.56.21,8.71-15.16,0-19.18-1.49-11.18-6.29-23.3-8.82-35.76-10.31-1.6-.19-4-1.46-4.33,2.16-.54,6.8-1.48,13.56-1.93,17.53C113,517.73,143.11,485.33,197.39,531.47ZM143.37,643c79.52-43.55,158.17-89,238.74-130.31,1.72-.64,7.36-1.45,4-5.18-4.94-5.43-10.44-11.84-17-14.05C270.43,461.2,122.39,597.71,81.48,680,102,667.73,122.41,654.91,143.37,643Zm44.71,26.87c17.13-4.55,33.78-10.81,50.38-17.05,10.29-3.86,23.22-6.43,29.46-14.07,21.4-29.93,39.36-62.52,66-89-79,46.95-162.21,86.39-241.69,135.22C124.57,682.39,156.76,678.55,188.08,669.86Zm-12.75,320.3c0,.32,1.6.82,2,.55a43.19,43.19,0,0,1,20-6.54c12.23-1,24-5,36.89-2,5.84,1.37,15.21,7.23,20.29-5.27,2.84-7,7.73-14.52,15.95-18.36,10-4.65,8.73-14.07,8.42-22.86-.67-18.4-1.7-36.8-1.85-55.2-.09-11.25,1.26-22.5,1.79-33.75.11-2.48.18-4.07,3.4-3.89a4.54,4.54,0,0,1,4.63,4.74c.26,11.53-.07,23.07.2,34.6q.76,33,2.05,65.89c.08,2.25.87,5.9,2.29,6.45,8.42,3.27,12.13,10.13,16.09,17.48,1.25,2.33,1.94,8.88,3.79,7,6.35-6.64,15.41-13.53,15.16-23-.57-21.72-4.18-43.35-5.31-65.08-1-18.82,1.24-37.88-.67-56.57-1.59-27.13-1.06-53-1.62-76.58-.06-2.89-.28-3-2-1.65-34.25,21.13-69.33,45.37-109.35,52.62-.13-4-1.36-8.25-.2-11.77,6.22-18.9,13.44-37.47,19.56-56.39,9.11-29.86,21.59-58.5,33.7-87.06-18.35,7.22-36.19,15.79-55.74,20-7.82.91-15.62,2.82-13.66,13.62,2,40.77,2.3,81.58,1.88,122.39C193.11,869.87,193.85,932.51,175.33,990.16ZM298.9,979c-2.56-12.89-14.87-18-24.84-10-4.56,3.64-8.11,8.52-12.56,12.33-3.84,3.29-.94,5.06,1.37,5.38,13.87,2.08,27.11,8.13,39.76,13.35C301.08,991.22,300.11,985.07,298.9,979Zm-74.8,43.1c27.83-3.33,54.75-.09,81.4,7.81,21.36,6.83,55.13,23.38,70.86-1.23,2.31-3.83-2.22-5.49-3.88-7.39-2.88-3.31-7.53-4.54-12-4.14-40,5.26-74.61-17.61-112.66-23.65-24.06-3.53-55.27-4.12-75.62,11.13-7.13,7.57-1.9,13.1,4.37,16.07C192,1027.93,208.31,1024,224.1,1022.07Zm49,381.68c-28.56,39.85-58.54,78.58-86.22,119.15-22,27.4-39.45,57.62-53.33,89.83,38.61-27.19,73.73-61.78,104.55-98,10.42-12.38,25.53-22.67,23-42.56-1.62-12.55,3.18-24.39,5.79-36.45C269.14,1425.08,271,1414.4,273.08,1403.75Zm7.66-26.92c-26.49-12.83-54.91,12.35-73,29.48-44.2,43.85-64.39,104.12-76.66,163.83-3.1,11.32-7.49,23.49-7.76,36.21,29.69-66.3,78.36-121.51,120.78-180.09,12.42-15.93,24.18-32.34,37.88-47.23C284.11,1376.72,281.55,1377.24,280.74,1376.83Zm74-42.82c-9.18-58.09-9.55-118.17-6.73-177.36,2.61-33.34,1.6-67.56,12.75-99.53,1.11-2.81,1.58-5.44-1.68-5.42-18.3.09-35-4.81-52.05-10.4-25.25-8.55-51.74-12.75-78.4-9.93-13.5.87-26.78,5.38-40.53,1.84-2.17-.56-5.84-1.41-4.88,3.44,18.15,90.33,17.05,183.71,15.14,275.47-.71,14.08-.17,28.43-2.85,42.55-2.21,11.63,1,23.71-2.07,35.59-1.16,4.42,1,9.72,1.8,15.47,12.49-19.17,61.24-55.82,83.93-41.07,7.23,4.59,12.3,7,17.23-2.51,3.46-6.68,9.36-11.21,15.51-15.83,4.1-3.07,11.82-4.57,11.12-12.79-3.7-33.5-2.82-67.27-4-101.09q-.48-28.21,0-56.44c1.3-10.71-1.17-26,5.11-34.77,3.77,4.35,5.9,9.19,4.9,14.88-.61,25.86-2.86,51.81-1.53,77.57,1.66,32.22,6.17,64.3,9.6,96.42.66,7.4,8.11,5.51,12.73,8,1.25.71,3.1.35,4.67.48C354.56,1337,354.64,1335.52,354.71,1334Zm179.42,296.14c-38.7-78.58-81.4-154.1-137-224,3.17,24.62,10.22,48.07,10,73.28.24,5-.15,11.12,2.45,14.84C447.78,1542.32,480.3,1597.74,534.13,1630.15ZM544.66,1600c-10.44-43.59-15.95-88.62-35.64-129.33-23.43-52.81-66.73-108.82-131.21-106.13,71.2,81.61,118.61,172.12,169,266.74C547.33,1618.08,547.63,1611,544.66,1600Zm75.75,6.31c-32.72-55.7-66.95-104.09-108.69-155.87,11.11,22.09,18.79,41.73,24.18,62.19,4.3,16.29,6.58,32.74,21.09,45C577.85,1573.79,595.4,1596.59,620.41,1606.31Zm10.06-6.31c2.24-63.45-79.29-168.81-143.74-190.43,57.35,59.11,101,125.77,143.39,195.43C630.3,1603.37,630.42,1601.7,630.47,1600Z"/></g></g><g id="Red_Japanese_Frames" data-name="Red Japanese Frames"><path class="cls-6" d="M0,20V1580a20,20,0,0,0,20,20H956a20,20,0,0,0,20-20V20A20,20,0,0,0,956,0H20A20,20,0,0,0,0,20ZM924,1548H52V52H924Z"/><path class="cls-7" d="M952.1,15.41,928.69,38.83A4,4,0,0,1,925.86,40H50.14a4,4,0,0,1-2.83-1.17L23.9,15.41A2,2,0,0,1,25.31,12H950.69A2,2,0,0,1,952.1,15.41ZM40,1549.86V50.14a4,4,0,0,0-1.17-2.83L15.41,23.9A2,2,0,0,0,12,25.31V1574.69a2,2,0,0,0,3.41,1.41l23.42-23.41A4,4,0,0,0,40,1549.86ZM936,50.14V1549.86a4,4,0,0,0,1.17,2.83l23.42,23.41a2,2,0,0,0,3.41-1.41V25.31a2,2,0,0,0-3.41-1.41L937.17,47.31A4,4,0,0,0,936,50.14ZM925.86,1560H50.14a4,4,0,0,0-2.83,1.17l-20,20a4,4,0,0,0,2.83,6.83H950.69a2,2,0,0,0,1.41-3.41l-23.41-23.42A4,4,0,0,0,925.86,1560Z"/></g></svg>