<svg xmlns="http://www.w3.org/2000/svg" xmlns:xlink="http://www.w3.org/1999/xlink" viewBox="0 0 976 1600"><defs><style>.cls-1{fill:none;}.cls-2{fill:#f4f3ef;}.cls-3{clip-path:url(#clip-path);}.cls-4{fill:#6060bf;}.cls-5{fill:#50b271;}.cls-6{fill:#ffb85a;}.cls-7{fill:#d81e1e;}.cls-8{fill:#592116;}.cls-9{fill:#992d17;}</style><clipPath id="clip-path"><path class="cls-1" d="M960,22V1578a6,6,0,0,1-6,6H22a6,6,0,0,1-6-6V22a6,6,0,0,1,6-6H954A6,6,0,0,1,960,22Z"/></clipPath></defs><g id="Paper_Backing" data-name="Paper Backing"><path class="cls-2" d="M960,22V1578a6,6,0,0,1-6,6H22a6,6,0,0,1-6-6V22a6,6,0,0,1,6-6H954A6,6,0,0,1,960,22Z"/></g><g id="Wikipedia_Cropped" data-name="Wikipedia Cropped"><g class="cls-3"><path class="cls-4" d="M187.07,1377.14c-61.9-3.17-14.53-31.94-27.89-87.25-13-51.72-67.36-9.11-73.85,22.87-2.75,12.38-12.1,23.27-24.08,13.59-15.74-4.43-20-13.42-11.73-27.48,12.38-30.42,28.34-66,53.64-78.82,17.32,17,101.71,43.66,142.73,42.06,11.59,4.91-5.77,10.48-9.33,13.7-22,16.91-29.47,41.62-37.68,67.21C191.42,1355.38,202.78,1374.67,187.07,1377.14Zm161.67-8.31c-20.87-6.77-14.61-53.28-37.48-74.73-1.17-10.34-38.62-25.35-25.35-32.12,54,1.26,109.85-33,143.78-54.11,22.1,12.14,79.45,123.74,43.54,130.38-43.62,9-19-45.76-49.16-71-45.8-46.84-73.47,22-59.1,62C372.2,1349.85,375.91,1365.87,348.74,1368.83ZM638.5,1344c-24.7,1.44-60.32-44.12-35.49-58.63,5-.32,7.12,5.38,5.85,9.54,3.26,29.43,37.91,40.9,58.3,21.3,2-37.82,21.43,21.71,58.89-36a4,4,0,0,1,4,4c1.05,36.64-32.72,50.48-60.23,38.67C662.65,1336,654.26,1345.47,638.5,1344ZM210.62,1227.78c-25.51-1.18-89.94-26.72-74.41-57.5,15.31,1.76,31.69,15.55,44.84,24,38.78,19.48,93.78,5.15,133.33,5.87,22.82,3.84,72.1-47.77,81.65-33,10.56,26.45-24.49,27.22-39.57,39.93-41.44,33.64-99.15,13.45-145.84,20.68Zm5.82-60.49c-5.54.56-7.62-3.17-12-3.71-4.58,1.66-8.5,2.83-13.25,0-9.77-9-29.73-8-32.15-21.89-3.83-28.68,5.27-73.68-8.17-96.9-4.45-1-8.82-5-12.65-.75-15.06,1.87-32.4-7.74-47.74-10.33C67,1021.41,6.3,1022.62,1,995.56c-1.15-10.82,8.76-19,20.51-18.87,19.4-1.13,23,29.72,43.06,18.74,3.17-1.27,70.15,21,72.36,20.76a34,34,0,0,1,31.12-3.17c192.8-5.82,127.65-8,204.3-1.67,23-6.5,106.51-10.58,125.05-23.93,25.91-12.74,38.65,22.48,8.93,29.34-45.51,14.88-94.58,16.11-140.46,25.66-5.39,30.54-1.54,63.44-5.41,95.13-1.22,13.28-31.7,26.22-42.08,22.62C288.2,1174.32,249.76,1160.22,216.44,1167.29Zm47.17-90.78c-48.3-5.24-34,17.6-35.21,54.7,5.09,11.49,26.17,5,35.66,7.24,20.12,1.55,29.87-1.64,25.62-23.86C288.37,1088.61,299.83,1072.42,263.61,1076.51Zm-6.52-97.36c-16.34-.23-34.4-.18-49.12-4.41-16.49-.54-26.89-30.86-3-31.4,13.93-7.23,20.84,3.36,39.47,3.19,14.67,2.54,22.09-11.48,33.62-12.13C327.48,948.6,294.18,982.6,257.09,979.15Z"/><path class="cls-5" d="M449.06,1616c-10.59-8.69-9.92-25.53-15.41-39.64-15.22-16.59-9.95,16-11.77,24.26v-.17c.22,4.91-5.1,8.76-8.77,4.65-21.52,1.74-34.56-17.44-51.66-34.37-35.57-34-49.77-86.2-74.74-125.19-13.07,9-8.94,34.22-15.94,49.9-6.75,30.33-24.09,62.19-38,92.57-5.87,7.08-7.49-2.72-8.87-7-17.39-10.82-14.93-39.16-19.22-59.13-6.77-59.61-10.47-173.5,52.78-198.27h-.29c23.26-3.93,32.41,26.84,34.48,46.71,1,9.09,12.62,4.58,17.34,1.55,60-31.73,97.34,171,110.87,129.94-4.35-48.55,19.7-189.35,84.14-124.92,26.74-40.61,63.09-35.59,92.21,3.09,2.28,3.5,7.26,3.25,9.88.3,27.64-12.4,53.8,7.2,81.66,16.62,18.71-45.21,62.9-59.42,105.68-57.38,47.86,3.42,102,13.6,139.58,39.38-12.15,20.87-42.13,30.08-60.25,38.18-10.72,8.45-77.35,9.64-62.69,27.3,49.66,22.66,86.51,66.06,112.95,111.85,35.8,61.15,7,52.23-38.26,27.79-11.62.59-107.37-86.55-100.72-53.65,3.93,10.5,12.66,20.33,13.64,31.3-2,3.6.62,7.26,3.8,9,4.22,25.91-85.64-32.67-94.81-40.87-17-4.44-68.17-75.6-77.73-50.86,4.45,25.29,6.62,52,11.64,77.22.18,5.55-10.07,6.51-5.61,13.27,12.23,32-54.6-28.67-56.58-34.39-15.1-9.38-55.72-95.17-64.52-72.81C506.2,1494.83,483.28,1617.19,449.06,1616Zm-427.55-5.36c-16.34-6.16-19.12,3.73-12.19-19.37,63.65-234.58,252.54-163,26.41,12h0C31.19,1606.29,26.73,1609.45,21.51,1610.59ZM4.7,1201.17c-16.9-2.82,8-43,8.75-55.51,12.41-26,22.46-98.78,65.47-88.16,10.63-1.18,3.11,19.27,13.91,19.26,8.21,0,10.63-8.51,19.06-7.71,28.31,7.07,28.35,54,32.77,73.88,5.59,10.55,0,12-8.47,16.38-6.1,7.09,4.27,33.24-10.06,30.79-15.92-6.22-31.2-101.3-44.22-78.81-12.08,28.22-33.68,50.08-51.36,74.41C23.75,1202,15.76,1187.21,4.7,1201.17Z"/><path class="cls-6" d="M929.77,1520.3c-14.92,3.16-13.19-20.85-3.67-21.77C936.73,1496.28,939.85,1519.74,929.77,1520.3Zm31.11-30.51c-9.65,1.63-15.59-16.88-1.23-19.1C973.74,1471.64,969.48,1490.12,960.88,1489.79ZM893,1476.92c-9,1.18-14.57-14.34-6.78-17.74C897.11,1458.67,905.94,1472.49,893,1476.92Zm41-25.12c-15,1.87-13.82-17.7-5.37-19C939.59,1429.89,945.61,1451.06,934.07,1451.8Zm-875.95-6.71c-9.38.47-8.95-19,.7-18.18C68.84,1424.88,70.35,1446.73,58.12,1445.09Zm-31.52-26.2c-18.26-1.71-13-30.86,3.38-18.79C32.18,1404.82,35.55,1419.59,26.6,1418.89ZM396.21,1415c-13.61,1-8.64-21.81-.36-19.79C408.6,1393.7,407.09,1415.18,396.21,1415Zm-224.77-1.8c-17.05.69-9.42-27,4.38-15.47C180.31,1402.42,177.22,1414.94,171.44,1413.16Zm-63.11-3.61c-10.82,1.53-10.67-20.17-.3-18.78C117.12,1387.86,121.14,1410.18,108.33,1409.55Zm857.13-10.39c-13.24,1.13-8.18-24.06,1.44-22C979.51,1375.73,976,1400,965.46,1399.16ZM64.6,1376.67c-14.5,2.95-19.91-21.29-4.63-21.46C69.63,1352.4,78.32,1377,64.6,1376.67Zm335.09-11.8c-14,1.57-13.74-22.19-1.41-21.83C412,1340.91,412.09,1366.17,399.69,1364.87Zm531-13.95c-5.73-.41-7.78-2.69-7.84-9.59C927.65,1312.63,955.56,1349.78,930.69,1350.92Zm-823.81-4c-22.84-3.55,7.5-39.23,10.12-12.22C116,1347.31,110.11,1346.91,106.88,1346.94Zm-82.33-1.74c-15.59,3.64-16.21-21.66-4.34-20.48C29.63,1321.3,37.14,1344.26,24.55,1345.2Zm940.84-32c-7.5-.27-6.55-4.31-6.42-9.58C959.69,1274.86,991.14,1311.33,965.39,1313.2Zm-565.75-2.69c-16.47-.35-6-26.45,6.62-18.41C409.83,1297.33,407.81,1310.29,399.64,1310.51ZM23.09,1271.2c-5.2,2-11.26-10.46-6-16.23C30.47,1242,42.35,1271.63,23.09,1271.2ZM962.52,1247c-11.48.41-10.95-19-1-19.74C966.83,1223.16,977.37,1248,962.52,1247Zm-911.37-16.1c-16-2.48-1.92-31,9.05-18.16C62.87,1220.41,61.69,1231.12,51.15,1230.88Zm437-18c-10.26-.75-10.12-20.27,2-20C501.56,1193,501,1214.23,488.15,1212.85Zm444.66-11.92c-11,1.17-13.77-17.82-2.28-18C942.49,1181.23,945.53,1200.79,932.81,1200.93ZM78.65,1195c-13,1-7.38-23.28,1.69-20.15C94.59,1172.6,89.63,1196.76,78.65,1195Zm450.2-9.22c-13.18,1.74-12.24-19.5-1.57-18.69C538.36,1165.31,538.24,1185.79,528.85,1185.78Zm-73.62-6.93c-13.64,1-8.73-22.9.46-20C470,1158.81,466,1179.65,455.23,1178.85Zm441.05-21.78c-5-.16-9-1.25-9.33-11.31C889.94,1119.58,923.59,1154.18,896.28,1157.07Zm-404.77-7.58c-13.22.39-14.23-22-.21-20.3C502.34,1128.6,502,1149.79,491.51,1149.49Zm476.64-1.74c-12.08.73-14.9-18.23-1.16-18.76C976.26,1127.66,979.71,1148.37,968.15,1147.75Zm-545.39-3c-11.54.89-12.68-20-2.31-21.23C434.92,1120.8,434.32,1145.05,422.76,1144.71Zm-148.68-7.81c-14.72-2.3-11.79-8.87-27.37-1.87-29.18,4.35-13.38-18.72-16.31-32.77h0c-4.1-6-2.86-15.76-.47-21.59,5.93-2.8,17.17-2.24,23.22-.18,9.12,2.76,23.17-7.72,32.35-.36,5.73,8.57-2.11,20.06.11,29.09C288.46,1120.57,292.38,1139,274.08,1136.9Zm187-21.89c-12.36,1.91-10.09-19.09-2.15-17.93,4.82.17,11.94,1.21,10.43,7.55C468.72,1113.83,464.59,1115,461.07,1115Zm-65.74-1.45c-13.16,2.61-18.24-17.84-3.76-18.53C401,1093.74,403.65,1111.83,395.33,1113.56Zm536.61-9.65c-12.23,1.33-10.23-20.05-1.57-18.57C940.44,1084.34,942.88,1103.52,931.94,1103.91Zm-70.62-18.1c-30.27-5.65-37.49-169.52-55.4-208.79-9.53-21.91-11.53-50.45-30.42-66.09-14.91-17.64-.24-31.5-4.18-49.73,1.64-27.32,13.37-63,22.7-87.54,20.82,16.4,31,93.64,12.41,115.7C824.26,863.54,863.58,984.56,861.32,1085.81Zm-437.92-2.66c-5.63.92-7.38-6.21-6.23-11.69C423.77,1050.23,445.54,1083.3,423.4,1083.15ZM967.48,1063c-18.9.87-8.23-26.29,3.67-16.08C973.49,1050.7,975,1063.38,967.48,1063ZM937,1026.81c-14.4,1.39-15.66-22.49-3.45-21.68C939.42,1002.15,949,1023.4,937,1026.81ZM906.13,985c-12.26,1.15-12.3-22,.87-20.31C915.17,964,916.92,986.32,906.13,985ZM963,983.08c-8.6,1-8.07-19.46.07-18.16C977.77,964.71,975.35,982.81,963,983.08ZM85.34,967.31c-15.45,1.13-16.23-17.78-4.83-19.87C91.41,945.56,95.33,966.47,85.34,967.31Zm288.14-8.51c-13,.76-8.73-20.47.6-18C386.44,939.87,381.46,960.62,373.48,958.8Zm49.13-17.68c-11.58.43-6.19-21.24.28-18.23C436.59,923.05,435.39,943.39,422.61,941.12Zm-88.69-4.38C322,935,322.05,916.94,332.53,917,344.21,915.38,344.39,937,333.92,936.74ZM52.56,935c-9,1.61-13-18.88-1.27-18.21C63.7,915.17,64.51,935.76,52.56,935Zm62.55-3.28c-10.23,2.19-14.79-16.06-5-18.39C122,910.77,126.41,929.89,115.11,931.75Zm57-.53c-13.88-.19-14.57-19.2-2-19.29C182.55,912.64,189.54,931.82,172.15,931.22ZM932,930.67c-10.44-1.64-9.77-21.72,2.54-17.95,8.5-.71,9.12,19.6-2.54,17.95ZM295.82,911.12c-12.44,2.2-11.69-17.65-.89-17.8C304.92,892.8,302.63,913.59,295.82,911.12Zm76.5-.62c-8.81-2.3-6.38-20.56,5-17.65C390.35,896.39,378.18,912.74,372.32,910.5ZM81.5,897.1c-11.26-2.8-10.84-21.66.32-21.76,14.23-.72,12.4,22.7-.32,21.76Zm58.58-4.57c-12.92,1.33-10.56-21.45-1.31-19.52C151.18,872,151.69,891.84,140.08,892.53Zm764.72-4c-12.26,0-12.8-22.26.26-20.92C915.58,868.65,917.13,889.59,904.8,888.57Zm-710.86-.76c-10.8,1.35-12.6-17.48-2.23-17.8C204.28,868.94,204.84,888,193.94,887.81Zm769.13-1.76c-10.54,1.69-11.72-17.29-1.58-17.1C973,867.53,974.55,886.44,963.07,886.05Zm-707.27-1.2c-15.79-1.08-8-26.91,6.46-16.53C266.12,874.23,262.2,886.32,255.8,884.85Zm75.13-1.57c-10.5,1.24-11.6-20.66-1.42-18.89C343.64,862.6,342.54,882.37,330.93,883.28Zm83-2.25c-13.06,2-9.58-22.43-.28-19.83C425.26,861.5,425.75,881.71,413.91,881ZM47.67,858.68c-10.41.13-12-19.35-.84-19.53C58.37,836.37,61.86,857.54,47.67,858.68Zm327.2-7.13c-10.49.87-13.6-18.82-2.5-18.75,13.73-1.84,13,18.24,2.5,18.75Zm557.87-7.84c-11.85,1.36-11-19.07.14-17.78C940.31,823.49,944.7,844.42,932.74,843.71ZM413.91,827.14c-13,3.08-10.65-20-1.7-18.18C420,806,425.76,827.3,413.91,827.14Zm245.86-26.88c-10.79-4.63-57.44-138.94-31.12-128.85,25.86,2.22,18.2,40.9,25.57,59C655.66,751.6,670.57,782.62,659.77,800.26ZM905.2,797c-10.57.76-14.19-18-1.78-17.83C913.64,778.18,918.1,796.57,905.2,797Zm52.31-.26c-9.66-3.15-3.08-18.43,6.1-17.55C974.89,781.63,968.08,797.19,957.51,796.69ZM378.8,792.27c-30-2.07,4.56-38.65,4.75-8.44C383.49,792.88,381.86,792.05,378.8,792.27Zm38.4-27.34c-9.73,1.42-11.72-19-1.55-19.32C430.86,744.73,425.36,766.8,417.2,764.93Zm510-4.79c-11.18-1-4.71-22.87,4.23-21.09,10.66,2.21,15.63,19.05-4.22,21.09Zm-546.38-31C369,731.86,368.21,714,378,713.39,388.49,712,389.77,728.73,380.79,729.11ZM906,716.52c-13.68.06-9.36-20.88,1.71-19.61C919.41,696.88,914.15,717.85,906,716.52ZM959.1,711c-10.6.81-7.47-20.52,1.5-18.23C972.25,692.23,967.7,713.21,959.1,711Zm-543.52-.54c-12.65,1.6-8.6-19.68-1.25-17.43C426.07,692,424.64,710.23,415.58,710.45Zm515.94-37.24c-10.6.48-7.34-20,1.65-18.17C944,655,944.91,674,931.52,673.21Zm-550.58-6.43c-13,1-11.74-19.57-.45-17.81C390.28,647,391.48,667,380.94,666.78ZM414.67,643c-25.79-2.27,5.79-30.5,10.36-10.29A12.18,12.18,0,0,1,414.67,643Zm112.09-1.27c-18.54-27.32-7-81.85-11.45-115.21,1.79-19.45,4.56-14.1,19-12,9.83,24.75-2.5,65.17-1.31,94.38C530.55,615.72,535.4,638.05,526.76,641.76ZM799,636c-9.94-1.21-4.64-15.71-5.92-23,1-7-4.27-21.07,7.4-21.42,16.91-6.56,38.73,11.12,33.7,28.21-2.71,4.09-7.87,4.36-12.29,4.62C813.26,623.83,806.6,635.14,799,636Zm101.78-4.67c-13.58-2.56-4.73-25.19,8.45-21.15C919.62,610.71,915.77,636.23,900.73,631.28Zm61.09-4.43c-14.6.65-9.66-20.48,2.94-18.21C974.6,611.24,971.21,627.11,961.82,626.85ZM709.08,610.69c-19.21-6.26-36.59-10.4-55.35-5.31-17.15-1.09-9.14-31.07,5-28.08C683.48,572.21,741.15,581.07,709.08,610.69Zm-331.46-1.6c-15.67-.41-7.32-21.53.84-19.74C390,589,390.47,610.68,377.62,609.09Zm497.13-22.35c-11.4,1.33-9.6-21.63-.33-19.09C887.74,565.65,885.28,587.29,874.75,586.74Zm57-1.61c-13,0-9.9-22.21,2.75-19.91C948.77,564.68,943.57,587.53,931.77,585.13ZM408.16,570.71c-14.19-.38-10.71-16-2.44-15.84C416.48,553,418.23,570,408.16,570.71Zm-59.68-1.21c-11.08,1-10.2-18.69-.19-18C361.6,550.87,360.73,569.29,348.48,569.5Zm-299-4.74c-8.67.4-9.63-17.5-.64-17.44C62,545.18,61.75,564.68,49.5,564.76Zm909.2-17.64c-13,1.93-15.64-24.77-.72-23.91C967.94,521.78,971.17,547.09,958.7,547.12Zm-108.27-.61c-9.87,2.88-18.68-19.69-3.74-19.76C858.12,524.78,858.32,544.89,850.43,546.51Zm51.68-5.7c-20.16-.29-2.65-29.1,9.61-16.84C915.56,531.82,912.84,541.39,902.11,540.81Zm-514.65-2.25c-13.19.25-13.08-20.24.23-19.5C400.87,516.63,397.78,539.07,387.46,538.56ZM322,535.28Zm0,0c-10.43.46-12.5-15.41,1.84-15.64C335.19,520.26,330.87,533.22,322,535.28ZM79.89,530c-20.16-2.71,4.07-29.27,8-10.14C87.13,528.39,84.31,530,79.89,530Zm-54.06-1.1c-19.28.13-8.38-29.35,5.44-16.28C34.46,515.76,31.5,531,25.83,528.89Zm717.75-17.32a4,4,0,0,1-4-3.59v.17c-7.37-33.52,13.92-44.47,34-14.53C777.42,500.63,754.41,500.59,743.58,511.57Zm187.64-4.33c-15.14.78-12.36-19.3.83-18.19C944.67,489.45,943.57,507.25,931.22,507.24ZM817.9,505.39c-13-.63-15.91-17.87-1.52-18.7,9.87-.15,15.67,18.73,1.51,18.7Zm57.47-.07c-16,1.67-9.32-22.86-.43-20.42C887.13,483.47,888.24,504.63,875.37,505.32ZM356,503.51c-11.35.77-9.34-19.65,1.54-18.29C370.56,485.21,369.07,505.73,356,503.51Zm55.71-2.26c-26.7.73,2.64-32.33,7.17-9.08C418.06,499.67,414.52,501.25,411.7,501.25Zm-363-.53C34.14,500.59,42,475.59,51.4,479,68,476.59,61.18,502,48.66,500.72Zm249.39-1c-12.62,1.12-5.58-18.39,2.83-16.82C312.87,483.17,310.89,500.55,298.05,499.69Zm-125.26-1.6c-17.7-2.27-6.34-25.15,6.49-15.67C182.47,486.5,180.27,499.19,172.79,498.09ZM110.69,497c-11.63-.38-11.09-17.64,1.73-16.95C122.43,481.13,120.57,498.13,110.69,497Zm126.89-2.18c-11.08-2.11-9.16-19.39,5.6-18C254.68,477.42,248.23,496.46,237.58,494.83Zm-94.87-22.67c-11.31.51-12.54-18.71.4-19.09C155.53,452.1,153.12,473.28,142.71,472.16Zm60.61-2.9c-13-.16-9.83-17.62,1.42-17.87C217.46,450.79,213.33,468.65,203.32,469.26Zm-122-.35c-12.65.25-5-20,4-17.89C98.36,451.4,92.73,470.52,81.35,468.91Zm-59.41-2c-13.1,1.37-10.39-19.94.93-18.1C33.94,448.52,32.75,467.74,21.94,466.87Zm155.94-23.61c-14.42-1.5-10.33-17.52-.24-18.2,13.8-1.67,10.69,18.87.24,18.2Zm63.7-.07c-19.92,1.57-7.37-26.49,5.51-16C252.59,432.45,245.79,445.46,241.58,443.19Zm-133.68-.55c-13-.7-8.39-23.95.64-21.56C124.48,420.18,119.15,443.67,107.9,442.64Zm-60.59-3.59c-12.35-1.57-7.84-18.87,3-17.92C64.86,422.25,58.93,439.39,47.31,439.05ZM521.1,420.27c-5.26-1.56-11-4.61-16.88-1-16.19-1.45-14.42-.83-26.69-9.41-29.64-4.6-33.55-16.13-19-41.51,9.55-7.84,18.86,14.73,28.65,16.87,27.29,12.45,68.24,13.47,90.8-8.8,23.68-29.77,32.83,22.2,11.1,27-6.37,1.91-9,6.89-15.29,5-5.21.41-7.17,7-13.3,6.15C547.07,417.22,534.68,417.92,521.1,420.27ZM763,403.49c-11.58,0-17.3-9.25-20.27-18.8-6.62-2.82-14.59.9-20.12-6.51-12.07-4.27-20.15,10-35.07-2-9.84,4.72-18.88,10.81-29.49,4.71-33,35.76-58.09-17.95-23-29.81a6,6,0,0,0,5.27-5.62c.89-20.44,22.13-8.1,32.61-17.52,12.13-9.8,22.07-.95,34.76-2.38,14.25-4.06,22,8.71,35.17,12C767.65,343,804.57,391.72,763,403.49ZM529.24,351.12C454,340.58,536.32,306,563.57,333.24,567.47,347.83,537.41,350.5,529.24,351.12Z"/><path class="cls-7" d="M870.05,1318.62C677.28,1295.18,651.38,979.91,640.1,827.78c1.9-11.8-3.9-33,5.46-40.73,7.51,2.54,12.31,37.41,21.34,15.12-2.59-52.69-21.94-101.68-27.74-153.3.52-16.36-26.19-2.49-34.93-11.68-6-4.27-9,4.41-15.37,3.7a6,6,0,0,0-5.54,8.15c1.66,7.66,18.41,20.24,24.45,18.54,16.37,2.35,9.13,27.27,15.48,38.78C647.52,766.14,616,818.2,616.36,882c-.71,5.79-11,3.12-9.34,10.77,2.71,16.35,4.24,33.46,6.2,49.78,2.15,32.21,16.4,74.41-15,95.33C558.16,981.15,540.15,904.09,541.83,833c-1.08-58.24,2.63-117.31-14.05-174C532.08,606.29,542,557,539,502.35c-15-51.45,49.29,7.71,59.44,24.58,19.26,62.77,30.23-11.77,52.78-2.68,6.65,12.35-5.59,20.7,1.83,30.2,5.24,7.45,37.65,10.25,13,20.35-17.36.4-22.93,2.58-23,21.56-.38,4.61-.24,11.4,6,11.38,8.81-1.52,16.38-.54,25.09-1.29,14.78-3.78,36.4,13.57,43.58,0,8.17-39.84-8.76-18.57-32.15-35.19,4.78-16.3,19.69-39.45,34.7-47.83,9.42,9.88-7.9,58,19.52,35.29,5.92-3.61.84-8.68-.48-13.3-3.11-19.39,8.86-41,28.54-44.64,20,7.53,5.41,37,12.48,50,16.67,17.27-.88,77.46,15.34,87.77,25-18.73,59.06-11.77,67.86,22.26,19.49,68.75-1.93,137.64,4.62,207.49.19,75.45,12.63,152.5,24.14,225.62-12.86,4-29.23-11.09-41.6-12-11.78,26.52,28.3,66.9-7,89.7-46.77,22.53,31.74,20.42,49.57,48.46C931.17,1248.32,924.47,1319.27,870.05,1318.62ZM772.1,810.24c48.63,64.5,44.79,168.52,68,246.24,3.46,7.62.29,24.35,11.25,24.61-3.25-174.22-55.78-273.62-54.1-291.71,9.71-15.59,10.61-31.12,19.7-44.22-1.73-23.32-1.68-60.25-23.8-76.17-9.69,1.34-5.68,15.53-8.37,22.4a218,218,0,0,1-21,63.21C775.55,776.64,756.92,810.32,772.1,810.24ZM494.18,1287.07c-52.5-21.46,86.42-103.84,77.43-63.58C553.63,1257.18,529.34,1281.8,494.18,1287.07ZM966.8,471.31c-47-11.19-100.72-1.32-150.39-5.09-20.19-3.51-59.8,13-52.87-19,3.23-23,6.45-4.92,1.42-30-9.24-26,36.25-4.82,14.07-51.41-3.91-15,47.88-3.18,59.15-6.66,42.51,1.36,78.25-4.06,119.35-.12h0c4.26.91,5.27-4.61,9-4.74,3.45.63,13.67-2.17,13.49,4v109C980.18,473.35,970.23,470.81,966.8,471.31Zm-351.86-4.74c-7,.38-3-15.27-4-18.82C616.76,432.38,644.7,469.05,614.94,466.57Zm-245.85-3.06c-124.67,5.34-73.47-68.35-131.32-58.46h0c-49.28.51-101.31-1.61-148,.43-27,.66-65.67-9.25-87.44,4.43-2.58.35-6.64-.49-6.41-4C1.37,402.59-17.32,250.43,8.28,272c70.89,7.91,149.47,3.29,222.69,6,42.82-.13,86.34.94,129.79.7,39.51-3.51,71.53,40.53,46,69.31-6.93,7.85,4.23,12.17,11.2,11.18,32.88,1.68,57.36-13.06,29.4,29.91-6.92,12.33,16.2,16.07,23.62,22,4.62.31,6.84,6.84,11.55,6.9,8.64.94,17.39,1.63,25.41,5.47,5,4.13,10.17-2.57,16.1-.33,6.43-1.69,14.83,2.18,20.09-1.86,8.27-2.31,17.9-8.36,27-5.5,7.34-3.82,14.48-9.15,22.5-13.4,16.72-7.78,5.55-23.91,1.79-36-1.52-8.21,5.41-6.23,13.6-7.94,20.28,4.09.78,32.09,2.71,43.24,15,33.8-44,40-65,48.14-38.28,8.28-75.34-11.55-107.83-21.55C431.45,479.73,447,458,369.09,463.51ZM476.35,200.65c-37.56-1.21-73.68-.22-111.52-.28-7.2-.56-13.57,2.51-17.77-3.9-11-16.43-16.27-36-33.72-44.1-17-22.82-53.1,2.89-63.91-25.09-4-16.64-13.94-13.56-29.92-14-40.8-3.47-21.3,14.22-45.48,25.8-24.22-9.84-38.78,9.87-58.67,18.57-6.52.74-5.69,9.13-8.75,13.51-9.1,29.5-35.69,28.46-61.82,27.85-12.88-2-43.25,4.34-48.79-3.4C-4.28,147.42-3.77,48.91-4,0c2.86-9.28,537.05-4.62,542.5-1.58-36.06,44.64-63.89,102-57.24,162.61C479.22,173.17,498.93,205.2,476.35,200.65Zm409.88-.24c-9.85-8.4,5.39-31.2,2.66-44,2.28-46-10.52-90.65-35.93-129C851,18,822.68,3.61,835-4c4,3.56,145.79-7,145,4-.27,63.94-.17,131.93,0,196C956.15,207.41,913.87,195.67,886.23,200.41Z"/><path class="cls-8" d="M993.59,159.17c-.09,5-2,6.15-8.28,4.62-30.43-.07-61.74.18-93.34-.12-5.74-1.34-21.6,2.91-21.51-5.57.18-5.47,6-4.49,8.2-4.22,36.39,2.81,72.77-.44,109.17.5C991.42,154.34,993.68,154.3,993.59,159.17Zm-8.49-93.1c-35.73,2.08-71.26,0-106.94.92-10.78,1-21.67-2.68-31.81,3.48,4.71,4,10.25,4.45,15.8,4.57,41.46.85,82.94,1.83,124.38-.27,3.78-.2,7.05,2.57,6.7-4.2S988.39,65.85,985.1,66.07Zm2.16,130.13c-33.64-.09-67.38-.88-101,.21-5.83,1.17-18.67-2.23-18.25,6.63-.09,3.88,3.2,2.15,4.81,2.16,19,.15,38,.1,56.93.1v1c19,0,38-.33,56.94.2,6.77.19,4.24-4.64,5.08-7.26C993,195.28,989.09,196.4,987.26,196.2ZM976,122.4c5.26-1.11,17.56,3.47,17.28-4.88,1.5-8.64-13.62-4.23-18.8-4.86-17.89,1.69-35.64-1.56-53.62.41-17.45,1.91-35.26,0-52.8-.07-1.39,0-3.94-.51-3.7,2,1.19,11.32,58.11,4.8,69.65,6.43v1Q955,122.38,976,122.4Zm-7.89,270.1c-.48,2.88-1.4,6.52-5.42,6.55-47.11,0-94.22.27-141.32,0-14.23-.25-46.75-2.2-53.93,11.91,5,3.62-3.1,13.51,5,13.67,44.56-.45,89.37-.05,133.86-.08,16.16-1.22,32.36,2.87,48.4-1.4,5.07-2.37,17,2.84,10,9.07-2.42,3.71-6.19,2-10,1.79-57.84.69-115.72-.84-173.52.9-15.86-3-12.85,9-14,17.27-.87,6.3-1.93,10.85,9.12,10.56,61-1.38,122,.92,183,.18,10.72-1.54,9,11.19.13,9.91-10.12-2.57-20.35-.16-30.45-.75a169.58,169.58,0,0,0-28.89.4c-24.87.48-50.5-.74-75.33,0-17.61-.9-35.2-.79-52.8-1.33-3-.09-6.86-1.11-8.15,2.43-.32.9,3.58,3.77,5.9,5.13,12.19,7.12,11.32,19.32,14,31,3.31,14.63-2.43,29.65,4.65,44.08,4.23,8.73,4.65,18.78,6.68,28.31.42,2-.53,3,2.74,1.44,20.48-7.53,48.93,14.93,44.8,37.56-.51,3.15,5.1,8.33,9,11,10.76,7.21,12.71,19.14,18.26,29.37,19.22,48.39,2.6,100.82,4.63,151.31-.17,40.37,2.74,80.42,4.28,120.68,1.47,45.81,11.16,90.42,14.69,136,0,10.16,3.63,20.31,5.62,30.47,1.15,5.85-3.51,6.89-6.31,5-12-8.23-26.62-11.11-40-18.08,6.68,16.28,5.75,33.27,10.21,49.17,4.4,19-10.24,37.63-25.65,47,69.29,14.15,124.74,92.68,57.13,147.82-7.36,6-14.23,12.1-24.35,12.54-1.35.06-2.64,1.51-3.95,2.31,22.8,5.24,45.33,12.11,66.45,22.24,29.14,24.4-47.69,53-65.14,58.93-18.09,6-37.15,9.14-55.78,13.55,31.59,15.12,63.08,35.81,83.94,64.92,21.26,29.86,43.08,59.29,53.85,94.85,12.57,21.46-40.66,2.76-47.93,0-41.61-22.07-80.66-46-116.86-77.24,9.16,17.18,17.79,34,25.46,51.68,1.88,5.33-15.9,7.14-19.77,5.8-62.2-16.62-107.26-63.26-155.54-103.13,2.85,17.9,20.29,97.2,7.9,105.67-6,6.34-12.18,2.6-18.2-.67-47.48-24.86-71.12-71.6-103.14-112.23-13.82,57.65-32.15,114.21-63.15,165-8.92,12.43-24.47-40-28.58-45.6-.8,10.49-.53,21.1-4.2,31.46-2,7.73-9.19,3.9-11.64,1.76-9.65-8.37-20.63-15-31-22.47-37.9-28.36-86.76-106.35-94.83-152.93-9.09,53.43-24.28,100-52.34,145.59-2.81,4.54-6.39,5.43-10.16,5.43-7.44.41-11.07-1.71-12.41-9-7.06-24-14.18-48.32-16-73.33-3.65-53.6-5.06-109.67,18.22-159.28,23.81-54.08,79.79-52.68,82.35,12.44,6.32,1.81,11.4-10.51,29.46-4.75,5.47,1.54,10.19.71,6.25-6-10.4-42.64-52.9-125.07-101.08-70.34-42.84,44.45-15.21,100.43-54.16,94-9.16-1.62-17.2-6.36-26.42-7.45-1.3-.15-3.22-7.22-2.45-10.53,6.92-26.92,17.81-120.92-34-85.93-14.69,11.19-24.79,26.31-30.15,44.26-3.67,12.29-17.65,17.19-28.37,9.8C34.28,1319.15,36,1313.6,46,1292.21c13.08-39.93,41.05-73.74,75.06-97.63,4.7-3.5-2.88-7.66-4.77-10.84-13.09-22-24.19-44.7-27.79-72.21-16.09,39-43.6,67-70.78,97.15-8.15,8.9-23.17,19.47-24.71-.13-2.08-12,5.2-22.39,6.31-33.66,1.42-14.53,8.74-27.4,12.15-41.38,3.79-15.62,11.19-30.39,17.3-45.42,6.41-25.09,55.61-66,64.28-21.12.79,3.54,2,1.64,3.1.53,11.35-11.24,30.57-1.56,37.25,10.13,13.7,20.8,10.37,45.56,19,67.17,2.5-27.09-2.81-54.57-1-81.79.65-11.09-4.79-12.67-12.69-13.94-43.26-7.32-84.75-21.58-126.82-33.69C2.27,1011.9-1.83,1005.55-3,996.17c-2.38-26.52,36-29.61,48.14-11.83,7.21,8,14.11,5.71,21.45,4.29,18.07-3.51,35.94-8.13,54-11.6,21.38-4.11,42.9-7.52,64.38-11.12,3.1-.51,2.06-2.74,1.92-4.17-1.56-16.08,7-23.39,21.77-24.87,8.94-.9,9.88-9.84,14.93-14.53,16.31-15.17,38.67-15.94,49.93,6.21,2.18,4.3,6.95,1.64,10.46,2.49,11.57,2.82,19.77,9.3,23.29,21.15,1.94,6.48,8.38,6,13.1,6.56,51.42,8.51,102.59,20.21,152.88,33.65-20-127.69-35-256.19-38.56-385.53-.2-37,.64-74.2-.09-110.94-3-18.91,5.47-33.42-19.93-26.53-53.58-1.62-135,8.72-151.75-58.65-81.27-4.87-169.11.1-252.52-1.8-11.58,2.21-9.25-8.81-1.09-9.77,79.87,1.72,160.32,2.52,240.46,1.32,31.21-8.24,15.84,44.21,66,54,37.83,8.68,76.52,3.26,114.81,4.3,5.76.15-.88-7.82,1.9-11.75.4-.56,0-4.1.29-6.42.6-4.18,1.14-8-6.16-7.78-47.52-.71-134.35,7.34-129.17-61.75.34-3.73-2.64-1.92-3.88-1.92-77.88.9-155.91-2.41-233.55-.53-16.75,1.2-33.73-.9-50.61-1.57a5.49,5.49,0,0,1-5.43-5.24c0-3.44,3.89-2.71,6.83-3.2,21.47-4.23,42.83,1.43,64.38-.05,26.48-1.82,53.29-.94,79.81.84,27.83-.88,55.2.36,83,1.44,99.65,2.54,51.87-11.45,74.41,35.95,16.63,36.83,83.5,22.94,117,26.13,3.17.05,6.23,0,3.76-4.63,8.73-22.44,1.11-20.15-16-19.37-24.63-.29-58.78,6.29-73.36-18.66-10.6-17.17-5.84-40.18,8.08-54.78C238.59,324,125.4,322.72,12.06,321.05.21,323.5,1,312.54,12,311.76c117.77,3,235.56.38,353.3,5.11,7.65-1.28,8.47,8.24,1.89,10-20,6-28.77,41.73-10,54.43,8.93,6,20.7,7.8,32.1,7.64,12.54-.18,25.51-2.1,37.5.46,16,3.43,21.08-4.21,24.38-17.06.82-3.17,3.47-5.87,5.71-9.47-12.28,0-24.36-.71-36.3.2s-24-5.27-36.18-.35c-9.51-4.7-.11-11.51,6.32-11.65,21.45-4.18,24.56-22.6,18.19-39.17-18.22-47.48-89.05-23.26-129.23-29.8-70.09-.16-140.16-.67-210.2-3.13-19-.13-38,0-56.93.15-3.92,0-5.54-2.27-7.44-4.75,2.26-1.16,4.58-3.41,6.78-3.3,24.61,1.16,39-12.46,48.22-33.23,4.76-10.74,14-18.68,17.55-30.27,1.72-5.57-2.45-2.69-3-2.69-21.41-.09-42.83.05-64.24.12-1.64,0-3.76.35-4.84-.51-3.17-2-9.79-4-5.53-9,2.18-2.31,6.25-1.28,10.08-1,15.7,1,31.49.39,47.25.37C84,196.94,97.4,188.33,105.86,163c-12-.15-24.23,1.72-36.47.85-19.82-.19-39.64-.69-59.46-.68-5.33,0-8.56-3.12-8.61-7.08,0-4.23,4.77-3.12,7.82-3.13,21.51-.12,43.11-1.32,64.5.22,12.61.9,24.91-2.6,37.66.17,10.3,2.24,15.84-8.49,23.58-13.27,11.22-7,23-9.18,35.41-5.61,2,.56,5.13,1,6.17-.1,3.42-3.51,6.12-7.72,9.1-11.66-53.44-3.83-107.76-.84-161.4-2.32-6.72-1.21-24.83,4.8-25.24-4.22.35-6.35,7.73-7.57,12.1-6.86,44.67,3.65,89.35-.25,134,.7,18.63.4,37.57,2.85,55.83.39,58.58-1.25,116.32,5,175,2.07,41.48-2.15,82.68,1.68,124.06.29,2.65,0,7.22-1.38,7.65,2.15.61,5-4.14,4-7.52,4.46-82.85,7.54-166.54.28-249.57,2.24,9.82,21.16,19.11,15.53,37.1,15.22,11.29.55,20.68,5.12,28.56,12.63,4.38,4.17,9.42,4.43,14.52,4.45,55.7.19,111.38-.52,167.06,1,7-.66,3.79,9.31-1.27,8.2-55.24-.21-109.83,1.48-165.32,1.17,8.5,8.37,12.91,19.85,19.36,30.08,2.11,3.35,5.55,2,8.13,2,46.7-.1,93.35-.8,140,.8,4.32.06,5.58,2.52,5.43,5.94-.18,4-3.61,2.09-5.42,2.12-44.82.61-89.65,1.17-134.48,1.4-6,0-7.54,1-4.83,6.8,13.19,28.37,26.67,56.35,49.6,78.8,14.92,14.62,14.85,33.59,9.76,52.42-2.09,7.76-.47,9.88,10.05,9,6.68-.58,13.33-1.83,19.91.86,1.1.45,2.7-.35,4.08-.57-7-21.45-9.11-43.53-.42-65.05,3.51-20.46,17.69-20.26,18.48.61,1.12,16,10.53,27.2,20.23,38.36,2.93,3.38,5.43-.35,7.54-1.81,17.63-12.12,36.3-13.49,55.2-4.22,24.94,16.61,30.44-18,33.07-38.71.41-3.11-.15-6.84,3.32-7.8,14.84.53,20.55,36.47,18.68,48.37-.9,9.81-1.68,20-7.13,28.84-.66,1.07-1,1.88.86,2.48,9.86,3.22,29.11-6.52,32.66-15.89,2.23-5.86,8.43-12,13.29-11.09,16.89,3,29-14,45.88-9.36,12.75,3.49,27.2-2.11,39,7.3,12.68,10.1,31.67,10.57,40.47,27.57,1.54,3,12.63,2.1,19.07,1.24,55.15-1.24,110.05-1.13,165.17-1.9,4.92-.45,8.65,2.29,8.41,5.9s-5.11,4.65-9.25,4.36c-11.33-.79-22.86-3-34-1.61-47.33,3-93.57,1.22-141.43,1.58C794,373.12,778.4,399,801.76,390.29c12.34-3.49,24.34,2.78,36-.06,13.61-3.31,27,.53,40.64-.29,13.14-.8,27-.28,40.48.22,7.25.26,14.83,1.09,21.71-.59,8.18-2,15.55,2.52,23.43,1C965,390.35,968.11,390.14,968.11,392.5ZM378.36,272c-28.1-41.51-38.15-113.34-93.82-126.84-8.76,0-21.66-1.05-13.5,12.3,2.52,5.14,10.72,17.84,4.28,22-3.62,1.69-5.65-2.29-7.07-5-5.29-10.05-11-20-15.21-30.48-8.34-21.06-39.17-32.24-56.39-17.58-13.47,11.47-16.2,31-25.42,46-2.23,3.63-3.74,10.29-7,9.88-3.7-.45-2.68-5.81-1.68-10.19.06-6.45,17.84-26.92,8-28.47-60.29-8.77-86.27,90.66-121.16,126.76,82.09,2.43,165,1.79,247.42,2.7,26,3.14,51.73-2.87,77.69,1.74C376.59,274.92,379.78,275.2,378.36,272ZM34.47,1135.55c13.32-24.57,25.16-50.23,36.15-76-15.4.31-25.63,16.49-31.4,29-14.66,35.06-26.65,71.17-37.4,107.61l2.88,1C13.36,1176,24.23,1156,34.47,1135.55Zm48.64-62.16c-.52-4.09-1.9-8.08-2.87-12.11-1,.79-2.38,1.38-2.82,2.39-4.88,11.19-9.22,22.63-14.46,33.65-15,31-31.06,61.49-44.31,93.34,8.15.61,7.2-7.64,11-11.28C54.11,1147.84,87.51,1117.57,83.11,1073.39Zm151.78,380.13c2.93-19.82,4.51-39.88,8.38-59.51,3.46-22.39,12.88-44.22,15.29-66.52-69.15,23.36-58.71,191.15-38.34,247.31C221.38,1534,228,1493.84,234.89,1453.52Zm32.85-126.68c-19.14,85-29.18,170.79-38.56,259.43,14.37-31.86,29.78-58.32,37.73-91.85,5.42-23,11.22-46.08,14.68-69.48C282.3,1386.29,300.52,1359.41,267.74,1326.84ZM621.22,429.53c.62,5.74.76,17.55,8.25,10.05,8.86-4.86-.14-11.85,1.62-18,1.47-5.12-.23-14.3,4.67-14.48,6.31-.32,1.77,11.78,3.86,16.55.37,2.86-1.8,7.87,3.66,7,14.34-1.56,3.93-21.24,5.83-30.71,1.21-11-14.12,7.48-28-4.68C621.15,406.36,621.05,417.94,621.22,429.53Zm37.19-42.42c-1.23,0-3.67-.8-3.19,1.65.95,4.89,1.12,12.46,4,13.85,4.41,2.1,3.36-4,3.72-7.36C662.38,392.17,664.74,387.23,658.41,387.11Zm24.65-1.49c-4.18,1.34-9.55,1.45-10.79,3.77-4.14,7.7,0,11.91,7.62,9.13C684.58,396.8,682.06,390,683.06,385.62Zm-20.2,25.47c-6.65,2.16-3.62,7.84-3.56,11.85.08,4.6,2-.26,3.24-.05,5.92,2.25,20.72-1.36,20.55,7.63.12,5.34-9.87.46-13.33,1.49-4.4.1-11.79-3.52-12.34,3.29-1.7,21.25-1.13,41.87,17.9,57.53,13.14,10.81,46.39,4,53.93-11.47,4-8.31,3.33-16.35,3.75-25.75-3.39-4.84,6.32-15.48-5.75-17.52-5.34-.91-4.88-9-12.56-6.44-14.31,4.73-15.54,15.42-15.64,27.46,0,1.89.63,4-2.72,4-5.23.29-2.82-5.19-3.84-8.36-1-15.42,3.8-30.08,23.56-31.8,2.05-.18,2.86-.62,2.94-2.84.24-6.56-.2-9.63-9.28-10C694,409.62,678.42,406,662.86,411.09Zm30.52-12.35c.81.66,5,1.71,5.33-1.29.69-6,2.2-13.08-7.85-13.89C692.58,388.58,688.17,394.48,693.38,398.74Zm13.5-8.76c.45,6.68,1.47,14.78,7.8,12,6-2.66,3.62-12.46,4.83-19.14.08-.45-1-1.11-1.58-1.68C714.8,385,705.75,382.51,706.88,390Zm41.28,46.29c-1.32,6.69,5.7,6.81,10.46,6.14,3.85-4.42,2.1-26.09,2.11-33-15.94.89-14.75-24.1-32.13-20.77-.54.1-1.47-1.89-4-5.23.94,15,2.05,27,2.23,38.88,0,7.44,8.41,10,13.27,6.24,2.12-2,.27-4.88-.64-7.36-1.44-3.9,2-6.76,5.19-7.38A2.17,2.17,0,0,1,747,416C747.57,422.7,751,429.19,748.16,436.27ZM712.09,597.9c11-20-42.25-17.92-53-16.62-5.83.57-12.82,2.33-9.69,11.38-2.92,9.54,3.41,9.44,9.12,8C695.34,591.34,713.61,620.1,712.09,597.9Zm-3,22c.77-4.56.65-4.07-2.79-4.89-13.5-3.2-27.1-5.57-41-4.06-8,.86-21.76-4.09-17,12.73,1.63,5.72-5.1,14.46,6.27,17.47,12.71,3.36,25.09,8,37.46,12.56,4.69,1.73,17-5.06,17-10.13C709.13,635.66,709.1,627.76,709.1,619.87Zm5.59-45.14c7.53-14.79,3.83-31.38,4.2-47.55C707.3,541,696.7,553.57,689.26,569.73c3.39,1,6.74,2.46,10.2,2.84C704.75,573.16,711.87,580.26,714.69,574.73Zm5.72-72.87c-1.76-2.21-3.65,1.22-5.51,2.1-7.6,3.59-16,8.47-23.79,5.84-20-6.71-17.15,5.58-15.88,14.86-.69,15.05-.61,25.49,5.72,37.51,10.65-19.24,25.17-35.66,38.51-53C720.82,507.37,721.51,503.23,720.41,501.86Zm-72,35.09c1.1-3.08,1.61-8.13-.1-10-2-2.17-3.85,2.71-6.16,3.76-9,4.11-9.84,15.71-18.52,20.23-.83.44-.86,3.95-.15,5.53,3.47,6,13.68,42.16,5.45,44.4-8.66,4.65-5.85-31.86-23.82-51,0,22.07-.6,44.16.37,66.18.29,6.7-6.86,17.45,6.53,20.05,4.92.25,26.64,3.73,26.31-3-1.47-12.43,1.11-24.51.81-36.78.25-20.2,6.26-25.24,26.91-25.51,1.56,0,3.1-1.82,4.65-2.79-1.09-1.65-2.13-2.9-4.57-3C650.59,564.17,643.08,551.83,648.36,537Zm-98,373.59c9.9,43.48,26.61,84.07,47.83,123.34,6.33-10.59,18-18.54,16.65-32.93-1.64-17.14-3-34.39-4.9-51.39-2.46-23.66-5.58-47.41-9-71-9.34-69.87-5.14-140.26-5.16-210.51-1.48-5.85-10.35-1.49-15.87-16.68-9.69-24.32,15.2-6,15.13-21.84.37-23.29,1.65-46.57,1.89-69.86.1-10.26,3.62-21.84-1.94-30.65-12.77-20.27-32.41-33.11-54.35-44.85,8.49,58.28-4,116.45-9,173.89C555.47,740.43,538.93,826.76,550.41,910.54ZM634.94,650c0-1.71-.38-2.91-2.45-2.9-15.06,0-30.12,0-45.06,0,8,13.89,22,16.12,35.2,19.81,9.32,2.61,18.5,5.3,12.41-10.47C634.31,654.54,634.9,652.14,634.94,650ZM601,503.89c1.49-22.2,3.1-44.38,4.7-67.18,0-.26,1-2.56-1-1.6-34.51,11-24.87,21-47.79,40.9-3.32,2.65-.31,3.73,1.15,4.82,9.47,7,20.22,12.37,28.14,21.48C591.78,507.21,600.07,522.21,601,503.89Zm-36.2-50.15c-7.7-.69-15.14,3.18-22.76,3.17-17.55.51-35.22,1.66-52.39-3.75-1.27-.4-2.87.24-4.32.4C498.21,486.09,550.18,483.38,564.76,453.74Zm-55.54,31.95c5.38,9.67,15.92,16.07,23.24,24.29C539.06,483.81,527,488.31,509.22,485.69Zm10.1,40.71c.72,37.19.32,74.48,6,111.34l1.45,0c3.6-39.6,5.21-79.67,7.55-119.21-5,2.27-8.43-1.88-12.53-3.28C520.92,519,519.26,522.7,519.32,526.4Zm98.94,297.87c3-26.17,13-54.06,12-79.95-8.13-18.37-10.34-38.08-15.69-57-1.55-5.47,2.47-17.17-8.69-15.57-5.23.76-.49,9.14-.46,13.88-.3,66.71-2.48,129.24,7,196.23C613.23,860.45,615.59,842.39,618.26,824.27Zm23.85-72.82c5.25,13.7,7.87,28.46,17.66,44.81-2-38.93-11.67-70.72-17.56-108.17-1.75-10.53-9.21-13.69-16.58-12.42-6.91,1.19-.39,7.86-.57,12.08C630,709.1,634.51,731,642.11,751.45Zm-29-271.22a106.26,106.26,0,0,0-1.69,16.58c-.1,16.24-9.84,33.81,6.73,47.12,5.63-6.09,8.52-15,16.21-20.38,5-3.52,12.24-6.7,13.93-11.6,2.52-7.33,1.14-16,1.23-24.16,0-4.82-1.49-7.65-7.44-6.9-5.19.67-12.77,2.68-14.33-4.3-2.07-9.24-8.5-5.61-12.64-5.12C610.66,472,613.67,477.18,613.16,480.23Zm1.78-17.66a8.63,8.63,0,0,1,9.33-.62c-.74-6.44-1.9-12.25-9.33-14.2Zm-15.73-98.65c.41,2.07.13,4.81,1.36,6.09,5.52,6.48,4.34,15.27,7.61,22.8,5.66-2.39.73-7.67,3.85-11.59-2.37-5.86,8.67-15.26-3-18.82Zm-95.39-24.76c17.87,11.59,41.63,10.85,56.95-3.06-7.12-6.47-21.75-9.48-31.5-9-9.52-1.35-17,3.86-25.15,7.35C499.83,336.33,499.88,336.52,503.82,339.16ZM466.18,357c43.87,67.06,156.35,17.3,129.68-60.8-22.1,86.41-114,78.75-136.51-2.09C456.67,315.85,453.31,337.38,466.18,357Zm-8.13,41.94c4.57,1.86,9.08,3.87,13.54,6,2.83,1.35,4.84,2.73,5.67-2.24.11-2.18,1.34-6.79,5.35-5.71,4.76.88,1.66,4.54,2.37,6.82-.87,14.14,9.51,8.89,17.18,11,8.12,3.27,1.69-10.58,10.06-10,2.67-.2,2.9,1.87,3,3.95,1.89,14.09,12.19,3.58,18.22,5.8,5.76,2.13,2.32-4.28,3.53-6.62.86-1.65,1.79-3.26,2.68-4.88,1,.8,3,1.63,3.13,2.6,1.66,14.08,11,4.07,16.53,4.87,4.18.61,9.21-1.83,7.69-8.48-1-3.42,4.38-6.94,5.95-3.07.82,5.63,3.44,7.81,8.23,3.86,5.54-4.56,18.15-3.37,15.07-14.54-1.07-3.89,5-30-15.33-9.07-23.95,23.58-65.78,22.64-94.55,10-9.79-4.52-16-13.63-24.09-19.33-2.28,5.38-4.66,10.35-6.51,15.52C454.05,390.21,450,395.63,458.05,398.9Zm-13.41,23.58c39.31,26.27,92.94,33,136.24,12.38,12.92-7.23,39.85-12.6,27.07-31.89-4-7.25-7.9.06-10.94,2-4.89,3.15-9.6,6.33-15.14,8.34-5.71,2.29,1.6,6.34-4.11,14.06-1.44,1.1-4.15-.14-5.09-2.1-6.43-14.53-15.51-.48-23.31-1.82-4.65-.8-1.4,4.83-2.23,7.42-.86,2.74-3.63,4.73-5,2-4-10.33-12.3-4.7-18.74-5.77-6.21-1-9.7.89-8.35,7.88,1.06,7.69-6.86,4.6-7.82.69,2.26-15.12-10.76-9.34-17-12.35-11.5-6.55-5.83,8.1-12.42,5.53-2-1.29-5-4.83-4.57-5.62,4.52-7.82-3.19-7.49-6.34-9.53A77.07,77.07,0,0,0,451.65,406c-1.78-.65-4.19-6.2-5.46-1.66C444.56,410.15,438.85,418.48,444.64,422.48Zm37.76,562.1c1.21,6.14,4.81,3.88,8.06,1.4,13.19-12.09,44.6-4,40,16.53-26.19,46.53-56.4-10.94-13.92,78.36,18.18,38.87,46,72.62,74.12,103.7.34,21.24-12.52,40.81-23.34,58.56-18.47,27.38-41.31,47.67-76,50.51,12.62,22.15,44.17,12.14,63.56,5.49,45.83-13.16,82.6-44.27,112.69-80.26,5.94-7,12.67-11.19,6.3-24-26.48-55.57-43.24-112.34-56.08-173.63-14.9,26.12-19.51,12.47-6.82,45.89,9.85,33.29,19.39,66.65,30.31,99.6.57,1.8.54,3.92-1.79,4.22-1.76.23-3.59,1-4.86-2.31-18-41.2-29.06-84.47-43.29-126.85C565.14,984,531.71,927.3,535.12,861.63c-1.55-63.16,3.89-127.4-10.7-189.49-3.5-15.68-8.32-31.09-11.3-46.86-3.4-18-1.7-36.36-2.52-54.53-.8-17.63.38-34.92,2.12-52.35.32-3.28,5-6.23,1.93-9.11-14.11-13.17-20.18-32.4-34.55-45.27-5.67-5.08-4.57-15.62-11.93-18-9.36-3.16-16.68-9.33-25.73-12.64C445,617.16,448.51,802.94,482.4,984.58Zm124.2,389.2c20.34-11.34,57.7,4.07,76.43,15.44,1.07.67,3.1,2.9,3.46,1,18.57-50.74,59.16-55.39,107-58.32a232.72,232.72,0,0,1-55.74-44c-6.2,7.4-2.24,18.74-10.63,26.2-12,10.68-23.93,20.35-41.4,19.15-5.38-.37-10.61-7.54-16.56,1.83-10,15.79-29.81,20.75-47,11.41-42.4-19.61-20.09-63.12-43.53-45.13-28.22,9.75-60.89,26.89-89.45,8.09-.1,22.3,11.2,28.49-19.72,33.34-45.93,7.69-21-50.79-53.85-74.16-45.92-32.85-55.62,35.22-43,64.67,7.42,24.71.91,33.69-23.36,42.49,33.55,34.44,45.76,76.9,63.63,121.78-.93-39.78,12.28-141.34,61.83-144.63,14.31-1.08,19.52,7.46,30.29,15.49a4.29,4.29,0,0,0,1.8-2c3.89-14.56,16.44-20.37,28.42-22.94,26.84-5.78,46,9.68,62.57,28.22C601.09,1375.46,602.89,1377.58,606.6,1373.78Zm-171-170.51c17.2,16,29.91,36.69,39.46,59.09.74,2,2.67,4,3.42,1.17,10.64-31.55,55.41-56.35,88-56.52,2.65,0,5.68,2.19,7.84,1.42,5.17-1.84,7.92-20.88,4-25.17-38.64-40.1-69.19-87.82-88.35-140.16-2.19-5.71-3.25-15.78-14.54-11.9-13.48,4.2-28.7,2.11-42,4.68-21.82,6.61-44.56,4.06-66.23,10,3.11,10.89.56,22,1.11,33a311.4,311.4,0,0,1-.51,40.87c-.92,11.13-.85,20,11.53,25.47,34.39,14.12,14.14,27.74,27.51,37.42A133.71,133.71,0,0,1,435.63,1203.27Zm-294.79-10.64c22.76,15.08,45.34,32.63,75.16,30.92,29.61-2.48,59.64-1.68,89.38-.13,13.62.71,23.3-5.36,34-10.93,15-7.83,28.33-18.92,44.9-23.72,11.8-3.42,9.81-13.23,7.9-20.59-1-3.9-5.87,2.87-9.63,3.16-56.08,40.66-85.75,35.47-152.26,35.58-17.62-.25-35.65,3.8-51.77-9.52-11.56-9.56-25.89-15.76-39.84-24C140.5,1179.93,135.86,1187.63,140.84,1192.63Zm347.09,78.85c-1.69,18.6,15.41,9.8,25,6.46,25.28-11.91,42.51-31.77,55.09-56.28,2.36-4.6,1-5-3-4.59C537.5,1220.69,492.55,1242.05,487.93,1271.48Zm116.93,22.92c1.85-6.18-3.7-6.74-5.59-1.5.43,6.64-.82,15,2.71,19.54,10.44,13.28,18.92,30,41.24,27.22,12.39-1.52,19.07-5.65,19.47-17.3-11.28,11.26-27.44,11.42-38.7,2C614.25,1317.33,604.74,1308.56,604.86,1294.4Zm44.92,23.24c9.31-4,15.33-22,12.06-36.48-3.28,6.22-8.12,10.27-10.46,16.75C649,1304.67,653.32,1311.16,649.78,1317.64Zm-1-61.62c-3.5-2-4.72,3.26-7,5.08-19.33,15.41-19.15,15.31-8.44,22.68,17.4,15.87,12.95-6.46,26.55-11.39C661,1263.17,654.72,1259.33,648.79,1256Zm-32.58,30.92c-3.48-1.14-3,.94-3.14,2.46-.75,10.39,14.46,28.35,25,29.47,1.21.13,2.58.5,2.86-1.66C642.5,1305,628.07,1287.74,616.21,1286.94Zm74.33-8.35c8.06-16.44-4.78-5.35-17.51-12l-3.81,1.54c1.82,1.3.86,5.18,4.54,4.79C680.33,1271.82,685.48,1274.67,690.54,1278.59Zm-15.69,2.59c-1-.29-3.5,1.06-3.45,1.33,1.53,8.89,5,16.19,16.89,16.83.06,0,1.42-.61,1.45-1.26C690.21,1287.75,683.29,1283.68,674.85,1281.18Zm51.2,3c-11.86,24.22-29.15,33.07-54.12,22C673,1338.65,729.09,1323.41,726.05,1284.2Zm-13.53-16.78c-10.69,3.75-16.16,19-12.62,29.07,2.41,1.85,3.84-1.83,5.82-2.93C714.14,1288.55,716.81,1275.52,712.52,1267.42ZM705,1246.35c-34.28-47.47-9-35.43-50.35,1.71,13.9,9.58,29.69,10.32,45.77,8.74C707,1256.15,710.44,1253.64,705,1246.35ZM195,958.91c4.33,17.45,39.34,15.44,54.68,15.93,10,1.54,46.16-2.5,48.93-14.43,2.08-9.62-4.93-15.3-12.73-19.64-6.69-3.67-15.82-1.23-20.72-8.46-9.24-13.55-18.57-14.87-32.54-6.15-7,4.39-10.77,12.74-17.46,17.56C208.6,949.9,192.05,943.91,195,958.91Zm-27.74,83.46c45.23-.72,90.83-2,136.19-1.6,12.64-1.7,58.37,3.32,61.1-10.43,1.79-5.89,1-10.92-4.74-15.67-12-12.17-28.92,6.46-30.91-2.67,3.82-6.38,11.33-8.16,18.12-9.89,19.41-5.58,36.21,18.76,24,34.58,18-.94,36.21-4.39,53.65-8.54,27.13-3.07,54.17-5.71,80.18-15.09,24.21-6.53,17.73-31.65-5.92-21.93-24.47,17.24-35.27,7.34-61,1.46-19.41-3.59-38.47-9.07-57.74-13.48-15-3.43-30-8-45.16-9.16-11.37-.88-22.75-11.07-35.41,2.51-18.2,17.46-65,12.21-89,8.4-7.37-1.46-14.54-7.86-21.37-7.25-16.83,1.49-33.44,5.64-50.09,8.93-10.71,2.12-21.6,3.81-31.94,7.16-13.51,4.28-28,3.86-41.32,9.5-8.26,2.94-17.85,4.86-25-5.25-5.66-8-12.51-15.22-23.81-12.77-5.49,1.19-11,4.39-11.81,10.09-.9,6.45-.52,13.28,7.81,15.72,41,11.9,80.27,24,122,34.34-13.79-23.28,5.9-41.15,28.61-33.18,3.64.77,9.07,3.81,9,7.68-1.58,8.63-6.71.53-10.73-.39-6.07-.41-13.19-2.87-18.16,1.94-4.26,4.12-5.65,10.93-2.59,16C147.09,1042.94,158.49,1041.68,167.24,1042.37Zm153.82,99c-.18,10-3.47,23.75,14.33,11.56,7.33-5,20.3-5.1,21.13-15.7,2.3-29.37,2.62-58.9,3.66-88.37,0-1.32.31-3-2.26-2.85-9.38.6-18.78.77-28.15,1.53-4.82.38-9.7.72-8.84,8.37C323.94,1084.37,320.22,1112.88,321.06,1141.38Zm-10.09-5.1c.88-24,2.09-47.92,2.77-71.89.26-9.37.07-18.23-14.5-15.71-8.12,1.4-16.54,4.55-25.26,1.65-7.3-2.42-14.77,1.16-22.54-.38s-16.34,1.72-24.18.45c-13.21-2.15-21.8,3-21.25,15,1.21,26.55,2.54,53.09,3.82,79.63l-.77,0c.56,9.61-4.09,20.09,10.4,18,8.38-.93,17.06-1,25.32-1.6,19.87-1.53,39.5,1.46,59.24.65,5.84-.23,7.64-1.27,7.05-7.18A137.26,137.26,0,0,1,311,1136.28Zm-150.49-64.72c2.13,23.22,2,46.65,2.53,70,.06,2.4.47,4.63,2.82,5.21,12,2.67,20.82,11.91,32.48,14.89,1.49-33.72.53-67.79.31-101.59.36-14.13-10.36-7.63-20.06-9-2.24.61-22-1.56-19.06,1.52C162.28,1058.8,159.91,1065.26,160.48,1071.56Zm-13.89,93.94c55.54,32.91,46,33.92,111.75,29.65,80.72.66,56.27,1.58,127.51-37.29-12,1.24-15.06-13.55-27.29-7.51-18.6,9.2-35.84,21.49-58.49,20.73-29.77-1-59.62-.4-89.42.13-26.14,3.64-46.12-31.36-64.37-10.18C144.87,1162.66,141.79,1163.51,146.59,1165.5Zm-38.87-87.39q13.52,33.69,27,67.36c1.14,2.84.09,8,4.57,7.51,7.25-.72,1.69-6,1.48-8.41-3.09-18.77-7-68.41-29.62-71.58C106.21,1072.39,106.45,1074.94,107.72,1078.11Zm18.19,106.77c.41.86,1.68,1.32,2.55,2,4.66-6.86-2.22-15.64,2.75-22.21-11-27.59-22.29-55.07-30.3-83.87-1.09-3.16-2.91-2-3.52-.09C89.31,1117.66,111.65,1152.48,125.91,1184.88Zm212.88,162.53c2.62,16.18,6,20.69,17.76,15.18,3.73-1.74,9.85-3.12,10.6-8.37-.3-8-5-16.14-6.11-24.22-2.65-21.78-8.29-50.68,7.06-68.59,40.19-40.7,80.75,20.42,81.83,60.72.37,3.54-.9,9.16,3.07,10.48,6.29,2.27,28.89,5.33,28-4.7-5.23-43.22-20.83-88.25-54-117.07q-5.81-5.27-12.22-10.12c-5.58-4.22-11.19-13.11-20.94-7.56-17.2,9.78-34.3,19.72-51.55,29.42-25.43,16.86-2.5,24.71-5.78,38.58-4.43,5.28-6-5-9.7-6.55-7.33-5.17,2.06-19.88-16.61-20.69-32.47-1.41-64.81,1.64-97.22.24-21.88-5-18.58,7.72-26.4,24.13-2.08,6-7.74,2.64-9.09-2.15-1.42-11.82,15.69-24.08-2.2-32.21-12.21-5.53-23-14.12-35-20.2-3.1-1.58-5.34-7.53-9.46-4.69-14.37,9.91-28.22,20.85-39.1,34.51-16,20.11-30.66,41.46-38.4,66.5-2.2,7.12-10.33,16.48,3.88,20,6.76,1.67,15.54,12.42,20.65.66,3.72-8.54,6.3-17.69,11-26,17.67-31.64,62.16-53.27,74.26-5.3,2.78,22.58,2.5,44.8-3.71,66.93-1,3.6-5.13,10.89,3.89,12.57,6.17-.37,29.55,10,28.25-.92.48-45.8,35.64-122.91,91.87-103.58C314,1281.09,332.16,1314.18,338.79,1347.41ZM403.29,1602c-42.44-70.22-61.07-151.8-99.53-224.1-7,4.3-5.84,11.47-7.08,18.23-3.5,19.06-5.42,38.36,1.17,56.6C319.18,1509.88,351.63,1567.17,403.29,1602Zm14.62-2c.49-5.86,1.72-11.88.64-17.44-3.47-17.75-3.07-35.93-7.38-53.62-8-32.72-55.84-175.76-99.6-153.16,24.05,34.25,33.64,75.68,50.58,113.44,7.65,17.39,13.17,35.62,22.62,52.36,12.21,19.41,18.88,42.85,32,61.26A3.23,3.23,0,0,0,417.91,1600Zm31.15,12c-2.59-31.67,2.45-62.31,3.8-93.8a736.23,736.23,0,0,1,19.64-154.66c-21.46,1.38-28.9,30.31-36.26,47.23C411.66,1476.79,426.26,1547.2,449.06,1612Zm64.21-191.85c-.14-20.49-10.68-35.21-22.31-49.76-2.06-2.58-8.92-10.83-11.21-1.8a1319.3,1319.3,0,0,0-20.12,242c5.24-3.14,6.4-10.4,9.4-15.49C492.3,1539.55,512.31,1481,513.27,1420.1Zm120.87,155.55c-37.63-69.71-70.43-141.3-107.3-211.4-4.88-14.58-16.92,12.54-13.32,17.54,18.44,26,3.68,56.74,18.83,83.33C561.48,1507.19,587.28,1549.92,634.14,1575.65Zm-4.33-64a411.42,411.42,0,0,0-23.12-97.37c-4.87-13.31-9.15-28.61-18.65-38-14.71-14.59-31.18-31.91-56.35-20.25,38.72,64.69,70.14,133.49,104.88,200.85C634.33,1541.84,631.06,1526.9,629.81,1511.65Zm-12.95-104.14c.4,3.67-.05,6,.91,7.28,4.8,6.29,4.6,14.2,7.3,21.14,9.32,39.48,23.92,35.5,49.28,61.57,36.71,33.69,75.68,62.63,124.85,76.35C730.49,1525.08,675.37,1465.78,616.86,1407.51Zm163.63,124.61c-30.7-58.41-94-170.71-173-147.52-1.24,7.41,21.89,17.6,26.67,24.78,49.77,53.33,103.42,104.32,159.92,150.45C789.54,1550.68,785.12,1541.35,780.49,1532.12Zm156,66.19c-12.13-5.16-19.14-14.53-27-22.31-50.23-42.8-98.64-92.7-159.89-118.54,0,1.07-.44,2.51.08,3.16,15.43,18.91,23.68,42.33,45.17,57.93C839.54,1547.09,882.28,1590.48,936.44,1598.31ZM806.61,1447c-14.89-8.46-29.61,2.52-47.57,1.1,67.91,36.63,121.56,85.5,174.3,137.64C907.24,1527.31,865.46,1474.7,806.61,1447Zm122.79-66.42c-73.14,14.6-143.45,29.19-216.76,31.91,5.68,6.57,9.25,13,14.7,16.29,4.61,2.78,3.71,10.58,10.31,10.15C804.66,1432.75,874.52,1423.88,929.4,1380.53Zm-118.78-36.25c-39.84-2.28-89-.63-110.08,38.89-2.85,4.54-7.06,10-4.86,14.87,5.53,10.56,41.92.81,55.83,1.14,26.45-5.65,55.67-4.89,82.47-11.83,27.79-6.61,57.24-7.12,84.84-13.77-.49-.76-.83-2-1.5-2.21-14.86-4.83-29.53-10.45-44.68-14.07C852.12,1352.4,831.87,1346.34,810.62,1344.28Zm68.12-18.34c-5.58-3.25-11.09,3.13-16.2,1.1-52.58-5.6-92.16-44.93-122-85.28-28.56-34.93-43-77.72-58.5-119.4-12-29-16.61-60-23.5-90.32-17.24-78.07-26-158-23.08-237.95-3-1.64-3.72,7.79-4.11,9.4-6.15,35.77-9.14,72-10.43,108.22-3.83,54.3,6.56,107,18.77,159.66,23.8,82.22,55.78,166.68,121.67,224.59,27.36,27.32,62.76,46.43,102.51,38.69C868.89,1333.34,875.08,1330.05,878.74,1325.94ZM800.28,1190.6c-11.9-.13-23.21,5.93-34.45,3.89-57.35-14-62.38-140-76.66-188.61-8.58-41.17-13.83-83.26-19.75-124.92-.86-32.41-11.11-59.72-23.86-89.91-3.18,38.79-.12,75.44,4.5,113.66,5.78,52.38,12.13,104.56,25.12,155.75,6.08,32.35,17.42,62.94,29.78,93.32,8,22.91,17.23,45.17,31.06,65.25,25.41,36.21,54.2,74.49,97.24,90.28,19.63,4.29,45,10.54,62.1-1.93,45.17-38.23-.32-94-42.5-108.07A173.06,173.06,0,0,0,800.28,1190.6ZM797.1,610.17c-.88,39.62.77,14.32,24.38,10.19,12.52.06,12.35-6.52,4.43-16.08-5.67-12.83-17.36-10-26.65-8.53C794.2,596.54,798.13,605.19,797.1,610.17ZM785,718.9c-2.93,11.77-10.44,22.19-10.08,35,.26,9.23,1.74,18.88-.36,27.61-2.52,10.44-3.63,19.28,3.71,26.6,4.51,3.82,10.81,7.84,12.36,14.06,5.45,18.25,14,35.27,19.11,53.81,14.36,55,23.59,110.9,33.68,166.68,3.06,38.35,13.48,37.82,45.56,49-12.26-60.62-20.87-124.46-23.73-187,.37-32-4.77-63.75-.8-95.89,2.85-20.75-.45-42.28.82-63.24,9.63-38.79-1.43-141.53-61.65-106.5-14.13,10.47-6.17,25.64,1.94,36.65,12.84,23.13,15.11,48.21,15.49,73.81.87,6-7.27,8-7.88,1.56-5.67-24.84-4.06-50.91-18.58-73.41C791.35,691.83,788.4,705.41,785,718.9Zm-16.9-166.71c-14.28,3.4-31.24,9.28-38.49,21.82-9.06,16.27-7.93,35.6-8.6,54-.21,5.82-1.19,11.8,7.57,5.15,3.77-2.7,25.11-14.66,26.82-9.44,2.8,4.49-3.84,6-7,8.13-11.87,7.89-24,15.44-35.83,23.37-3.33,2.22-6.65,4.73-1.41,9.2,9.23,7.86,18.16,16.23,19,29.53,1.83,9.67-8.54,10.85-9.19,1.58,0-14.56-11.51-19.74-21.1-26.45-15.06-10.55-33.34-13-50-19.45-3.22-1.24-8.58-2.9-6.93,4.7,2.9,13.32,5.59,26.68,8.41,40,28,111.59,26.6,228,54.91,339.66,4.27,28.14,26,164.56,67.36,149.6,14.68-6.18,26.73-15.37,37.58-26.63,1.57-1.63,3.33-3.88,6.27-2.17,3.85,2.25.11,4.15-.62,5.61-3.86,7.8-11.32,12.22-18.7,18.26,24.14,3.12,58.79-8.9,56.23-37.36-5.39-28.1-12.39-56-18.21-84-14.24-58.62-20.87-118.67-37.1-176.82-4.39-21.94-13.42-42.06-22.35-62.27-.75-1.71-3.09-2.71-4.7-4-5.81,17.66-5.51,102.12-22.64,107.13-7.07-1.05,4-27.52,2.86-33.64,4.15-41.22,11.17-79.92,12-121.69-4.82,7.93-26.55,49.91-34.33,44.46-1.11-.85-1.18-4.68-.25-6.33,21.71-35.86,45.53-70.86,51.22-113.42,6.34-39.5,6.2-80.69,1.27-120.35C781.79,562.13,782.59,550.08,768.14,552.19Zm-2.95-46.79c-14.12,6-21.11,17-22.4,31.88.42,10.23.52,10.39,3.17,8.84,8-4.69,16.32-6.59,25.38-3.55,1.31.43,3.34,1.25,3.47-1.09C774.82,534.49,777.3,500.9,765.19,505.4Zm-9.13-23.26c-3.49-1.19-12-5.15-12.33,3a69.82,69.82,0,0,0-.15,22.46c7.43-7.18,16-11.68,26.4-12.11C767.88,489.65,761.12,484.6,756.06,482.14Zm20.46-108.78c-3.57-4.25-8-8.22-10.13-13.16-8.55-19.46-31.45-17.09-44.48-29.15-8.18-5.42-17.41,1.69-25.68-2.15-7.63-3.55-14.26-2-21.23,2.42-4.73,3-9.37,6.72-16.44,4.86-10.19-2.68-16.41,4.75-13.69,15,2.56,10.27-20.43-6.14-22,20-2.65,23,22.92,22.89,30,4.4.66-1.48-1.12-4.28,1.55-4.46,7,1.54,7.35,11.71,17.32,7.77,4.82-1.74,10.47-2.53,11.33-9.32.78-3.25,5.24-2.84,6.69-.59,12.6,21.83,26.62-6.37,34.63,5.19,9.79,10.77,14.73,3.7,25.36-2.6,5.07-2.83,5.42,2.41,4.94,4.07-5.45,10.73-10.8,17.54,3.62,22.71C769.48,404.49,784.79,382.07,776.52,373.36Zm41-346.08c27.12.4,54.16-1.34,81.24,1.22,17.48,1.65,35.43-1.76,53-.37,11.48.9,22.91-3.4,34.1.47,3.5,1.2,5.5-.09,5.41-4.46-.08-4.6,0-7.83-6.37-7.32-55.64,4.08-111.54,1.47-167.28,2.09-3,0-6-.1-9,4.64C811.1,26.75,813.05,27.21,817.52,27.28Zm-256.38,35c13.9-7.07,14.83-27,31.63-30.17,12.58-2.39,16.16-16.94,28.5-20.18,7.5-2,14.7-4.29,21.92-.7,9,5.72-15.2,23.65,9.61,33.79,9.6,3.49,19.12,4.81,26.53-6.68,6.88-10.68-.5-16.87-4.54-24.44C670.8,8.47,663.05,6,670.5,0h64.57c9.17,3.86,15.36,15.27,25.55,16.76,9.85,2.23,15,9.79,19,17.42,3.46,6.5-3.8,7.39-7.87,8.77C759,47.28,752.44,62.51,759.21,73.29c7.42,13.47,36,9.34,35.89-7.57,0-2.24,2.65-6.51,2.93-6.42,4,1.34,8.26,2.62,11.47,5.17,8.51,6.76,15.1,15.23,14.19,26.75-.69,8.89,7.87,13.3,8.71,21.79a31.9,31.9,0,0,1-1.55,13.15c-3,9.37,3.35,17.48,2.38,26.48-.45,6.3-5.81,30.68-14.71,19.7-11.16-20.43-35.9-11.14-36.78,10.52-.75,7.69,16.88,19.33,24.65,15.77,8.35-3.84,8.65-.95,10.05,6.82,1.76,9.82.27,20.27-5.8,24.65-13.31,9.63-17,28.12-34.81,33.69-13.9,6.28-19.68,19.3-38.66,17.51-4.45-.28-7.56-2.53-6.23-11-.24-14.64-9.53-28.43-20-28.74-15.61-2.08-24.54,18.5-17.06,31.61,3.78,9.06,17.21,11.64,15.08,15-.61,1.67-1.63,4-3,4.45-13,4.58-26.27,8.09-38.21-2.16-4.15-3.56-6.54.78-9.78.55-11.45-.8-21.62-4.27-29.4-13.28-4.76-5.51-12.45-2.92-18.23-6.37-7.27-4.34-14.49-8.24-18.26-16.43-2.84-6.17-1.24-10.14,5.48-10.52,10.8-.62,16.82-8,18.84-16.43,2.39-10-7.18-14.95-14.53-18.61-9.39-5.09-23.35,5.07-25.06,14.7,5.89,31.86-29.39-6.3-26.48-20.2-.17-6.76-5.78-13.56-9.49-20-5.45-9.53,3.66-18.93,0-28.11-5.12-9.95-3.69-39.24,7-43.48,2.36-.14,4.37,1.56,5.24,4.36,3.8,12.09,25,17.42,33.18,8.08,4-4.56,7-11.23,4-16.52-4.08-7.31-7.11-17-18.42-17.2-4.88-.08-9.35-.59-14.4,1.61-5.7,2.49-5.24-1.48-4.92-6.63C553.14,76.9,552.48,66.65,561.14,62.25ZM560,75.76c-1.72,4.06-2.31,7.24,4.2,7,33.1-1.11,48.93,39.34,19.8,53.41-12.32,5.38-24.4,1.37-34.58-8.92-6,9.73-2.11,23,2.45,32.89.55,1,1.18,2.89.7,3.44-11,12.51-4,21.76,5.39,30.59,2.12,2,4.13,3.66,2.45,7.14-3.66,7.57-.51,13.77,5,18.87.26.25,5.14-4.18,7.62-6.68,17-17.14,25.65-19.63,45.54-2.76,6.4,5.42,8.83,13.37,6.05,20.43-2.84,7.22-6.31,15.32-15.62,18.12-15,.72-4.21,8.88,2.53,13.59,5.78,4.54,16.8.69,18.47,3.13,9.41,13.75,20.26,20.29,36.88,15,1.4-.44,4.14.64,5,1.89,4.72,6.54,12.3,5.58,18.74,7.43,1.29.37,3.16-1.29,4.77-2-12.75-11.77-17.9-37.19-5.67-46.92,11.68-9.17,15.93-15.85,40.16,1.89,10,7.35,11.12,19.24,7.53,33.37,4.5-6,9.57-3.58,13.87-4.61,9.89-2.37,11.91-14.1,21.59-16.48,1.93-.48,3.92,1,6.39-1.4,8.84-8.57,13.18-20.8,24.43-27.62,5-3.06,7.09-11,4.86-17.23-1.77-5-7.61-.88-11.15-2.42-5.29-2.31-11-4.48-15.27-8.14-16.48-13.58-6-43.3,14.62-45.69C807,151.92,815.89,155,820.1,165.8c4.06,7.71,8.82-21.26,1.06-27.33-1.71-2.3-1.89-3.33-.56-6,11.84-21.7-4.83-24.58-4.13-43.31C817.88,80.93,810.64,74,804,69.92c-2.25-1.39-6.26,5.88-7.48,10.61-8.77,7-19.4,11.14-30.06,8-8.36-2.38-17.66-7.76-17.77-18-.11-11.48-.93-24.44,13.44-30.25,3.22-1.31,5.75-4.35,8.59-6.6-3.59-2.84-5.69-6.88-10.42-9.14-4.55-2.17-11.64,2.52-12.86-2.83C745.38,12.59,738,10.26,731.79,7.3c-11.72-5.58-25.07.32-37.75-4.86a20,20,0,0,0-7.3-1.72c-15.41,1.2,7.6,22.36,4,31.35-5.7,32.2-56.77,30.45-57.12-4.15-.12-3.36,4.06-9.64-2.36-10-4.59-.28-10,2.82-14,5.81-6,4.46-10.23,12.78-16.66,14.74C590,41.7,582.1,45.11,580.79,57.38,577,66.75,565.79,60.13,560,75.76ZM715.79,451.47c3-.45,8.77,1.3,8.64-3.78,0-6.37-16-7.41-15.1.44C709.26,452.43,714,451.74,715.79,451.47Zm-20-106.25c-2.71-1.39-5.84-1.93-7.71-2.51-6.27-.41-20.17,7.27-15.33,12.84.53.62,2.2,1.21,2.53.91,5.64-5.13,12.51-3,18.94-3.37C701.26,354.1,701.91,347.13,695.75,345.22Zm0,139.71c7.85.22,6.41-11-1.68-9.92C683.52,476.2,686.73,485.78,695.77,484.93ZM673,442.9c-4.08.13-9.41-.49-9.93,4.57-.46,4.46,4.49,3.43,8.24,3.64,2.38-.65,7.05,1.9,7.62-3.51C679.31,443.81,676.42,442.79,673,442.9ZM539.12,1057.81c10,22.19,45.55,107.67,67.87,110.69,1.67-1.73,3-3,.85-5.8-14.51-17.89-25.67-38.07-36.35-58.39-8.33-15.92-16.52-31.93-23.9-48.3C544.21,1046,536.86,1048.11,539.12,1057.81Zm40.1,22.34c1.59,3.71,3.6,8.23,8.35,9.57.27.07,1.36-2.79,2.14-4.43-8.06-19.28-15.92-38.25-24-57.13-.54-1.25-2.74-2.89-4.47-1.07-1,1.07-2.74,1.85-1.64,4.5C566.27,1047.72,572.32,1064.12,579.22,1080.15ZM496.89,830.53c-1,29.58,4.47,58.35,6.52,87.83-.23,14.18,5.88,28.15,5.63,40.79,1.76,4.42,1.46,12.25,7.8,11.12,4.68-.84,2.29-8,2-12.08-4.15-28.87-8.23-57.88-11.37-86.93-2.89-16.06-1.14-33.23-4.78-48.87C498.46,822.33,496.38,826.64,496.89,830.53ZM2.92,27.21C11.7,31.93,21.11,28.6,30,28.7c37.52.43,75.06-.72,112.59-.82,88.91,2.33,178.29.29,266.78.58,7.8,1.78,16.08-1.53,24.46-.71,13.21,1.29,26.81,2.46,39.86.75s26-1.15,38.94-1.15c16.52-2.09,33.25,4.33,48.81-5.39-13.42-4.56-28.31-3.43-42.3-3.67-47.74,1-95.44-1.07-143.22-.34-34.13-2.66-67.79,1.58-101.69.49-40.58.13-81.61-1.47-122.15-.88-17-1.78-33.79,2.58-50.86-.16a105.54,105.54,0,0,0-33.88.45c-9.17,1.56-17.57-2-26.76-.53C29.69,19.1,18.2,17.55,7,17.15,1.08,16.65-2.87,24.26,2.92,27.21ZM486.39,740.46c1.77,7.28,1.64,16.13,4.73,22.75,9.36,8.19,6.08-24,5.48-27.79-6.69-39.64-8.6-79.73-7.5-119.84.08-10.12-3.91-20-1.07-30.53.44-1.66,3-11.22-4.62-11.76-3.7-.26-4.18,5.34-4.19,8.15,1.65,53.24-2.26,106.39,8,158.88ZM429.38,66c-47.16,1-94.27.35-141.41-1C195.21,63.81,102.31,69.5,9.65,65,6,64.65,2,65.12,2.2,70.11c0,4.93,3.91,4.93,7.66,5,114.51,1.4,229,.22,343.51.06,45.11-1.79,90.12,1.73,135.15.18,12.9-1.14,25.37,3.22,37.72-5-11.35-5.35-22.61-2.31-34.55-3.41C470.92,66.44,450.15,66.1,429.38,66ZM22.44,692.39c1.73-10,9.86-18.87,6.36-29.5-5.53-16.82,4.81-29.39,10.6-43.2.48-1.13,3.29-2.53,3.44-2.37,9.72,15.71,19.72,40.72,43.38,25,8.22-5.9,8.64-15.84,6.3-24.54-1.77-6.54-8.53-9.66-14.67-13.1-6-3.37-15.71.54-18.28-8.34-3-10.25,2-18.44,10.29-23.7,12.85-8.18,19.45-21.67,29.58-32,4.48-4.6,11.94-9.55,17.61-9.08,12.83,1.08,19-9.56,29-12.87,8.87-3,17.76-7.25,27.3-5.36,20.55,6.43-13.42,14-9.48,41.08,2.43,22.21,34.31,19.77,42.54,2.19,11.21-17.78-13-26.68,1.33-32.49,31.19-14.26,34.1,13.1,52.47,8,12.07-.6,21.25,4.66,27.05,13.17,6.16,9.06,16.79,9.25,23.58,15.9,7.78,7.61,15.81,15.14,16.3,27.25.23,5.65-2.05,6.68-6.87,4.65-19.16-8.07-27.37-2.23-27.34,18.44,0,18.82,10.69,24.64,21.09,23.31s17.11-8.1,21-17.77c.78-1.94,2.24-5.79,4.64-3.19,9.07,9.8,21.12,18.23,14.66,35.21-3.17,8.34,6.09,14.54,7.27,22.8,1.66,11.65,3.16,22.37-5.9,32.31-1.76,1.92,2.28,8.74,3,13.4,2.13,13.14-4.34,24-10.08,34.93-8.18,4.68-10.64-15.55-14.52-20.27-30.9-40.44-62.38,40.42-11,40.16,14.55-3.37,12.33,10.08,6.58,18.72-5.62,9.21-13.95,13-24.84,14.62-4.77.69-8.22,8.8-12.77,13-8.46,7.82-16.64,15.93-30,14.86-3.13-.25-6.92,4.75-10,7.74-10,9.71-23.56,10-35.92,13.23-1.8.47-5.65-3-6.9-5.48-1.53-3,1.56-4.49,4.1-6.35,17.4-10.88,19-37.23-5.43-40.07-17.78-2.7-31.48,8.19-28.75,23.78.25,7.73,12.3,14.64,7.53,19-5.38,5.67-13.33,12.32-22,7.52-16.28-9-35.21-8.41-51.75-15.9a14.55,14.55,0,0,1-5.71-4.08C96,817.73,73.76,817.45,63.77,800.85,60.2,794.92,61.06,788,63.32,782c4.48-8.79,18.77,13,32.69-1.62,24-25.25-22.54-61.85-37.82-27.48-1.42,3.52-3.44,10.18-7.79,8.78-7.21-2.33-15.57-5.75-17.15-14.6-.89-5-4.22-9.75-2.33-15.16C36.36,717.11,19.86,707.31,22.44,692.39Zm15-17.15c-18.24,35.91,9.47,37,4.8,48.21-7.13,8.2-2.38,23.6,4.66,29.89,9-19,22.66-27.89,41.38-22.41,37.89,15,25.69,75.22-18.72,60.25,3.11,10.7,11,15.6,20.06,20.39,4.7,2.49,10.79-2.07,13.76,3.68,9.21,17.81,25,22.32,43.29,21.47,2.54-.12,4.3.28,5.53,2.14,4.79,7.28,12.1,8.07,19.82,8.1,3.43,0,5.12-.67,3.38-4.67-13.47-19.74-2.68-43.76,19.89-48.68,10.46-3,20.65.31,29.4,6.56,14,10,13.83,22.56-.26,44,37.94-6.52,21.16-20.44,34.72-19.26,29.45,3.39,30.36-28.11,47.13-28,9.51.39,14.89-5.9,19.71-12.85.85-1.24,1.83-2.93-1.06-2.92C279.64,784,271.28,719.87,316.6,713c15.71,0,20.78,13.82,30.46,22.37,5.61-9.47,5.54-21.51-2.39-30.12-1.66-1.77.09-3.23,1.19-4.14,13.28-11,8.17-23.86,4.51-37.1-1.39-5-9.64-7.7-6.31-12.58,5.84-8.6,5.27-18.39-1.43-25.43-18.8,28.25-61.67,20.5-59.56-17,.14-11.92,7.49-28,22.4-28.59,1.64-.06,14.84,3.69,6.68-7.06-3.6-4.73-9.4-7.79-14.87-11-4.08-2.37-11.31,3.66-12.49-5.3-1.35-10.25-21.67-22.21-30.72-17.59-10.66,5.69-13-9.93-23.36-11.2-4.91-1.54-10.61-.66-16-.45-.45,0-1.65,3.57-1.06,4.28,8.36,10,3.36,19.51-.59,29.24-3.17,7.84-27.58,20-35.44,17.34-28.69-9.22-23.26-31.64-14.49-52.46,5.2-8.67-16.95,3.35-20.06,3.28-6.26,1.93-7.45,12-14.61,10.66-14.13-2.58-22.29,4.77-30.82,14.2-5.19,5.73-3.35,16.63-13.28,18.23-8.49,1.36-12.18,8.24-17.22,13.57-4.83,5.12-1.39,7.67,3.6,8.66,63.79,11.11,15.24,96.33-24,43.58-.85-1.34-2.75-6.35-5.33-2.77C32.44,646.81,42,664.11,37.47,675.24ZM335,1122.32c-.36,6.22,10.15,6.31,10.06.17.73-14.49,1.45-29,2-43.47.15-3.86-1.78-7.85-5.67-7.74-3.72.11-6.36,3.55-6.38,7.85C334.94,1093.53,334.88,1107.92,335,1122.32Zm-40.72-29.58c-4,11.31,5.46,43.72-5.5,48.34-19.26,2.23-38.69,1.51-57.75-.59-10.33-1.13-4.13-13.88-8.89-19.68,5.65-15.5-3.1-35.87,9.4-47.77,18.16-.12,36.45-1.35,54.44.43C295.47,1074.42,295.5,1085.94,294.25,1092.74Zm-47.58,18.33c-5.94.88-16-4.2-13.63,9,.78,4.33-3.9,12.53,6.78,10.9,6-.93,16.46,4.3,12-12.58C251.47,1117.61,256.92,1109.56,246.67,1111.07Zm6.51-17c-.47-7.43.46-14.17-12.67-9.85-1.14.77-8.86-4.85-8.09,1.9.55,4.85-4.81,17.74,9.7,14.79C246.55,1100,253.85,1104.69,253.18,1094.08Zm21.95,5.85c1.15-.57,9.47,5.07,7.71-5.17-.9-5.24,5.16-16.47-8.54-12.12-4,1.29-12-3.49-11.65,3.84C262.9,1091.51,257.27,1104.66,275.13,1099.93Zm7.43,15.29c1.51-8.8-6.74-1.36-9-4.58-4.1,1.86-9.67-3.15-11,6.43-2.08,15.38,7.7,17,16.89,15.29C289.41,1130.53,281.55,1121.08,282.56,1115.22Zm-102.88,17.65c.67-1.12,1.83-2.2,1.92-3.37.82-10.2,1.44-20.41,2.13-30.62l-.67,0c-1.25-5.55,3.3-25.15-3.76-25.49-2.42.21-6.49.94-6.43,5.67.2,16.15.1,32.3.19,48.44C173.08,1131.79,178.3,1130.05,179.68,1132.87ZM151.74,1477.7c-15.75,47.5-57.54,77.56-90.19,112.75-12.59,12.4-27.72,21.7-43.3,29.89-16.71,8.5-20.36,1.52-16-15.13,9.81-55.15,32.5-110,73.31-149.59C97.58,1431,162.6,1418.82,151.74,1477.7ZM12.74,1600c35.56-56.18,71.32-106.77,114.37-152-60-11.66-106.58,110.07-117.48,157Zm130.11-132.66a36.65,36.65,0,0,0-6.91-16.15c-30.7,32.39-56.87,69.15-82.14,105.94-10.2,16.7-25.46,31.12-32.29,49.46,17.44-7.7,30.87-21.78,44.23-35.16C92.51,1540,136,1510,142.85,1467.34Z"/></g></g><g id="Red_Japanese_Frames" data-name="Red Japanese Frames"><path class="cls-8" d="M0,20V1580a20,20,0,0,0,20,20H956a20,20,0,0,0,20-20V20A20,20,0,0,0,956,0H20A20,20,0,0,0,0,20ZM924,1548H52V52H924Z"/><path class="cls-9" d="M952.1,15.41,928.69,38.83A4,4,0,0,1,925.86,40H50.14a4,4,0,0,1-2.83-1.17L23.9,15.41A2,2,0,0,1,25.31,12H950.69A2,2,0,0,1,952.1,15.41ZM40,1549.86V50.14a4,4,0,0,0-1.17-2.83L15.41,23.9A2,2,0,0,0,12,25.31V1574.69a2,2,0,0,0,3.41,1.41l23.42-23.41A4,4,0,0,0,40,1549.86ZM936,50.14V1549.86a4,4,0,0,0,1.17,2.83l23.42,23.41a2,2,0,0,0,3.41-1.41V25.31a2,2,0,0,0-3.41-1.41L937.17,47.31A4,4,0,0,0,936,50.14ZM925.86,1560H50.14a4,4,0,0,0-2.83,1.17l-20,20a4,4,0,0,0,2.83,6.83H950.69a2,2,0,0,0,1.41-3.41l-23.41-23.42A4,4,0,0,0,925.86,1560Z"/></g></svg>