<svg xmlns="http://www.w3.org/2000/svg" xmlns:xlink="http://www.w3.org/1999/xlink" viewBox="0 0 976 1600"><defs><style>.cls-1{fill:none;}.cls-2{fill:#f4f3ef;}.cls-3{clip-path:url(#clip-path);}.cls-4{fill:#82d8d0;}.cls-5{fill:#50b271;}.cls-6{fill:#d81e1e;}.cls-7{fill:#592116;}.cls-8{fill:#992d17;}</style><clipPath id="clip-path"><path class="cls-1" d="M960,22V1578a6,6,0,0,1-6,6H22a6,6,0,0,1-6-6V22a6,6,0,0,1,6-6H954A6,6,0,0,1,960,22Z"/></clipPath></defs><g id="Paper_Backing" data-name="Paper Backing"><path class="cls-2" d="M960,22V1578a6,6,0,0,1-6,6H22a6,6,0,0,1-6-6V22a6,6,0,0,1,6-6H954A6,6,0,0,1,960,22Z"/></g><g id="Wikipedia_Cropped" data-name="Wikipedia Cropped"><g class="cls-3"><path class="cls-4" d="M207.51,1604c-4-1.38-122.34,2.9-127.28-1.92,5.48-20.17,13.6-41.63,14.44-63.62,10-68.9,1.74-139.21,7-208.36,6.24-52.23-6.3-105.51-9.65-155.69-4.9-5.55-12.74-8.23-12.23-16.48-7-15.64,18.22-16.31,16.58-28.51,14.35-94.1,8.29-192.64,7.76-288.23-1.66-30.74-.08-61.2-2.26-91.79-.11-22.32-11.87-41.56,11.27-56.08,76.65-68.42,36.37-107.43,87.91,1.6,6,5.54.65,18.06,9.56,20.09,6.36,4.26,6.1,15.26,13.64,20.9,28.84,38.87-2.9,136.56,8.69,192.18,7,157.76,22.74,56.42,60.2-11.05,13.2,10.39,12.56,35,19.78,50.59-.58,22.85-20.11,39.79-26.54,61.72-10.54,31.23-54.46,90.75-40.52,119.61,7.07,5.51,4.68,16.58,11.55,20.3,5.6,1.62,7.63,6,7.56,12.48-2.62,26.58-18.14,6.18-20,37.51-21.85,59.9-17,126.83-17.88,189.58-.46,62.65,3.58,126.55,23.83,186.51C260.93,1611.78,212,1601.11,207.51,1604ZM501.8,694.88c-31.46-37.74,29.23-62,53.89-83,22-8.27,112.61-97.69,107.18-37.14-15.82,16.15-43.35,24.35-62,39.68C566,634.93,536.43,672,501.8,694.88ZM98.56,477c-12.92-7.31-1.3-32.87-4.09-46.42C96.84,374,98.22,319.6,95.64,263c1.29-25.83-3.12-53.84-3.37-77.82,8.56-4.22,40.51-20.24,36.45,1.16-.34,15-19.79,62,.46,66.06,42.66-18,82.44-53,114.69-85.39,22.08-22.86,13.45,17.67,11.23,29.8-2.36,35.68-2.12,77.69-2.34,114.88-.79,15.06-16.92,9.71-24.49,5.43-7.65,6.92-22.6-4.46-25.26,7-1,31,1.52,62.16,4.61,92.69-1.91,11.27-16.81,13.18-22.09,22.66-9.79,12.13-22,4.56-33,11C131.25,455.28,120.15,477.55,98.56,477ZM92.37,63.12c-12.6-10.34-.81-39.11-10.3-56C79.9,4.18,79.83-4,84.9-4,232.84-6.69,172.47-4.68,92.37,63.12Z"/><path class="cls-5" d="M320.51,1597.09C278.43,1567,221.35,1466,232,1414.12c-2.7-7.43-10-39.29,5.28-33.46,21.15,12.41,30.81,31.45,45,39.77,7.53-4.44,14.24-2.41,21.93,1.38,59,19.49,113.86,69.19,131.82,125.12-22.12,22.14-56.71-11.76-79.31-21.43-36.42-28-21.1,10.07-19.7,32.59.46,9.1,6.76,33.53-3,37.3C329.06,1593.23,325.22,1596.34,320.51,1597.09ZM248.84,765.35c-34.7-37.4-57.07-94-77.32-137.73-40.09,36-68.07,92.81-122.27,116.49-26.6,8.45-10.38-78.43-7.1-94.08,2.47-26.45,37.1-99-14.75-49.07C17.22,606.08-1.7,634.34-4,620.56c4.88-4.51-10.56-102,9-92.24,34.89-14.91,64.51-56.81,106.29-51,18.18-14.09,40.53-31.37,67.8-30,29.6-34.85,30.89-18.63,32.68,16.56,3.26,38.83,7.17,78.78,10.72,117.6,4,48.31,10.88,96.91,22.72,144C245.87,737,259,757.55,248.84,765.35ZM715.7,700.22C679.31,653,672.17,600.94,658.2,544.6c-2.9-7.12.94-31.05-12.84-23.57-45.11,31.4-104.11,68.48-159.64,60.12,5-66.64,99.51-135.63,164.95-155.72,21.83,4.18,16.16-38.09,38.6-37.75,5.49,2.06,7.43-2.82,12.15-4.27,11.47-4.05,15.2,6.48,22.79,9.76,14-9,31.11,2.26,44.86,9C805.9,385.62,864.51,422,891,451.46c15,15.79,12.55,26.15,13.33,40.19,16.36,29-39.52-9.57-45.32-3.44,5.93,37.52,27,76,24.11,129.59-7.17,9.12-2.29,8.69-4.45,17.49-27.65,5-51.4-24.37-70.23-40.13-14.14-5.11-46.51-73.26-55.33-49.89C749.72,586.27,752.39,670.34,715.7,700.22Zm-594-447.58c-16.73-11,31.9-91.56-10-74-24,5.52-50,15.47-67.55,2.92-8.21,6.89-15.26,8-27.78,2.46,1.31-57.24,86.11-131.73,134-164.94,9.21-5.66,20-15.48,27.28-23.09,8.15-.17,182.39.24,189.41,0,4.46,2.61,38.35-6.47,31.31,8.06,15.46,33.9,42.44,72.45,45.38,112,1.33,19.54,17.81,115.2-19.33,90.86-96.12-105.76-37.64-81.24-87.84,32.39-23.35,24.83-39.14-38-47.05-52.71-9.88-19.28-8.94-67.07-35.23-30.52C220.19,187,172.11,246.31,121.72,252.64Z"/><path class="cls-6" d="M505.77,1293.7c-33.08-4.8-42.84-52.6-65.76-74.32-42.55-68-81.83-138.75-108-214.38C252.27,805.44,222.58,591.88,206.21,378.82c1.58-15-14.28-50.8,2.21-55.74,52.38,5.63,104,1.85,156.83,6.22,113.16,6.28,87.76-18.59,95.11,94.14A1487.88,1487.88,0,0,0,496.83,709.9c31.37,199.92,122.7,384,233.13,551,8.36,14.55-11.35,12.1-18.47,12.43C641.84,1277.94,576.31,1285.06,505.77,1293.7Z"/><path class="cls-7" d="M955.76,207.11c-1.71-.83-5.38-.63-6.38.57-13.06,15.65-43.07,6.49-45.84-13.33a22.27,22.27,0,0,1,7.58-22.2c8.5-6.94,18.56-3.13,28.37-2.09,5.45.57,13.91,14.8,17-1.48,1.18-6.21-1.52-13.25-2.9-19.82-1.82-8.64-11.88-13.63-10.57-23.82,1.67-13.09-8.78-32.88-21-37.28-12.29-5.23,2.61-30.87-33.59-37.61,6.65,54-63.38,46.5-49.27,11.72,4.38-9.58,6.76-22.32,22.36-18.74,4.9,1.12.33-3.3,2.48-4.06,1.88-.67.55-1.29-.25-2.29-9.58-12-22.69-14.26-36.91-13.79-1.83.06-3.83,2.93-5.6-.31C815.53,12.14,787,5.76,776.67,12.38c-4.4,2.83-11.71,8.35-13.37,7.06-10.92-8.47-34.63-5.83-43,1.49-5.49,4.52-10.87,10.07-1.95,11.75,12.39-.8,16.52,8.88,22.12,16.67,8.13,11.12-7.51,32-20.31,29.43-34.89-5.3-15.32-38.27-30.21-35.49-10.37,5.52-21.65,9.79-28,21.31-2.21,4-1.08,10.19-6.23,12.19-12.12,4.69-19,13.46-23.23,25.52-1.23,3.48,1,8.43-4.09,10.79-14.3,6.65-23.62,21.62-20.83,37.29.55,5.3-3.47,17.42,8,13.55,13.34-5.7,37.43-8.19,41.14,9.79,1.43,12.76-2.52,24.28-15.54,28.72-17,7.16-26.76-15.95-33-8.45-8.69,37,13.17,41.48,15.36,66.24-.19,9.55,7.29,17.2,14.47,23.39,3.29,2.83,4.9,5.17,5.07,9.63.6,16,19.68,36,33.69,35.78,4.34-.05,6.72-.71,5.22-6.64-3.1-12.22-5.48-24.92,9-32.55,7.26-3.82,14.81-1,22.13-.59,7.53.41,19.39,16.44,17.38,22.63-3.36,10.3-9,18.32-20.37,21.38-18.94,5.27,12.36,24.55,20.91,26.51,10.25,3.4,20.36-4.61,29.71,2,3.42,2.43,7.66,2.37,11.33,3.59,13.72,4.59,26.48-7.05,40.62-.66,13,5.87,23.42-1.65,34.14-9.78,12.9-9.78,2.77-11.8-3.42-15.94-19.23-12.31-16.58-35.71,5.61-42.31,7.54-2.56,12.67,2.24,17.79,5.7s9,8.55,6.25,15.91c-.86,3.37,3.49,9.43,7.18,6.47,9.09-5.6,18.71-10.2,25.73-19.1,4-5.1,5.18-12.21,12.69-15.37,11.92-5,18.49-15.22,22.83-27.51,1.65-4.68-.92-10.26,2.54-13.4,8.06-7.31,15.06-14.82,15-27.07C957.63,217.61,962,210.43,955.76,207.11Zm-3.12,16.54c-8,25.32-16.21,7.87-19.53,38.19-7.61,24.51-23.78,18.47-28.05,27.29-1.32,12.28-10.54,17.64-19.95,22.57-9.09-13-14.35-22.78-32.17-24.05-33.54-1.07-40.45,40.58-17.26,57.32,15.26,13.63-23.55,18.64-29.07,6.8-2-2.49-5.16-3.29-8.17.8-6.13,8.37-30.34,7-38.88-2.11-2.65-2.83-4.51-2.81-7.63-1.24C741,354.71,730.7,352.1,721,345.84c-6.29-4.07-2.2-6.73,1.69-8.75,20.16-10.48,22.78-37.54,4.42-50.67-18-14.14-56.73-10.27-57.15,19.91-.15,5.85-1.43,12.85-7,5.51-8.2-6.56-11.9-14.75-11.82-25.53,0-7.2-9.45-7.9-12.56-13.94-3.44-6.69-8.29-11.86-6-20.93,2-7.9-8.35-11.37-10.89-18.28-2.08-5.68-5.56-11.12-6.4-17-2.91-20.25,9.63-5.17,13.51-4.66,41.65,6.23,54.81-57.6,9.45-62-11.79-3.75-13.07,3.08-24.83,2.29.7-14,5.5-28.08,20.31-31.55,9.73-3.06,3.89-11.29,6.89-16.65,5.44-9.72,11.35-18.06,22.68-20.43,7-1.46,2.76-6.81,4.36-10.08,4-8.21,9.75-14.52,18.83-17.46,1.67,26.62,35.28,42.62,56,23,13-11.27,11-37.24-3.81-46.06-3.16-1.88-5-6-7.44-9.09,9.75-3.64,20.77.58,30.33,4.85,5.64,3,8.66-5.72,14-7.28,34.19-10.8,29.86,13.8,62.37,10.08,9.33.14,14.54,3.29,4.26,9.05-33.12,29.46,1.9,73.45,37.2,51.23,8.75-7,17.31-13.74,15.93-26.75-.17-1.54,1.33-3.26,2.06-4.89,16.33,10.46,4.09,29.65,22.79,38,29.61,17.64,3.29,34.88,14.85,40.37,8.17,3.42,10.72,10.85,11.55,18,1.57,13.59-9.05,4.58-11.67,4-29.38-6.23-37.76,8.31-41.69,29.51-2.21,11.92,15,30.84,27.22,33.64,11.72,3,21.41-2.12,32.18-3.64C952.65,221,953.13,222.43,952.64,223.65Zm-89.79,196c-55.08-41.2-64.46-15.42-111.53-30.18-11.78-5.75-26.41-5.3-39.14-9.51-15.41-5.11-39.29,5.35-45.53,20.2-2.72,6.47-3.35,15.89-10.49,18.63C577.41,443.85,512,494.63,478,572.6c3.37-12.19-.16-20-.82-28.05-5.8-51.71-7.87-103.65-12.28-155.41-1.4-15.07-.88-30.09-1.23-45.14-.18-7.8,3.68-18.05-11.46-17.27-59.37.77-118.69-6.28-178.07-7.89-4.39-.24-12.24-1.2-12.54-2.88-7.06-48.72-1.1-98.24.95-147.16.59-9.32.19-19.48,9.61-25.17,11.63,35,19.11,72.2,42.91,101.38,3.24,4.28,8.09,18.39,17.34,7,21.64-33.68,27.71-73.66,35.66-112.76,12.55,31.43,33.19,60,63.64,77.14,5,2.71,12.79,6.81,16.4-.53,7.72-20.65,3.64-44.47,3.91-66.18-.41-18.53-3.41-36.53-7.5-54.11-2.64-17.65-34.41-92-51.33-93-3.39,2-.77,5.83.89,8.15C436.38,64.49,447.77,132.1,443,199.34,423,132.2,408,67,372.84,6.18c-1.91-3.45-4.73-6.47-8.76-7.28-9.49-6.49-40.51,69.16-50.22,79.9-41.22,58.71-117.55,139-181.73,169.75C180.06,160.37,247,84.38,311.05,7.64c1.75-1.44,3.77-5.26-.78-5.72C237.76,77.49,174.56,155.86,121.72,248.64c6.22-34,8.81-61.3,20.13-92.46A332.38,332.38,0,0,1,208.1,47.74Q228,28.56,247.54,9c1.32-1.31,1.62-3.64,2.4-5.5-17.68,2-38.54,32-52.39,43.84-56.1,44-120,75.36-176.46,119.42,22.69-45.18,56.68-86.23,96.16-118,19.59-14.94,39.58-29.34,59.3-44.1,1-.75,3.82-1.64,1.59-4.17-1.3-1.44-2.66-1.67-4.26-.5C146.93,17.58,119.33,34.25,95.8,56.55c-1.16,1.1-4.43,5-4.43.35-.49-6.76-.36-56-7.93-52.19-1,1.38-2.34,3.06-2.31,4.6.48,18.84,1.21,37.68,1.72,56.52a7.07,7.07,0,0,1-1.72,4.3C63.86,90.33,45.26,109.58,32.28,133c-44.44,62.36-24.43,58.61,38.87,57.79,5.28.19,12.19-6,15.43.32,5.2,10.1,3.6,22,4.07,33.08,1.11,62.79.18,125.54-.31,188.36.85,17.68-3.1,35.54-3,53.32,0,8.68-3.14,10.95-10.19,13.21-16.8,5.06-73.34,39.93-72,57.76,1.3-.47,3.33-.58,3.79-1.48,2.78-5.47,19.2-14.72,23.27-18.5,20.87-19.39,45.08-32.2,73.77-37a209.08,209.08,0,0,0-37.63,62.78c-3.58,10.15-5.76,21.75-13.75,29.66-4.57,7.44-59.94,44.9-53.08,50.45,3.08,3.76,6.4,0,8.72-1.89,8.72-6.42,32.31-28.3,41.35-33.89.41,1.22,1.48,2.69,1.13,3.63-5.48,14.64-9,29.69-12.41,45-4.4,19.71-8.24,39.29-9.49,59.46-.79,12.88,1.44,25.75-1.63,38.71-2.33,9.86,7.55,20.34,14.72,17.17,17.36-7.7,34.8-15.32,48.23-30.37,5.63,16.58,4.28,33.1,4.26,49.06,0,30.68,3,61.28.9,92,.74,85.83,6.17,172.47-4.71,257.93-.87,22.59-27.08,19.71-15.69,50.15,4,6.69,11.3,4.62,10.17,15.06,4.63,39.06,10.7,77.87,8.12,117.41-6.79,98.52,9,200-19,296.09-.74,2.66-1.6,5.37,1.59,6.85,4.5,2.15,4.3-3.14,5.9-5.11,24.65-60,18.5-127.38,20.65-191-3.45-59,8.22-118.45-1.49-177.29-1.53-12.6-3.89-25.1-5.2-37.71-.33-4.65-7.37-11.56,0-14.27,29.8-6.73,60.88.79,88.67,12.62,15.31,6.08,29.82,14.47,46.82,16.06,3.71.35,14.3-4.44,8.23,9.19-15.7,38.31-16.07,80.89-17.37,121.74-2.42,66.08-2.58,132.71,8.12,198.1,2.53,20,9.55,39.4,15,59,1.09,3.88,2.34,10.66,7.27,10.1s1.09-5.76.47-8.61c-10.45-38-14.27-76.45-18.64-115.71,1,.48,2.22.66,2.38,1.17,5.22,17,14.1,32.2,22.29,47.79,12,22.8,45.68,81.47,74.65,77.44,16.36-13.45,4.76-71.53.38-91.56,29.37,18.73,57.6,40.68,93.34,43.48,6.13-.21,16-1.55,13.47-10.42-17.54-46.67-50.17-86.64-93.51-112.29C330.42,1427,311,1419.2,290.7,1412.56c-6.33-2.07-13.62-.85-19.19-8C263,1393.68,252.73,1384,240,1377.41c-2.28-1.17-6.86,2.2-6.89-3.13-.07-13.69-.65-27.43.26-41.06,3.69-39.39,5.55-79.56,18.48-117.21,1-3.38-2.25-9.19,3.83-11,8.13-2.35,13.74-8.33,14.95-15.9,7.84-23.19-29.16-33.12-23.21-56.7,16.35-53.4,44.44-99.38,68.81-150,33.56,106.44,91,205,155.39,295.81-14.21,1.38-28.71-3.88-35.12-18.38-2.31-4.63-10.4-7.61-11.17-.22-2.18,14.16-4.09,28.25.72,42.52,1.91,5.66,6.86,11.16,4.79,17.46-12.57,44.78,18.8,45.61,18.06,63.17-2.26,18.64,9.3,36.45,26.2,43.44,15.73.74,3.58-35.64,49.2-34.9,25.65-1.83,38.29,35,21.65,52.8-18.36,18.91-26.44,1.12-39.63,8.15-5.43,8.61,17.86,22.7,24,27.11,13.32,8.8,30.38,1.2,43.26,13.24,11.26,10.53,27,10.95,42.58,10.51,6.57-.19,11.82-7.51,19.1-2.28,13.74,9.88,28.73,11.28,44.06,3.95,6.15-3.52,10.33-8.47,3.39-14.44-13.11-9.51-26.17-23.34-19.13-40.15,4.65-12.51,14.08-22.42,28-25,27.72-5.86,49.35,36.5,24.29,54.46-5.41,2.47-2.36,8.55,3.14,7.33,18.69-2,31.79-12.59,42.65-27.17,2.23-3,2.11-8.47,7.52-8.81,19.85-1.24,34-19.53,38.25-33.77,1.58-5.36-1.8-12.81,3.62-15.74,12.92-6.36,34.85-32.51,26.29-46.63-4.06-5.34-9.81-1.19-14.62-.46-21.87,3.3-35.83-7.83-35.76-28.91.06-16,11.65-28.43,30.05-32.35,8.31-1.77,24,11.24,28,22.81,6.76,10.17,9.15-2.78,10.51-8.8,2.6-12.8,1-25.73-1.49-38.82-1.43-7.4-8.74-12.47-6.29-21.53,4.48-16.55-.36-31.22-11.74-44-4.06-4.56-10-9.52-10.5-14.76-1.22-12.14-5.87-21.85-14.47-29.76-23.86-19.74-10.54,18.53-42.95,24.08-50.31,9.25-48.09-57.23,0-57.34,3.62.7,8.71-2,5.72-5.94-12.93-12-26.53-22.43-45.9-19.41-2,.32-5.1-.2-6.39-1.56-9.38-9.88-20.87-14.28-34.28-15.4-10.54-.88-19.07,8.83-30.39,4.4-4.87-2.4-15.48.58-19-3.38-25.77-37.88-41.62-81.82-61.11-123.11-15.93-34.16-26.82-70.16-36.44-106.53-14.37-45.62-24-92.2-34.08-138.85-1.24-5.39-2.8-11,3.22-16.4,24.78-22.25,48.69-45.4,75.43-65.5,23.59-17.74,48.22-33.77,73.33-49.17,3.7-2.27,3.94-.5,4.76,2.41,9.18,34,19.35,67.9,36.1,99.05,6.35,18.06,25.34,25.19,34,4.55,20-46.62,21.83-98.38,26.82-148.26,22.25,40,70.76,95.36,118.38,101.06,17.89,3.53,7.37-52.24,7.19-63.19-2.59-30.76-12.81-59.53-22.1-88.13,13.39,6,25.72,14.1,41.46,13.75,11-.24,14.9-5.13,9.91-16.07C902.42,462.47,887.4,437.56,862.85,419.63ZM368.7,14.21c30.81,61.16,45.38,127.89,68.31,192-.14.6-.35,1.54-.56,2.48-29.83-14.62-46.21-45.26-61.8-73.25-8.37-15.9-4.7-31.74-5.56-47.7-.27-4.93-.25-9.7-1.88-14.56-3.07-9.16,1.85-18.8-1.68-28.37-1.67-7.45-11-31.32-3.22-35.41C365.47,7.71,367.71,11.94,368.7,14.21ZM331.91,63.13C337.44,52.27,344,42,350.44,31.56c.83-1.34-.58-4.74,2.18-3.82,1.39.46,2.44,3.68,2.65,5.75,10.75,69.57,7,144.4-25.21,207.92-4.64-50-1.39-98-10-147.22C317.6,82.45,326.86,73.05,331.91,63.13ZM286.31,127c9.23-10.1,18.08-20.43,26.45-33.08,5.81,48.94,5.14,96.87,8.48,147-22.46-32-31.17-64.52-42.2-100.08C276.67,133.52,282.94,130.65,286.31,127ZM275.54,1537.1c-20.35-35.54-40.69-70.61-42.51-112.59,38.41,51.7,61.13,109.93,89.44,166.82C318.93,1603.39,278.06,1543.44,275.54,1537.1Zm120.85,5.3c-21.95-10.55-46.15-22.72-63.81-39.22-7.35-8.22-9.5-21.25-13.26-32.38-1-3,1.58-1,2.59-.39,37.68,23.16,70,52.78,104.46,80.47C415.39,1552.2,406,1546.19,396.39,1542.4ZM289.1,1421.72c65.77,15.11,113.82,63.4,144.13,122.33l-1.64,1.56c-28.06-26.47-57-51.86-89.42-73C321.58,1460.1,297.13,1446.23,289.1,1421.72Zm-56-38c38.47,24,67.85,66.21,84.63,108.13,6,16.61,12.17,33.65,13.54,52,.85,15.35,6.43,32.45,2.56,47.55-27.47-51.48-50-110-83.58-159.8-6.42-10.39-19.56-17.35-16.9-34.12C233.43,1394.45,230.7,1387.68,233.1,1383.75ZM900.45,482.6c-32.46-38.05-83.3-48.73-119.78-80.78C821.18,395.06,905.11,451.32,900.45,482.6ZM497.2,554.05c26.9-51.84,74.29-89.09,126-114.47,9.15-4.38,19.13-7,28.76-10.37,1.47-.5,3.22-.34,2.92,2-1.1,8.64-.51,18.05-3.85,25.74-5.11,11.75-18.64,14-28.78,19.92-51.49,27.59-92.85,59.75-137,100.3C490.23,567.55,493.43,560.64,497.2,554.05ZM649.12,509.5c-10.15,16.9-42.7,32.42-60.35,42.35-30,15.34-60.51,25.15-94.64,29,43.1-41.12,91.51-70.72,141.41-101.16,14.62-10.57,14.36-3.89,13.53,8.26C648.59,495.18,651.6,503.34,649.12,509.5Zm-163.8,79.6c59.74-.41,117.32-29.08,162.88-66.29.79-.61,2.13-3.77,2.63-.07,4.36,19.92,4,27.81-17.15,33.73-17,6.57-31.14,17.52-45.9,27.52-31.65,23.24-66.59,42.44-93.7,71.31-3.61-21.67-7-42.57-10.72-63.39C482.9,589.37,483.07,589.08,485.32,589.1Zm-248.1-407c2-8.64,11.21-12.09,16.06-18.84,3.54,2.73,1.75,6.6,1.45,9.67-5.12,26-5,52.52-5.64,78.95-1.89,8.71,4.23,69.35-5.12,65.8-3-1.49-10.13,2.59-9.05-5.88C237.19,268.75,231.18,224.89,237.22,182.13ZM53.41,183.45c-11.92-.25-24.4,1.9-35.42-3.06,49.68-39.64,104.58-72.56,158.49-106.88C157.15,102.45,140.7,133,129.59,166c-2.65,7-12.3,6.73-19.08,8.79C91.93,180.47,72.69,183.84,53.41,183.45ZM99.49,472.83c-3.37.77-2.44-2.4-2.38-4.09,2.48-68.62,5.86-137.25,2.53-205.91-1.16-23.7,1.57-48.21-4.52-71.49-1.38-5.06,3.28-5.72,5.88-5.84,8.36.09,15-8.71,23.07-6,1.05.56,1.17,4,.74,6-1.46,10.31-20.3,82.93,3.86,71.43,38.42-15.34,68.43-40.85,99.14-69.49-4.5,41-4,79.94-3.18,120.33.85,9.8-6.71,8.81-9.91,7.82-18.41-5.73-15.44,7.12-15.75,17.13-.88,28.3,2,56.4,4.67,84.51.35,3.67-3,3.32-4.62,4.79-5.55,5-12.17,9.22-16.66,15.06-7.15,9.27-17.62,4.25-26.09,7.67-13.34,5.39-27.26,9.69-36.9,21C113.8,472.28,106.34,471.25,99.49,472.83Zm75.67,660.77a42.05,42.05,0,0,0,1.47,4.84c-11.21-4.17-21.44-10.6-34-9.54-7.46.35-14.68-.49-7.3-10.14,5.38-7,10.34-15.48,21.64-16,9.68,1.81,16.9,5.92,16.26,18.07C173,1125.05,174.38,1129.36,175.16,1133.6Zm-8.31-39.5c-37.18-12.56-34.74,46.62-66.57,34-1.85-1-.57-10.28,1.07-15.17,14.6-72.08,6.56-146.23,6.9-219.29,1.17-43.09-1.26-86.11-1.69-129.17-1.55-15.89.62-32.34-5.28-47.81-.92-2.42-.29-4.9,1.86-7.18C127,684.07,153,660.36,169.79,629.4c6.85,23.87,14.27,47.05,27.89,67.72,4.66,7,4.08,14.27,1.91,22.07-7.75,91-4.68,183.29-4.23,274.54,1.49,32.29,2.6,65.13,15.23,95.76-11,8.41-18.13,19.29-25,32.84C184.36,1108.59,178.32,1099.6,166.85,1094.1Zm38.26-140c2-78.27-5.4-157.52,5-235.13,3,18,25,25.7,22.48,47.47-3,53.76-7.37,108.1-3.69,161.93,2.36,31.66,1.49,63.65,12,94.08,1.68,6.75-4.51,10.43-6.43,15.85-5.12,13.29-10.41,26.86-17.18,39.39C202.88,1038.93,206.38,995.06,205.11,954.11Zm34.32-5.55c-.7-49.35-4.53-99.37.37-148.56,1.46-12-2.78-24.14,3.21-38.79-1,6.79,1.77,8.93,4.05,11.29,14,14.45,13.55,34.44,19.6,51.87,6.39,18.42,10.14,37.75,16,56.39,5.11,16.33,6.19,31.47-1.55,47.83-13.6,25.5-20.23,55.54-35.31,79.72C242.93,988.51,241.4,968.48,239.43,948.56ZM220.58,718.28c-16.42-29.14-35-57.53-41.56-91.06-15.84-61.59-22.36-91.13-7.87-154.9,3.54-18.06,16.89-29.52,30.18-40.66,1.83-1.54,3.4-1,3.67,2.15,1.62,18.68,3.53,37.32,5.2,56,5.39,63.82,10.26,127.6,21.2,190.75,3.7,28,13.43,52.32,17.44,80.8C239.58,744.91,227.62,733.5,220.58,718.28ZM38.41,734.81c3.3-22-.62-44.31,3.73-66.47,16.53-72.15,40.53-201.16,126.61-216.62-13.46,40.33-41.4,73.56-59,112-5.92,11.83-8.42,25.57-15.33,36.66-7.72,12.37-11.74,26.13-18.26,38.89C62.1,670.29,48.81,702.29,38.41,734.81Zm9.28,5.62c-1.11.48-2.49.36-4.11.56,33.91-82.63,68.08-164.52,113.86-244.93-5.68,41.48-3.28,76.38,8.3,114.77,4.44,14.6-8.28,19-12.92,28-8.86,17.22-22.77,30.78-36.06,44.46C95.87,704.8,76.39,728.29,47.69,740.43Zm213.24,441.23c-3.78,31.95-48.64,9.76-65.76,2.44-24.61-9.89-49.6-18.91-76.73-17-11,.26-34.64,6.13-34.82-10.2-3.36-20,27.48-17.51,37.81-20.24,48.27-.45,77.54,36,124.37,36.47C251.9,1173.55,261.18,1169.54,260.93,1181.66ZM247.24,1158c1.62,2.36,2,4.19,1.46,5.88-21.21-1.89-42.64-8-60.36-19.49-5.19-3.86,2-10.15,3.65-14.82,2.58-7.49,8.66-13.84,13.57-20.44,8.15-11,12.27-1.63,14.58,4.14C226.73,1129.76,237.37,1143.62,247.24,1158Zm54.41-169.54c-21.3,47.18-48.85,91-61.59,141.79-9.25-11.78-16.51-25.22-18-38.79-1-9.58,7.56-20.18,11.8-30.35,16.23-35,29.68-71.15,46-106.18,4.07-10.44,10.4-20.16,11.28-31.77,0-.75,1.22-1.41,1.87-2.11,7.83,14.24,10.43,32.11,16,47.7C311.37,976.8,304.69,982.27,301.65,988.46Zm341,104.77c10.07-3.38,18.58,9.27,28.4,5.49,11.7-4.35,22.57-4.3,33.79.34,5,2.06,10,3.62,13.31,8.65,6.35,9.82,20.19-6.11,34.42,6.26,5.31,4.41-1,6-3.75,6.78-62.1,25.27-9,100.89,40.53,61.28,5.27-5,9.92-9.64,12.87-16.23,1.41-3.15,4.16-3.89,6.15-.22,19.13,26.35-3.92,18.64,20.5,42,9,13.05,16.7,26,8.44,42.63-3.11,6.26,4.77,8.91,6.33,14.2,3.16,10.69,5.66,21,3.4,32.11-.32,1.58.67,3.43,2.07,9.63-18.71-39.33-68.53-18-72.48,17.26-4.15,27,21.7,47.36,47.09,40.56,14-2.34-5.85,29.68-19.86,31.26-2.52.83-3,3.65-3,6.56,0,24.84-11.11,37.48-35.6,41.27-2,.32-4.86,2.31-5.45,4.13-4,12.29-14.57,18.44-23.59,26-3,2.6-7,1.47-3.35-2.1,12-31.12-11.74-56.47-39.63-56.19-11.2.11-32.48,17.31-36.77,27.49-11,24,1.62,39.71,17.69,56-9.42,4.72-23.91,4.63-31.21-3.23-7.44-8.68-13.84-5-21.35-1.94-11.44,4.73-43.29-.32-48.89-15.15-2.41-6.36-8.26-1.31-11.58-.8-12.39,1.91-31.45-6.4-38.14-13.69,32.46-3.17,50.44-28.22,35-60.38-17.78-35.4-74.46-24.71-85.11,10.53-1.72,4-4.43-.1-5.42-1.42-7.7-10.26-11.31-21.3-6.64-34.22,1.34-3.74.15-7-4.67-9.75-13-7.38-25.94-28.79-10.36-50.78,1.2-1.71,1.17-2.23-.22-3.46-10.83-9.66-15.51-25.4-11.81-38.65,13.49,8,26.23,18.45,43.94,12,1-.37,3.82,2.31,4.88,4.1,11.54,20.52,41.27,6.52,58.69,5.7,22.16.39,43.6-5.49,65.57-6.76,41.27-3.24,82.5-7.84,123.74-11.63,10.09-1.06,12.91-12.34,6.46-22.86C706,1201.78,668.48,1150,642.67,1093.23ZM519.6,825.72c34.68,160.9,124.26,302.62,208.55,441.07-5.83,4.29-13,2-19.7,2.69-34.67,2.55-69.36,4.88-103.85,9.38-29.59,2.55-59.15,5.16-88.53,9.82-12.71,2-23.59,2.49-32.35-13-49.44-71.13-96.13-145-129.92-225.15-21.33-55.09-44.64-110.18-58.64-167.64-26.18-90.63-50.87-182.29-62-276.19-4.58-53.82-10-107.41-17.78-160.87-.22-39-7.38-77.46-10.12-116.32-.3-2.95,1.46-2.4,3-2.41,33.84,4.18,68.59,2.52,102.77,4.08,37.92.08,75.67,4.46,113.57,4,8.56.16,17.1,1.42,25.66,1.86,6.55.34,3.23,6,3.05,7.56-1.54,13.62.25,27.05,1,40.57,4.24,79.07,6.68,158.53,20.88,236.61C488.93,690,500.55,758.73,519.6,825.72ZM658.92,574.07c-.83,5.31-9.94,4.86-15.18,8.49-14.62,10.13-30.55,18.37-45.16,28.52a660,660,0,0,0-66.74,53.45c-9.86,8.89-17.73,20.5-30,26.35-1.33-7.74-4.43-15.33-4.94-23.1-3.86-9.62,51.57-44.64,61.16-52.7,30.6-20.31,60-42.53,92.79-59C657,553.18,659.74,565.44,658.92,574.07Zm34.34,78.12C671,593.71,652.87,530.87,659.39,467.78c2.56-21.12,6.41-69,30.2-76.1,2.37.1,2.88,6.58,3.48,10.6,3.83,25.51,5.64,51.22,8.41,76.82,7.09,73.81,9.53,141.83,14.22,217.12A225.65,225.65,0,0,1,693.26,652.19Zm55.42-87.44c-.86,29-5.63,57.86-12.08,86.19-3.12,13.72-5.74,28.08-14.55,40.24,1.66-38.89-1.94-77.14-3-116-3.94-60.63-6.08-121.7-17.89-181.36-.41-2.18-3.35-5.37,1.25-6.51s10.24-.11,12.18,3C747.39,441.56,750.42,505.66,748.68,564.75Zm118.69,67.34c-42.59-16.91-71.52-54.89-98.35-90.15-13.46-16.8-11.36-37.24-13.56-56.35-3.05-26.49-9.92-51.64-20.76-77.48A647.93,647.93,0,0,1,875.6,632.66C872.85,632.5,869.88,633,867.37,632.09Zm11.71-14.2c-33-86-82-159.94-146.49-225C831.67,417.91,880.35,521.6,879.08,617.89ZM829,443.47c30.34,11.06,55,30.09,75.5,55C872.42,491.65,855,478.9,829,443.47Zm-321,612c6.59,25.57,24.1-2.3,32.51,7.08,3.16,5.91-16,11.07-20.07,13.9,3.09,5.79,6,16.45,14.9,11.51,9.32-7.22,34.55-17.2,16,3.34-3.27,4.28-16.2,1.41-10,12.42,4.2,5.87,17,8.46,13.71,18.21-2.39,5.64-8.29,3.59-12.42,4.86-21.22,5.7-57,22.53-41.11,49.38,6.52,8.67,17.12,8.31,26.62,7.65,20.64-.32,35.52-14.67,44.14-32.61,1.6-4.33,6.9-1.61,5.62,3-14.58,69-137.38,41.6-78.07-19.23a153.68,153.68,0,0,1,31.58-16.57c1-.41,4-.23,1.61-4.53-9.71-17.58-20.24-4.12-30.14-1.58s-19.38,6.82-29.26,9.57c-3.76,1-7.3-1.66-9.88-4.78,14.16-12,34.45-13.25,51.38-20.14,3.62-1.16,1.72-5.37,1.45-5.43-5.34-1.18-1-11.89-9.44-9.6s-16.65,5.15-25.14,7c-12.64,1.67-15.59-10.82-.5-11.83,6.25-1.85,13-2.18,19-4.57,8.43-3.37.28-8.63-.15-12.62-.5-4.55-4.33-10,1.19-12.27S507.4,1053.09,508,1055.48ZM492,969c30-35-7.51-80.37-49.54-66.32-1.28.44-2.43.79-3.52-1.26-3.51-6.63-7.42-13.06-11.42-19.42-.81-1.28-3.67-2.89-4-2.61-1.74,1.61-4.08,3.71-4.16,5.72-.09,2.63,2.06,5.26,2.66,8,1.18,5.37,8,12.86,4,15.15-8.28,4.72-13.34,12.21-18.67,18.67-7.81,9.48-12.5,21.59-10.57,34.88.13.92-.59,2-.92,3-6.82-4.86-8.89-33.66-18-33.27-4.36.78-3.25,6.68-2.49,9.14,4,12,20.52,61.64,34.24,60.34,6-2.38,3.12-12,2.43-17-3.46-20.23-1.76-53.55,18.33-64.68a4.34,4.34,0,0,1,2.26,2.16c2.12,20.61,11.07,41.63,7.12,61.39-4.13-1-8.24-2.21-12.42-3-2.15-.41-4-5.33-6.3-1.17-1.89,3.52.37,5.87,2.74,8.7,4.89,5.66,19.48,0,16.54,14.26-.06,5.89-6.34,17.12-1.05,21.12,1.26.59,4.8-.55,5.06-1.52,1.28-4.75,4.52-8.57,5-13.88C449,983.83,468.94,999.57,492,969Zm-37.34,13c-3.63.25-.26-7.2-1.16-9.14-1.79-20-3.15-38.32-10-55.63-2.12-5.39,3.11-5.44,5.19-5.9,19.68-4.36,41.65,14.88,40.17,34.82C488,959.26,468.34,981,454.69,982ZM369,767.6c38.13-30.89,13-29.32,45.62,31.76,10.62,20.92,39.5,41.27,59.54,22.76,3.56-2.37,9.13-8.53,5.78-12.43s-6.3,3.35-9.7,5.22c-6.22,3.42-12.4,8.67-20,4.86-23.33-14.67-32.65-43.1-42.48-67.43-1.65-4.33-5.8-10.34-1.84-15.11,4.42-5.31,10.52-9.19,15.53-14.07C433,709.48,419.1,703.45,406,704.64c-32.72-3.22-7.94,20.47-18.36,32.35-39.59,32.34-26.52,35.26-43-10.56-1.74-4.3-2.25-12.25-9.66-11.23-6.66.93-4.81,7.76-3.8,11.34,3.64,13,8.37,25.65,12.74,38.42,9.48,18.47-19.91,24.72-12.93,59.66,1.63,8.49,5,16.35,14.79,18.27,25.23,1.32,26.81-38.1,20.23-55.45C363.74,780.43,360.25,773.46,369,767.6Zm35.25-55.41c3.17,3.15,11.89-1.48,11.07,2.94s-8.47,7.82-13.13,11.65C400.92,721.42,394.73,712.54,404.2,712.19ZM357,821.63c-3.73,11.15-15.4,11.63-18.16-.06,2.13-10.91,3.06-21.55,10.42-30.24,3.6-4.23,5-.88,5.38,1.41C356.08,802.28,359.87,811.65,357,821.63Zm-53-270.9c-22-22.18,1-57.1,23.52-63.86,7.22-2.28,12.56-9.35,21.16-8.43.4,0,1.54-3.09,1.49-3.12-7.64-3.95-10.66-12-13.79-18.67-5.71-12.15-13.58-2.08-20.13-3.4-10.79-2.13-22,2.35-32.5-2.31-5.83-2.18-3.42-10.66,2.7-7.87,13.28,1.43,27.58,2.22,40.39-1.38-1.9-6.23-16.07-26.09-6.45-28.9,7.49-1.88,11.4,17.14,15.76,22.12,4.12,7.24,10.19,3.25,15.38,1.87,5-.13,31.07-12.61,31.12-6-.61,4.85-5.45,6.9-9.73,8.22-8.85,2.75-16.75,8.38-26.59,8.31-2.66,0-.41,1.91.22,2.61,6.26,9.68,27.31,22,22.28,34.14-1.85,4.33-6.37,3-10,3-29.05.18-78.3,50.77-30.39,62.12,24.36,3.88,47.89-3.56,65.24-21.25,2.24-2.13,4.16-4.6,6.55-2.41,2,1.79,1.1,5-.69,7.65C379.26,560.75,331,576.56,304,550.73Zm28.13,62.49c-5.79-6.18.85-15.08,6.57-7.89,15,16.63,33.68,28.34,52.13,40.47,1.8,1.18,4,3.91,3.74,5.56C390,668.89,337.57,620.43,332.13,613.22ZM208.65,1602.1c.07,4.47-7.67,7.71-8.82.77-1.66-13.24-3.18-26.51-4.91-39.75-1.88-14.39-4.54-28.71-5.68-43.15,2.63-50.45-1.13-101.2,2.58-151.64,1.81-43.11,3.8-86.6,8.85-129.13,1.8-3.87,7.37-2.64,6.38,1.27.17,61.25-7,122.71-7,183.81,1.38,56.53-1,108.23,7.68,165.43C208.17,1591.71,205.35,1598.47,208.65,1602.1Z"/></g></g><g id="Red_Japanese_Frames" data-name="Red Japanese Frames"><path class="cls-7" d="M0,20V1580a20,20,0,0,0,20,20H956a20,20,0,0,0,20-20V20A20,20,0,0,0,956,0H20A20,20,0,0,0,0,20ZM924,1548H52V52H924Z"/><path class="cls-8" d="M952.1,15.41,928.69,38.83A4,4,0,0,1,925.86,40H50.14a4,4,0,0,1-2.83-1.17L23.9,15.41A2,2,0,0,1,25.31,12H950.69A2,2,0,0,1,952.1,15.41ZM40,1549.86V50.14a4,4,0,0,0-1.17-2.83L15.41,23.9A2,2,0,0,0,12,25.31V1574.69a2,2,0,0,0,3.41,1.41l23.42-23.41A4,4,0,0,0,40,1549.86ZM936,50.14V1549.86a4,4,0,0,0,1.17,2.83l23.42,23.41a2,2,0,0,0,3.41-1.41V25.31a2,2,0,0,0-3.41-1.41L937.17,47.31A4,4,0,0,0,936,50.14ZM925.86,1560H50.14a4,4,0,0,0-2.83,1.17l-20,20a4,4,0,0,0,2.83,6.83H950.69a2,2,0,0,0,1.41-3.41l-23.41-23.42A4,4,0,0,0,925.86,1560Z"/></g></svg>